STARTFONT 2.1
COMMENT
COMMENT Converted from OpenType font "Patriot-Medium.otf" by "otf2bdf 3.0".
COMMENT
FONT -FreeType-Patriot Medium-Medium-R-Normal--50-360-100-100-P-244-ISO10646-1
SIZE 36 100 100
FONTBOUNDINGBOX 84 67 -20 -14
STARTPROPERTIES 19
FOUNDRY "FreeType"
FAMILY_NAME "Patriot Medium"
WEIGHT_NAME "Medium"
SLANT "R"
SETWIDTH_NAME "Normal"
ADD_STYLE_NAME ""
PIXEL_SIZE 50
POINT_SIZE 360
RESOLUTION_X 100
RESOLUTION_Y 100
SPACING "P"
AVERAGE_WIDTH 244
CHARSET_REGISTRY "ISO10646"
CHARSET_ENCODING "1"
FONT_ASCENT 50
FONT_DESCENT 10
COPYRIGHT "Copyright © 2020 by Behalf Studio. All rights reserved."
_OTF_FONTFILE "Patriot-Medium.otf"
_OTF_PSNAME "Patriot-Medium"
ENDPROPERTIES
CHARS 426
STARTCHAR 0020
ENCODING 32
SWIDTH 360 0
DWIDTH 18 0
BBX 0 0 0 0
BITMAP
ENDCHAR
STARTCHAR 0021
ENCODING 33
SWIDTH 260 0
DWIDTH 13 0
BBX 8 36 3 -1
BITMAP
7C
7C
7C
7C
7C
7C
7C
7C
7C
7C
7C
7C
7C
7C
7C
7C
7C
7C
7C
7C
7C
7C
7C
00
00
00
00
00
7C
FE
FF
FF
FF
FE
7E
18
ENDCHAR
STARTCHAR 0022
ENCODING 34
SWIDTH 320 0
DWIDTH 16 0
BBX 11 11 3 24
BITMAP
F1E0
F1E0
F1E0
F1E0
F1E0
F1E0
F1E0
F1E0
F1E0
F1E0
F1E0
ENDCHAR
STARTCHAR 0023
ENCODING 35
SWIDTH 640 0
DWIDTH 32 0
BBX 27 35 3 0
BITMAP
00F81F00
01F01F00
01F01F00
01F03E00
01F03E00
01F03E00
01F03E00
01F03E00
03E03E00
03E03E00
7FFFFFE0
7FFFFFE0
7FFFFFE0
7FFFFFE0
03E07C00
07C07C00
07C07800
07C0F800
07C0F800
07C0F800
07C0F800
FFFFFF80
FFFFFF80
FFFFFF80
FFFFFF80
0F81F000
0F81F000
0F81F000
0F81F000
1F01F000
1F01F000
1F03E000
1F03E000
1F03E000
1F03E000
ENDCHAR
STARTCHAR 0024
ENCODING 36
SWIDTH 540 0
DWIDTH 27 0
BBX 22 45 3 -5
BITMAP
007800
007800
007800
007800
00FC00
07FF80
0FFFC0
1FFFE0
3FFFF0
3FFFF0
7F87F8
7F03F8
7F01F8
7E01F0
7F0000
7F0000
3F8000
3FC000
1FF000
0FFC00
07FE00
03FF80
01FFC0
007FE0
003FF0
000FF8
0007F8
0003FC
0001FC
0000FC
1C00FC
FC00FC
FE01FC
FF01FC
7F87FC
7FFFF8
3FFFF0
1FFFF0
0FFFE0
03FF80
007C00
007800
007800
007800
007800
ENDCHAR
STARTCHAR 0025
ENCODING 37
SWIDTH 920 0
DWIDTH 46 0
BBX 40 37 3 -1
BITMAP
03F0000000
0FFC0007C0
3FFE0007C0
7FFF000F80
7FFF801F00
FC1F801F00
F80F803E00
F80FC07C00
F807C07800
F807C0F800
F80F81F000
FC0F83E000
7E3F83E000
7FFF07C000
3FFE0F8000
1FFC0F8000
07F81F0000
00003E0000
00003C0000
00007C0100
0000F81FF0
0001F07FF8
0001F0FFFC
0003E0FFFE
0007C1F87E
0007C1F03F
000F81F01F
001F03E01F
001E03E01F
003E03F01F
007C01F01F
00F801F83F
00F800FFFE
01F000FFFC
03E0007FF8
03E0001FF0
00000007C0
ENDCHAR
STARTCHAR 0026
ENCODING 38
SWIDTH 660 0
DWIDTH 33 0
BBX 28 37 3 -1
BITMAP
00380000
03FF8000
07FFE000
0FFFF000
1FFFF800
3FFFFC00
3FC3FC00
7F00F800
7F007000
7E006000
7E000000
7E000000
7E000000
7F000000
3F800000
3FFFFFF0
1FFFFFF0
0FFFFFF0
1FFFFFF0
3FFFFFF0
7FFFFFF0
7F801F80
FE001F80
FE001F80
FC003F80
FC003F80
FC003F80
FE007F00
FE007F00
FF00FF00
7FC3FE00
7FFFFC00
3FFFFC00
1FFFF800
0FFFE000
03FFC000
003C0000
ENDCHAR
STARTCHAR 0027
ENCODING 39
SWIDTH 180 0
DWIDTH 9 0
BBX 4 11 3 24
BITMAP
F0
F0
F0
F0
F0
F0
F0
F0
F0
F0
F0
ENDCHAR
STARTCHAR 0028
ENCODING 40
SWIDTH 340 0
DWIDTH 17 0
BBX 12 47 3 -7
BITMAP
0080
01E0
03F0
03E0
07C0
0FC0
0F80
1F00
1F00
1E00
3E00
3E00
7C00
7C00
7800
7800
F800
F800
F800
F000
F000
F000
F000
F000
F000
F000
F000
F000
F800
F800
F800
7800
7800
7C00
7C00
3E00
3E00
1E00
1F00
1F00
0F80
0FC0
07C0
03E0
03F0
01C0
0080
ENDCHAR
STARTCHAR 0029
ENCODING 41
SWIDTH 340 0
DWIDTH 17 0
BBX 12 47 3 -7
BITMAP
3000
7800
F800
7C00
7C00
3E00
3E00
1F00
1F00
0F80
0F80
07C0
07C0
03C0
03E0
03E0
01E0
01E0
01E0
01E0
01F0
01F0
01F0
01F0
01F0
01F0
01F0
01E0
01E0
01E0
01E0
03E0
03E0
03C0
07C0
07C0
0780
0F80
0F00
1F00
3F00
3E00
7C00
7C00
F800
7800
3000
ENDCHAR
STARTCHAR 002A
ENCODING 42
SWIDTH 440 0
DWIDTH 22 0
BBX 17 17 3 18
BITMAP
018000
03C000
03E000
03E000
03E000
F3C700
FDDF80
FFFF80
FFFF80
7FFE00
03E000
0FF800
1F7C00
1F7C00
3E7E00
3E3E00
1C1C00
ENDCHAR
STARTCHAR 002B
ENCODING 43
SWIDTH 560 0
DWIDTH 28 0
BBX 23 23 3 5
BITMAP
007C00
007C00
007C00
007C00
007C00
007C00
007C00
007C00
007C00
FFFFFE
FFFFFE
FFFFFE
FFFFFE
FFFFFE
007C00
007C00
007C00
007C00
007C00
007C00
007C00
007C00
007C00
ENDCHAR
STARTCHAR 002C
ENCODING 44
SWIDTH 260 0
DWIDTH 13 0
BBX 8 10 3 -6
BITMAP
1F
1F
3E
3E
3C
7C
78
78
F0
F0
ENDCHAR
STARTCHAR 002D
ENCODING 45
SWIDTH 440 0
DWIDTH 22 0
BBX 17 5 3 9
BITMAP
FFFF80
FFFF80
FFFF80
FFFF80
FFFF80
ENDCHAR
STARTCHAR 002E
ENCODING 46
SWIDTH 260 0
DWIDTH 13 0
BBX 8 8 3 -1
BITMAP
7C
FE
FF
FF
FF
FE
7E
18
ENDCHAR
STARTCHAR 002F
ENCODING 47
SWIDTH 420 0
DWIDTH 21 0
BBX 15 37 3 -1
BITMAP
003E
003E
003E
007C
007C
007C
00F8
00F8
00F8
00F8
01F0
01F0
01F0
03E0
03E0
03E0
03E0
07C0
07C0
07C0
0F80
0F80
0F80
0F80
1F00
1F00
1F00
3E00
3E00
3E00
3E00
7C00
7C00
7C00
F800
F800
F800
ENDCHAR
STARTCHAR 0030
ENCODING 48
SWIDTH 720 0
DWIDTH 36 0
BBX 33 37 2 -1
BITMAP
0007E00000
003FFE0000
00FFFF8000
03FFFFC000
07FFFFE000
0FFFFFF000
1FF80FF800
1FE003FC00
3F8001FC00
7F0000FE00
7F00007E00
7E00007F00
FE00003F00
FC00003F00
FC00003F00
FC00001F00
FC00001F80
FC00001F80
FC00001F80
FC00001F80
FC00001F80
FC00001F00
FC00003F00
FC00003F00
FE00003F00
7E00007F00
7F00007E00
3F0000FE00
3F8001FC00
1FE003FC00
1FF81FF800
0FFFFFF000
07FFFFE000
03FFFFC000
00FFFF0000
003FFC0000
0007E00000
ENDCHAR
STARTCHAR 0031
ENCODING 49
SWIDTH 320 0
DWIDTH 16 0
BBX 12 35 2 0
BITMAP
03F0
03F0
03F0
FFF0
FFF0
FFF0
FFF0
FFF0
FFF0
03F0
03F0
03F0
03F0
03F0
03F0
03F0
03F0
03F0
03F0
03F0
03F0
03F0
03F0
03F0
03F0
03F0
03F0
03F0
03F0
03F0
03F0
03F0
03F0
03F0
03F0
ENDCHAR
STARTCHAR 0032
ENCODING 50
SWIDTH 560 0
DWIDTH 28 0
BBX 24 36 2 0
BITMAP
007E00
03FFC0
07FFE0
0FFFF8
1FFFFC
3FFFFC
7FC1FE
7F00FE
7E007E
FE007E
FC003F
FC003F
04007E
00007E
00007E
0000FE
0000FC
0001FC
0003F8
0003F8
0007F0
000FE0
001FC0
003F80
007F00
00FE00
01FE00
03FC00
07F800
0FF000
1FE000
3FFFFF
7FFFFF
FFFFFF
FFFFFF
FFFFFF
ENDCHAR
STARTCHAR 0033
ENCODING 51
SWIDTH 520 0
DWIDTH 26 0
BBX 23 36 2 -1
BITMAP
7FFFFC
7FFFFC
7FFFF8
7FFFF0
7FFFF0
000FC0
001FC0
003F80
007F00
00FE00
01FC00
03FE00
07FF80
0FFFC0
1FFFF0
3FFFF0
1FFFF8
0E03FC
0401FC
0000FE
00007E
00007E
00007E
00007E
00007E
00007E
0000FE
1800FC
3C01FC
FF07F8
FFFFF8
7FFFF0
3FFFE0
1FFFC0
07FF00
00F800
ENDCHAR
STARTCHAR 0034
ENCODING 52
SWIDTH 540 0
DWIDTH 27 0
BBX 26 35 1 0
BITMAP
0001FC00
001FFC00
007FFC00
00FFFC00
03FFFC00
07FFFC00
0FFCFC00
0FF0FC00
1FE0FC00
3FC0FC00
3F80FC00
3F00FC00
7F00FC00
7E00FC00
7E00FC00
FC00FC00
FC00FC00
FC00FC00
FC00FC00
FC00FC00
FFFFFFC0
FFFFFFC0
FFFFFFC0
FFFFFFC0
FFFFFFC0
0000FC00
0000FC00
0000FC00
0000FC00
0000FC00
0000FC00
0000FC00
0000FC00
0000FC00
0000FC00
ENDCHAR
STARTCHAR 0035
ENCODING 53
SWIDTH 540 0
DWIDTH 27 0
BBX 24 36 2 -1
BITMAP
3FFFFC
3FFFFC
3FFFFC
3FFFFC
3FFFFC
3E0000
3E0000
3E0000
3E0000
7E0000
7E0000
7EFF00
7FFFC0
7FFFF0
7FFFF8
7FFFFC
7FEFFC
7F01FE
1C00FE
00007E
00007F
00003F
00003F
00003F
00003F
00003F
00007E
0C00FE
3E01FE
7F03FC
FFFFFC
7FFFF8
3FFFF0
0FFFE0
03FF80
00FC00
ENDCHAR
STARTCHAR 0036
ENCODING 54
SWIDTH 620 0
DWIDTH 31 0
BBX 27 36 2 -1
BITMAP
0007F000
000FE000
001FC000
003FC000
003F8000
007F0000
00FE0000
00FE0000
01FC0000
03F80000
07FFF000
07FFFC00
0FFFFE00
1FFFFF00
1FFFFF80
3FC07FC0
3F801FC0
7F000FE0
7E000FE0
7E0007E0
FC0007E0
FC0007E0
FC0007E0
FC0007E0
FE0007E0
7E0007E0
7E000FE0
7F000FC0
3F801FC0
3FE07F80
1FFFFF80
0FFFFF00
07FFFE00
03FFFC00
00FFF000
001F8000
ENDCHAR
STARTCHAR 0037
ENCODING 55
SWIDTH 480 0
DWIDTH 24 0
BBX 22 35 2 0
BITMAP
FFFFFC
FFFFFC
FFFFFC
FFFFFC
FFFFF8
FFFFF8
0003F8
0003F0
0003F0
0007E0
0007E0
000FE0
000FC0
000FC0
3FFFF0
3FFFF0
3FFFF0
3FFFF0
3FFFF0
007E00
007E00
00FE00
00FC00
00FC00
01F800
01F800
03F800
03F000
03F000
07E000
07E000
0FE000
0FC000
0FC000
1F8000
ENDCHAR
STARTCHAR 0038
ENCODING 56
SWIDTH 560 0
DWIDTH 28 0
BBX 26 37 1 -1
BITMAP
001F0000
00FFC000
01FFF000
03FFF800
07FFF800
07FFFC00
0FE0FC00
0FC07E00
0FC07E00
0FC07E00
0FC07E00
0FC0FC00
07F3FC00
07FFFC00
03FFF800
07FFFC00
0FFFFE00
1FFFFF00
3FC07F00
3F803F80
7F001F80
7E001FC0
7E000FC0
7C000FC0
FC000FC0
7E000FC0
7E000FC0
7E001FC0
7F001F80
3F803F80
3FC0FF00
1FFFFF00
0FFFFE00
0FFFFC00
03FFF800
01FFE000
001F0000
ENDCHAR
STARTCHAR 0039
ENCODING 57
SWIDTH 600 0
DWIDTH 30 0
BBX 27 36 2 0
BITMAP
003F0000
01FFE000
03FFF800
0FFFFC00
1FFFFE00
3FFFFF00
3FC0FF80
7F803FC0
7F001FC0
FE000FC0
FC000FE0
FC0007E0
FC0007E0
FC0007E0
FC0007E0
FC0007E0
FC000FE0
FE000FC0
7E001FC0
7F003FC0
3FC07F80
3FFFFF00
1FFFFF00
0FFFFE00
07FFFC00
00FFFC00
0003F800
0007F000
0007F000
000FE000
001FC000
003F8000
003F8000
007F0000
00FE0000
00FE0000
ENDCHAR
STARTCHAR 003A
ENCODING 58
SWIDTH 260 0
DWIDTH 13 0
BBX 8 26 3 -1
BITMAP
38
7E
FF
FF
FF
FF
FE
3C
00
00
00
00
00
00
00
00
00
00
7C
FE
FF
FF
FF
FE
7E
18
ENDCHAR
STARTCHAR 003B
ENCODING 59
SWIDTH 280 0
DWIDTH 14 0
BBX 9 31 3 -6
BITMAP
1E00
3F00
7F80
7F80
7F80
7F80
3F00
1E00
0000
0000
0000
0000
0000
0000
0000
0000
0000
0000
0000
0000
0000
1F00
1F00
3E00
3E00
3C00
7C00
7800
7800
F000
F000
ENDCHAR
STARTCHAR 003C
ENCODING 60
SWIDTH 560 0
DWIDTH 28 0
BBX 23 22 3 5
BITMAP
000002
00000E
00007E
0003FE
000FFE
007FFC
03FFE0
0FFF00
7FF800
FFC000
FE0000
FC0000
FF8000
FFE000
3FFC00
0FFF80
01FFF0
003FFE
0007FE
0001FE
00003E
000006
ENDCHAR
STARTCHAR 003D
ENCODING 61
SWIDTH 560 0
DWIDTH 28 0
BBX 23 15 3 9
BITMAP
FFFFFE
FFFFFE
FFFFFE
FFFFFE
FFFFFE
000000
000000
000000
000000
000000
FFFFFE
FFFFFE
FFFFFE
FFFFFE
FFFFFE
ENDCHAR
STARTCHAR 003E
ENCODING 62
SWIDTH 560 0
DWIDTH 28 0
BBX 23 21 3 6
BITMAP
E00000
FC0000
FF0000
FFE000
7FFC00
0FFF00
01FFE0
003FFC
000FFE
0001FE
00007E
0003FE
000FFE
007FF8
03FFC0
1FFE00
FFF800
FFC000
FE0000
F80000
C00000
ENDCHAR
STARTCHAR 003F
ENCODING 63
SWIDTH 440 0
DWIDTH 22 0
BBX 17 37 3 -1
BITMAP
01C000
0FF800
3FFC00
7FFE00
7FFF00
FFFF00
FC3F00
781F80
181F80
001F00
003F00
003F00
007E00
00FC00
00FC00
01F800
03F000
03F000
07E000
07E000
07C000
07C000
07C000
07C000
07C000
000000
000000
000000
000000
07C000
0FE000
0FF000
0FF000
0FF000
0FE000
07E000
018000
ENDCHAR
STARTCHAR 0040
ENCODING 64
SWIDTH 800 0
DWIDTH 40 0
BBX 35 37 3 -1
BITMAP
0003FE0000
001FFFC000
007FFFF000
01FFFFF800
03F800FE00
07E0003F00
0F80000F00
1F00000F80
1E000007C0
3C000003C0
7C03FBC3C0
780FFFC1E0
780FFF81E0
F01FFF81E0
F03F0F81E0
F03F0781E0
F03E0781E0
F03E0781E0
F07E0781E0
F07E0F83C0
F03E0F83C0
F03F1F8780
F03FFFCF80
F81FFFFF00
781FFBFE00
7807E1FC00
3C00000000
3E00000000
1E00000000
1F00000400
0FC0001E00
07E0003F00
03FC01FE00
00FFFFF800
007FFFF000
001FFFC000
0000FC0000
ENDCHAR
STARTCHAR 0041
ENCODING 65
SWIDTH 560 0
DWIDTH 28 0
BBX 26 36 2 0
BITMAP
007C0000
03FF8000
07FFC000
0FFFE000
1FFFF000
3FFFF800
3F87F800
7F01FC00
7F01FC00
7E00FC00
7E00FC00
7E00FC00
FE00FC00
FE00FC00
FE00FC00
FE00FC00
FE00FC00
FE00FC00
FE00FC00
FE00FC00
FE00FC00
FE00FC00
FE00FC00
FE00FC00
FE00FC00
FE00FC00
FE00FC00
FE00FC00
FE00FC00
FE00FC00
FFFFFFC0
FFFFFFC0
FFFFFFC0
FFFFFFC0
FFFFFFC0
FFFFFFC0
ENDCHAR
STARTCHAR 0042
ENCODING 66
SWIDTH 620 0
DWIDTH 31 0
BBX 28 35 2 0
BITMAP
1FFFF000
1FFFFC00
1FFFFF00
1FFFFF80
1FFFFF80
1FFFFFC0
1F801FC0
1F800FE0
1F800FE0
1F8007E0
1F8007E0
1F8007E0
1F800FE0
1F801FC0
FFFFFFC0
FFFFFF80
FFFFFF80
FFFFFF80
FFFFFFC0
FFFFFFE0
1F801FE0
1F800FE0
1F8007F0
1F8003F0
1F8003F0
1F8003F0
1F8007F0
1F8007F0
1F801FE0
1FFFFFE0
1FFFFFC0
1FFFFFC0
1FFFFF80
1FFFFE00
1FFFF000
ENDCHAR
STARTCHAR 0043
ENCODING 67
SWIDTH 680 0
DWIDTH 34 0
BBX 31 37 2 -1
BITMAP
0000FC00
001FFF80
007FFFE0
01FFFFF8
03FFFFFC
07FFFFFE
0FFE07FE
1FF800FC
1FE00078
3FC00010
7F800000
7F000000
7E000000
FE000000
FE000000
FC000000
FC000000
FC000000
FC000000
FC000000
FC000000
FC000000
FE000000
FE000000
7E000000
7F000000
7F800000
3FC00010
1FE00078
1FF800FC
0FFE07FE
07FFFFFE
03FFFFFC
01FFFFF8
007FFFE0
001FFF80
0000F800
ENDCHAR
STARTCHAR 0044
ENCODING 68
SWIDTH 660 0
DWIDTH 33 0
BBX 29 35 3 0
BITMAP
FFFE0000
FFFFE000
FFFFF800
FFFFFC00
FFFFFF00
FFFFFF80
FC01FF80
FC007FC0
FC001FE0
FC000FE0
FC0007F0
FC0007F0
FC0003F0
FC0003F8
FC0003F8
FC0003F8
FC0001F8
FC0001F8
FC0001F8
FC0003F8
FC0003F8
FC0003F8
FC0003F0
FC0007F0
FC0007F0
FC000FE0
FC001FE0
FC007FC0
FC01FF80
FFFFFF80
FFFFFF00
FFFFFC00
FFFFF800
FFFFE000
FFFE0000
ENDCHAR
STARTCHAR 0045
ENCODING 69
SWIDTH 500 0
DWIDTH 25 0
BBX 24 35 1 0
BITMAP
1FFFC0
1FFFC0
1FFFC0
1FFFC0
1FFFC0
1FFFC0
1FC000
1FC000
1FC000
1FC000
1FC000
1FC000
1FC000
1FC000
FFFFF0
FFFFF0
FFFFF0
FFFFF0
FFFFF0
FFFFF0
1FC000
1FC000
1FC000
1FC000
1FC000
1FC000
1FC000
1FC000
1FC000
1FFFFF
1FFFFF
1FFFFF
1FFFFF
1FFFFF
1FFFFF
ENDCHAR
STARTCHAR 0046
ENCODING 70
SWIDTH 460 0
DWIDTH 23 0
BBX 23 35 1 0
BITMAP
0FFFFE
0FFFFE
0FFFFE
0FFFFE
0FFFFE
0FFFFE
0FC000
0FC000
0FC000
0FC000
0FC000
0FC000
0FC000
0FC000
0FC000
0FC000
FFFFF8
FFFFF8
FFFFF8
FFFFF8
FFFFF8
0FC000
0FC000
0FC000
0FC000
0FC000
0FC000
0FC000
0FC000
0FC000
0FC000
0FC000
0FC000
0FC000
0FC000
ENDCHAR
STARTCHAR 0047
ENCODING 71
SWIDTH 820 0
DWIDTH 41 0
BBX 39 37 2 -1
BITMAP
0000F80000
001FFF8000
007FFFE000
00FFFFF800
03FFFFFC00
07FFFFFE00
0FFE03FE00
1FF000FC00
1FE0003800
3FC0001000
3F80000000
7F00000000
7E00000000
FE00000000
FE00000000
FC00000000
FC007FFFFE
FC007FFFFE
FC007FFFFE
FC007FFFFE
FC007FFFFE
FC000003F0
FE000007F0
FE000007F0
7E000007F0
7F00000FE0
3F80001FE0
3FC0001FC0
1FE0003FC0
1FF800FF80
0FFE03FF00
07FFFFFE00
03FFFFFC00
00FFFFF800
007FFFE000
000FFF8000
0000F80000
ENDCHAR
STARTCHAR 0048
ENCODING 72
SWIDTH 560 0
DWIDTH 28 0
BBX 25 35 1 0
BITMAP
1FC01F80
1FC01F80
1FC01F80
1FC01F80
1FC01F80
1FC01F80
1FC01F80
1FC01F80
1FC01F80
1FC01F80
1FC01F80
1FC01F80
1FC01F80
1FC01F80
1FC01F80
FFFFFF80
FFFFFF80
FFFFFF80
FFFFFF80
FFFFFF80
FFFFFF80
1FC01F80
1FC01F80
1FC01F80
1FC01F80
1FC01F80
1FC01F80
1FC01F80
1FC01F80
1FC01F80
1FC01F80
1FC01F80
1FC01F80
1FC01F80
1FC01F80
ENDCHAR
STARTCHAR 0049
ENCODING 73
SWIDTH 220 0
DWIDTH 11 0
BBX 13 40 -1 0
BITMAP
0200
0200
0300
0700
0700
FFF8
7FF0
3FE0
1FC0
1FC0
1FC0
18E0
3060
0000
0000
0000
0000
0000
1FC0
1FC0
1FC0
1FC0
1FC0
1FC0
1FC0
1FC0
1FC0
1FC0
1FC0
1FC0
1FC0
1FC0
1FC0
1FC0
1FC0
1FC0
1FC0
1FC0
1FC0
1FC0
ENDCHAR
STARTCHAR 004A
ENCODING 74
SWIDTH 480 0
DWIDTH 24 0
BBX 20 36 1 -1
BITMAP
003FF0
003FF0
003FF0
003FF0
003FF0
003FF0
0003F0
0003F0
0003F0
0003F0
0003F0
0003F0
0003F0
0003F0
0003F0
0003F0
0003F0
0003F0
0003F0
0003F0
0003F0
0003F0
0003F0
0003F0
0003F0
0003F0
0003F0
1C07F0
7C07F0
FF1FE0
FFFFE0
7FFFC0
3FFF80
1FFF00
0FFE00
01F000
ENDCHAR
STARTCHAR 004B
ENCODING 75
SWIDTH 560 0
DWIDTH 28 0
BBX 25 35 1 0
BITMAP
1FC07E00
1FC07E00
1FC07E00
1FC07E00
1FC07E00
1FC07E00
1FC07E00
1FC07E00
1FC07E00
1FC0FE00
1FC0FE00
1FC0FC00
1FC1FC00
1FC3FC00
FFFFF800
FFFFF800
FFFFF800
FFFFFC00
FFFFFE00
FFFFFE00
1FC0FF00
1FC07F00
1FC03F00
1FC03F80
1FC03F80
1FC01F80
1FC01F80
1FC01F80
1FC01F80
1FC01F80
1FC01F80
1FC01F80
1FC01F80
1FC01F80
1FC01F80
ENDCHAR
STARTCHAR 004C
ENCODING 76
SWIDTH 440 0
DWIDTH 22 0
BBX 19 35 3 0
BITMAP
FC0000
FC0000
FC0000
FC0000
FC0000
FC0000
FC0000
FC0000
FC0000
FC0000
FC0000
FC0000
FC0000
FC0000
FC0000
FC0000
FC0000
FC0000
FC0000
FC0000
FC0000
FC0000
FC0000
FC0000
FC0000
FC0000
FC0000
FC0000
FC0000
FFFFE0
FFFFE0
FFFFE0
FFFFE0
FFFFE0
FFFFE0
ENDCHAR
STARTCHAR 004D
ENCODING 77
SWIDTH 880 0
DWIDTH 44 0
BBX 40 36 1 0
BITMAP
1000000000
380018003F
3E001E003F
7F001F003F
FF801F803F
7FE01FE03F
3FF01FF03F
1FF81FF83F
1FFC1FFC3F
1FFF1FFF3F
1FFF9FFFBF
1FFFDFFFFF
1FBFFFBFFF
1F8FFF9FFF
1F87FF87FF
1F83FF83FF
1F81FF81FF
1F807F80FF
1F803F803F
1F801F803F
1F801F803F
1F801F803F
1F801F803F
1F801F803F
1F801F803F
1F801F803F
1F801F803F
1F801F803F
1F801F803F
1F801F803F
1F801F803F
1F801F803F
1F801F803F
1F801F803F
1F801F803F
1F801F803F
ENDCHAR
STARTCHAR 004E
ENCODING 78
SWIDTH 540 0
DWIDTH 27 0
BBX 24 36 1 0
BITMAP
100000
38003F
3E003F
7F003F
FF803F
7FE03F
3FF03F
3FF83F
3FFC3F
3FFF3F
3FFFBF
3FFFFF
3FBFFF
3F9FFF
3F8FFF
3F83FF
3F81FF
3F80FF
3F807F
3F803F
3F803F
3F803F
3F803F
3F803F
3F803F
3F803F
3F803F
3F803F
3F803F
3F803F
3F803F
3F803F
3F803F
3F803F
3F803F
3F803F
ENDCHAR
STARTCHAR 004F
ENCODING 79
SWIDTH 820 0
DWIDTH 41 0
BBX 37 37 2 -1
BITMAP
0000F80000
001FFFC000
007FFFF000
00FFFFF800
03FFFFFE00
07FFFFFF00
0FFE03FF80
1FF8007FC0
1FE0003FC0
3FC0001FE0
3F80000FF0
7F000007F0
7E000003F0
FE000003F8
FE000003F8
FC000001F8
FC000001F8
FC000001F8
FC000001F8
FC000001F8
FC000001F8
FC000001F8
FE000003F8
FE000003F8
7E000003F0
7F000007F0
3F80000FF0
3FC0001FE0
1FE0003FC0
1FF8007FC0
0FFE03FF80
07FFFFFF00
03FFFFFE00
00FFFFFC00
007FFFF000
000FFFC000
0000F80000
ENDCHAR
STARTCHAR 0050
ENCODING 80
SWIDTH 560 0
DWIDTH 28 0
BBX 27 35 1 0
BITMAP
1FFFC000
1FFFF800
1FFFFE00
1FFFFF00
1FFFFF80
1FFFFFC0
1F803FC0
1F801FC0
1F800FE0
1F8007E0
1F8007E0
1F8007E0
1F800FE0
1F800FE0
1F801FC0
1F803FC0
FFFFFF80
FFFFFF80
FFFFFF00
FFFFFE00
FFFFF800
FFFFC000
1F800000
1F800000
1F800000
1F800000
1F800000
1F800000
1F800000
1F800000
1F800000
1F800000
1F800000
1F800000
1F800000
ENDCHAR
STARTCHAR 0051
ENCODING 81
SWIDTH 820 0
DWIDTH 41 0
BBX 37 37 2 -1
BITMAP
0000F80000
001FFFC000
007FFFF000
00FFFFF800
03FFFFFE00
07FFFFFF00
0FFE03FF80
1FF8007FC0
1FE0003FC0
3FC0001FE0
3F80000FF0
7F000007F0
7E000003F0
FE000003F8
FE000003F8
FC000001F8
FC000001F8
FC000001F8
FC000001F8
FC000001F8
FC000001F8
FC000001F8
FE000003F8
FE000003F8
7E000023F0
7F000077F0
3F8001FFF0
3FC003FFE0
1FE001FFC0
1FF801FFC0
0FFE03FF80
07FFFFFFC0
03FFFFFFE0
00FFFFFFE0
007FFFFFC0
000FFFC780
0000FC0300
ENDCHAR
STARTCHAR 0052
ENCODING 82
SWIDTH 600 0
DWIDTH 30 0
BBX 28 35 1 0
BITMAP
1FFFF000
1FFFFC00
1FFFFF00
1FFFFF80
1FFFFFC0
1FFFFFC0
1FC01FE0
1FC00FE0
1FC007F0
1FC007F0
1FC003F0
1FC003F0
1FC007F0
1FC007E0
1FC00FE0
1FC03FE0
FFFFFFC0
FFFFFF80
FFFFFF00
FFFFFE00
FFFFFF00
FFFFFF00
1FC07F80
1FC01F80
1FC01FC0
1FC01FC0
1FC00FC0
1FC00FC0
1FC00FC0
1FC00FC0
1FC00FC0
1FC00FC0
1FC00FC0
1FC00FC0
1FC00FC0
ENDCHAR
STARTCHAR 0053
ENCODING 83
SWIDTH 500 0
DWIDTH 25 0
BBX 23 37 1 -1
BITMAP
007C00
03FF80
07FFE0
0FFFF0
1FFFF8
1FFFF8
3FC3FC
3F81FC
3F00FC
3F00F0
3F0080
3F8000
3FC000
1FE000
0FF800
0FFC00
07FF00
03FF80
00FFE0
007FF0
001FF8
0007F8
0003FC
0001FC
0000FE
0000FE
0E007E
FE007E
7F00FE
7F01FE
3FC3FC
3FFFFC
1FFFF8
0FFFF0
07FFE0
01FFC0
003E00
ENDCHAR
STARTCHAR 0054
ENCODING 84
SWIDTH 500 0
DWIDTH 25 0
BBX 24 35 1 0
BITMAP
FFFFFF
FFFFFF
FFFFFF
FFFFFF
FFFFFF
FFFFFF
007E00
007E00
007E00
007E00
007E00
007E00
007E00
007E00
007E00
007E00
007E00
007E00
007E00
007E00
007E00
007E00
007E00
007E00
007E00
007E00
007E00
007E00
007E00
007E00
007E00
007E00
007E00
007E00
007E00
ENDCHAR
STARTCHAR 0055
ENCODING 85
SWIDTH 520 0
DWIDTH 26 0
BBX 22 36 2 -1
BITMAP
FE00FC
FE00FC
FE00FC
FE00FC
FE00FC
FE00FC
FE00FC
FE00FC
FE00FC
FE00FC
FE00FC
FE00FC
FE00FC
FE00FC
FE00FC
FE00FC
FE00FC
FE00FC
FE00FC
FE00FC
FE00FC
FE00FC
FE00FC
FE00FC
FE00FC
FE00FC
FE00FC
7E01FC
7F01F8
7F87F8
3FFFF8
1FFFF0
1FFFE0
0FFFC0
03FF00
007C00
ENDCHAR
STARTCHAR 0056
ENCODING 86
SWIDTH 480 0
DWIDTH 24 0
BBX 21 35 1 0
BITMAP
FC01F8
FC01F8
FC01F8
FC01F8
FC01F8
FC01F8
FC01F8
FC01F8
FC01F8
FC01F8
FC01F8
FC01F8
FC01F8
FC01F8
FC01F8
FC01F8
FC01F8
FC01F8
FC03F8
FC03F8
FC03F8
FC03F0
FE03F0
FE03F0
7E07F0
7E07E0
7F07E0
3F0FE0
3F8FC0
1F9FC0
1FFF80
0FFF80
07FF00
07FE00
03FC00
ENDCHAR
STARTCHAR 0057
ENCODING 87
SWIDTH 780 0
DWIDTH 39 0
BBX 36 35 1 0
BITMAP
FC01F803F0
FC01F803F0
FC01F803F0
FC01F803F0
FC01F803F0
FC01F803F0
FC01F803F0
FC01F803F0
FC01F803F0
FC01F803F0
FC01F803F0
FC01F803F0
FC01F803F0
FC01F803F0
FC01F803F0
FC01F803F0
FC01F803F0
FC01F803F0
FC03F807F0
FC03F807F0
FC03F807F0
FC03F807E0
FE03FC07E0
FE03FC07E0
7E07FC0FE0
7E07FE0FE0
7F07FE0FC0
3F0FFE1FC0
3F8FFF1F80
1F9FFF3F80
1FFFBFBF00
0FFF9FFF00
07FF0FFE00
07FE07FC00
03FC07F800
ENDCHAR
STARTCHAR 0058
ENCODING 88
SWIDTH 520 0
DWIDTH 26 0
BBX 22 35 2 0
BITMAP
FE00FC
FE00FC
FE00FC
FE00FC
FE00FC
FE00FC
FE00FC
7E00FC
7E00FC
7E00FC
7F01FC
7F83FC
3FFFF8
3FFFF8
1FFFF0
0FFFE0
1FFFF0
3FFFF8
3FC7F8
7F01FC
7F01FC
7E00FC
7E00FC
7E00FC
FE00FC
FE00FC
FE00FC
FE00FC
FE00FC
FE00FC
FE00FC
FE00FC
FE00FC
FE00FC
FE00FC
ENDCHAR
STARTCHAR 0059
ENCODING 89
SWIDTH 500 0
DWIDTH 25 0
BBX 22 35 2 0
BITMAP
FC00FC
FC00FC
FC00FC
FC00FC
FC00FC
FC00FC
FC00FC
FC00FC
FC00FC
FC00FC
FC00FC
FC00FC
FC00FC
FC00FC
FC00FC
FC00FC
FC00FC
FE01FC
FE01FC
7E03F8
7F87F8
7FFFF0
3FFFF0
1FFFE0
0FFFC0
07FF80
01FC00
00FC00
00FC00
00FC00
00FC00
00FC00
00FC00
00FC00
00FC00
ENDCHAR
STARTCHAR 005A
ENCODING 90
SWIDTH 520 0
DWIDTH 26 0
BBX 24 35 1 0
BITMAP
FFFFFF
FFFFFF
FFFFFF
FFFFFF
FFFFFE
FFFFFC
0001FC
0001F8
0003F8
0007F0
0007F0
000FE0
000FC0
001FC0
003F80
003F80
007F00
007E00
00FE00
01FC00
01FC00
03F800
03F000
07F000
0FE000
0FE000
1FC000
1FC000
3F8000
7FFFFE
7FFFFE
FFFFFE
FFFFFE
FFFFFE
FFFFFE
ENDCHAR
STARTCHAR 005B
ENCODING 91
SWIDTH 260 0
DWIDTH 13 0
BBX 7 48 3 -7
BITMAP
FE
FE
FE
FE
F0
F0
F0
F0
F0
F0
F0
F0
F0
F0
F0
F0
F0
F0
F0
F0
F0
F0
F0
F0
F0
F0
F0
F0
F0
F0
F0
F0
F0
F0
F0
F0
F0
F0
F0
F0
F0
F0
F0
F0
F0
FE
FE
FE
ENDCHAR
STARTCHAR 005C
ENCODING 92
SWIDTH 420 0
DWIDTH 21 0
BBX 15 37 3 -1
BITMAP
F800
F800
F800
7C00
7C00
7C00
3E00
3E00
3E00
3E00
1F00
1F00
1F00
0F80
0F80
0F80
0F80
07C0
07C0
07C0
03E0
03E0
03E0
03E0
01F0
01F0
01F0
00F8
00F8
00F8
00F8
007C
007C
007C
003E
003E
003E
ENDCHAR
STARTCHAR 005D
ENCODING 93
SWIDTH 260 0
DWIDTH 13 0
BBX 7 48 3 -7
BITMAP
FE
FE
FE
FE
1E
1E
1E
1E
1E
1E
1E
1E
1E
1E
1E
1E
1E
1E
1E
1E
1E
1E
1E
1E
1E
1E
1E
1E
1E
1E
1E
1E
1E
1E
1E
1E
1E
1E
1E
1E
1E
1E
1E
1E
1E
FE
FE
FE
ENDCHAR
STARTCHAR 005E
ENCODING 94
SWIDTH 500 0
DWIDTH 25 0
BBX 20 13 3 17
BITMAP
01F800
03FC00
07FC00
07FE00
0FBE00
0F9F00
1F0F00
1E0F80
3E07C0
3C07C0
7C03E0
7803E0
F801F0
ENDCHAR
STARTCHAR 005F
ENCODING 95
SWIDTH 540 0
DWIDTH 27 0
BBX 21 4 3 -6
BITMAP
FFFFF8
FFFFF8
FFFFF8
FFFFF8
ENDCHAR
STARTCHAR 0060
ENCODING 96
SWIDTH 160 0
DWIDTH 8 0
BBX 8 7 0 38
BITMAP
F8
78
7C
3C
1E
0E
0F
ENDCHAR
STARTCHAR 0061
ENCODING 97
SWIDTH 560 0
DWIDTH 28 0
BBX 26 36 2 0
BITMAP
007C0000
03FF8000
07FFC000
0FFFE000
1FFFF000
3FFFF800
3F87F800
7F01FC00
7F01FC00
7E00FC00
7E00FC00
7E00FC00
FE00FC00
FE00FC00
FE00FC00
FE00FC00
FE00FC00
FE00FC00
FE00FC00
FE00FC00
FE00FC00
FE00FC00
FE00FC00
FE00FC00
FE00FC00
FE00FC00
FE00FC00
FE00FC00
FE00FC00
FE00FC00
FFFFFFC0
FFFFFFC0
FFFFFFC0
FFFFFFC0
FFFFFFC0
FFFFFFC0
ENDCHAR
STARTCHAR 0062
ENCODING 98
SWIDTH 620 0
DWIDTH 31 0
BBX 28 35 2 0
BITMAP
1FFFF000
1FFFFC00
1FFFFF00
1FFFFF80
1FFFFF80
1FFFFFC0
1F801FC0
1F800FE0
1F800FE0
1F8007E0
1F8007E0
1F8007E0
1F800FE0
1F801FC0
FFFFFFC0
FFFFFF80
FFFFFF80
FFFFFF80
FFFFFFC0
FFFFFFE0
1F801FE0
1F800FE0
1F8007F0
1F8003F0
1F8003F0
1F8003F0
1F8007F0
1F8007F0
1F801FE0
1FFFFFE0
1FFFFFC0
1FFFFFC0
1FFFFF80
1FFFFE00
1FFFF000
ENDCHAR
STARTCHAR 0063
ENCODING 99
SWIDTH 680 0
DWIDTH 34 0
BBX 31 37 2 -1
BITMAP
0000FC00
001FFF80
007FFFE0
01FFFFF8
03FFFFFC
07FFFFFE
0FFE07FE
1FF800FC
1FE00078
3FC00010
7F800000
7F000000
7E000000
FE000000
FE000000
FC000000
FC000000
FC000000
FC000000
FC000000
FC000000
FC000000
FE000000
FE000000
7E000000
7F000000
7F800000
3FC00010
1FE00078
1FF800FC
0FFE07FE
07FFFFFE
03FFFFFC
01FFFFF8
007FFFE0
001FFF80
0000F800
ENDCHAR
STARTCHAR 0064
ENCODING 100
SWIDTH 660 0
DWIDTH 33 0
BBX 29 35 3 0
BITMAP
FFFE0000
FFFFE000
FFFFF800
FFFFFC00
FFFFFF00
FFFFFF80
FC01FF80
FC007FC0
FC001FE0
FC000FE0
FC0007F0
FC0007F0
FC0003F0
FC0003F8
FC0003F8
FC0003F8
FC0001F8
FC0001F8
FC0001F8
FC0003F8
FC0003F8
FC0003F8
FC0003F0
FC0007F0
FC0007F0
FC000FE0
FC001FE0
FC007FC0
FC01FF80
FFFFFF80
FFFFFF00
FFFFFC00
FFFFF800
FFFFE000
FFFE0000
ENDCHAR
STARTCHAR 0065
ENCODING 101
SWIDTH 500 0
DWIDTH 25 0
BBX 24 35 1 0
BITMAP
1FFFC0
1FFFC0
1FFFC0
1FFFC0
1FFFC0
1FFFC0
1FC000
1FC000
1FC000
1FC000
1FC000
1FC000
1FC000
1FC000
FFFFF0
FFFFF0
FFFFF0
FFFFF0
FFFFF0
FFFFF0
1FC000
1FC000
1FC000
1FC000
1FC000
1FC000
1FC000
1FC000
1FC000
1FFFFF
1FFFFF
1FFFFF
1FFFFF
1FFFFF
1FFFFF
ENDCHAR
STARTCHAR 0066
ENCODING 102
SWIDTH 460 0
DWIDTH 23 0
BBX 23 35 1 0
BITMAP
0FFFFE
0FFFFE
0FFFFE
0FFFFE
0FFFFE
0FFFFE
0FC000
0FC000
0FC000
0FC000
0FC000
0FC000
0FC000
0FC000
0FC000
0FC000
FFFFF8
FFFFF8
FFFFF8
FFFFF8
FFFFF8
0FC000
0FC000
0FC000
0FC000
0FC000
0FC000
0FC000
0FC000
0FC000
0FC000
0FC000
0FC000
0FC000
0FC000
ENDCHAR
STARTCHAR 0067
ENCODING 103
SWIDTH 820 0
DWIDTH 41 0
BBX 39 37 2 -1
BITMAP
0000F80000
001FFF8000
007FFFE000
00FFFFF800
03FFFFFC00
07FFFFFE00
0FFE03FE00
1FF000FC00
1FE0003800
3FC0001000
3F80000000
7F00000000
7E00000000
FE00000000
FE00000000
FC00000000
FC007FFFFE
FC007FFFFE
FC007FFFFE
FC007FFFFE
FC007FFFFE
FC000003F0
FE000007F0
FE000007F0
7E000007F0
7F00000FE0
3F80001FE0
3FC0001FC0
1FE0003FC0
1FF800FF80
0FFE03FF00
07FFFFFE00
03FFFFFC00
00FFFFF800
007FFFE000
000FFF8000
0000F80000
ENDCHAR
STARTCHAR 0068
ENCODING 104
SWIDTH 560 0
DWIDTH 28 0
BBX 25 35 1 0
BITMAP
1FC01F80
1FC01F80
1FC01F80
1FC01F80
1FC01F80
1FC01F80
1FC01F80
1FC01F80
1FC01F80
1FC01F80
1FC01F80
1FC01F80
1FC01F80
1FC01F80
1FC01F80
FFFFFF80
FFFFFF80
FFFFFF80
FFFFFF80
FFFFFF80
FFFFFF80
1FC01F80
1FC01F80
1FC01F80
1FC01F80
1FC01F80
1FC01F80
1FC01F80
1FC01F80
1FC01F80
1FC01F80
1FC01F80
1FC01F80
1FC01F80
1FC01F80
ENDCHAR
STARTCHAR 0069
ENCODING 105
SWIDTH 220 0
DWIDTH 11 0
BBX 13 40 -1 0
BITMAP
0200
0200
0300
0700
0700
FFF8
7FF0
3FE0
1FC0
1FC0
1FC0
18E0
3060
0000
0000
0000
0000
0000
1FC0
1FC0
1FC0
1FC0
1FC0
1FC0
1FC0
1FC0
1FC0
1FC0
1FC0
1FC0
1FC0
1FC0
1FC0
1FC0
1FC0
1FC0
1FC0
1FC0
1FC0
1FC0
ENDCHAR
STARTCHAR 006A
ENCODING 106
SWIDTH 480 0
DWIDTH 24 0
BBX 20 36 1 -1
BITMAP
003FF0
003FF0
003FF0
003FF0
003FF0
003FF0
0003F0
0003F0
0003F0
0003F0
0003F0
0003F0
0003F0
0003F0
0003F0
0003F0
0003F0
0003F0
0003F0
0003F0
0003F0
0003F0
0003F0
0003F0
0003F0
0003F0
0003F0
1C07F0
7C07F0
FF1FE0
FFFFE0
7FFFC0
3FFF80
1FFF00
0FFE00
01F000
ENDCHAR
STARTCHAR 006B
ENCODING 107
SWIDTH 560 0
DWIDTH 28 0
BBX 25 35 1 0
BITMAP
1FC07E00
1FC07E00
1FC07E00
1FC07E00
1FC07E00
1FC07E00
1FC07E00
1FC07E00
1FC07E00
1FC0FE00
1FC0FE00
1FC0FC00
1FC1FC00
1FC3FC00
FFFFF800
FFFFF800
FFFFF800
FFFFFC00
FFFFFE00
FFFFFE00
1FC0FF00
1FC07F00
1FC03F00
1FC03F80
1FC03F80
1FC01F80
1FC01F80
1FC01F80
1FC01F80
1FC01F80
1FC01F80
1FC01F80
1FC01F80
1FC01F80
1FC01F80
ENDCHAR
STARTCHAR 006C
ENCODING 108
SWIDTH 440 0
DWIDTH 22 0
BBX 19 35 3 0
BITMAP
FC0000
FC0000
FC0000
FC0000
FC0000
FC0000
FC0000
FC0000
FC0000
FC0000
FC0000
FC0000
FC0000
FC0000
FC0000
FC0000
FC0000
FC0000
FC0000
FC0000
FC0000
FC0000
FC0000
FC0000
FC0000
FC0000
FC0000
FC0000
FC0000
FFFFE0
FFFFE0
FFFFE0
FFFFE0
FFFFE0
FFFFE0
ENDCHAR
STARTCHAR 006D
ENCODING 109
SWIDTH 880 0
DWIDTH 44 0
BBX 40 36 1 0
BITMAP
1000000000
380018003F
3E001E003F
7F001F003F
FF801F803F
7FE01FE03F
3FF01FF03F
1FF81FF83F
1FFC1FFC3F
1FFF1FFF3F
1FFF9FFFBF
1FFFDFFFFF
1FBFFFBFFF
1F8FFF9FFF
1F87FF87FF
1F83FF83FF
1F81FF81FF
1F807F80FF
1F803F803F
1F801F803F
1F801F803F
1F801F803F
1F801F803F
1F801F803F
1F801F803F
1F801F803F
1F801F803F
1F801F803F
1F801F803F
1F801F803F
1F801F803F
1F801F803F
1F801F803F
1F801F803F
1F801F803F
1F801F803F
ENDCHAR
STARTCHAR 006E
ENCODING 110
SWIDTH 540 0
DWIDTH 27 0
BBX 24 36 1 0
BITMAP
100000
38003F
3E003F
7F003F
FF803F
7FE03F
3FF03F
3FF83F
3FFC3F
3FFF3F
3FFFBF
3FFFFF
3FBFFF
3F9FFF
3F8FFF
3F83FF
3F81FF
3F80FF
3F807F
3F803F
3F803F
3F803F
3F803F
3F803F
3F803F
3F803F
3F803F
3F803F
3F803F
3F803F
3F803F
3F803F
3F803F
3F803F
3F803F
3F803F
ENDCHAR
STARTCHAR 006F
ENCODING 111
SWIDTH 820 0
DWIDTH 41 0
BBX 37 37 2 -1
BITMAP
0000F80000
001FFFC000
007FFFF000
00FFFFF800
03FFFFFE00
07FFFFFF00
0FFE03FF80
1FF8007FC0
1FE0003FC0
3FC0001FE0
3F80000FF0
7F000007F0
7E000003F0
FE000003F8
FE000003F8
FC000001F8
FC000001F8
FC000001F8
FC000001F8
FC000001F8
FC000001F8
FC000001F8
FE000003F8
FE000003F8
7E000003F0
7F000007F0
3F80000FF0
3FC0001FE0
1FE0003FC0
1FF8007FC0
0FFE03FF80
07FFFFFF00
03FFFFFE00
00FFFFFC00
007FFFF000
000FFFC000
0000F80000
ENDCHAR
STARTCHAR 0070
ENCODING 112
SWIDTH 560 0
DWIDTH 28 0
BBX 27 35 1 0
BITMAP
1FFFC000
1FFFF800
1FFFFE00
1FFFFF00
1FFFFF80
1FFFFFC0
1F803FC0
1F801FC0
1F800FE0
1F8007E0
1F8007E0
1F8007E0
1F800FE0
1F800FE0
1F801FC0
1F803FC0
FFFFFF80
FFFFFF80
FFFFFF00
FFFFFE00
FFFFF800
FFFFC000
1F800000
1F800000
1F800000
1F800000
1F800000
1F800000
1F800000
1F800000
1F800000
1F800000
1F800000
1F800000
1F800000
ENDCHAR
STARTCHAR 0071
ENCODING 113
SWIDTH 820 0
DWIDTH 41 0
BBX 37 37 2 -1
BITMAP
0000F80000
001FFFC000
007FFFF000
00FFFFF800
03FFFFFE00
07FFFFFF00
0FFE03FF80
1FF8007FC0
1FE0003FC0
3FC0001FE0
3F80000FF0
7F000007F0
7E000003F0
FE000003F8
FE000003F8
FC000001F8
FC000001F8
FC000001F8
FC000001F8
FC000001F8
FC000001F8
FC000001F8
FE000003F8
FE000003F8
7E000023F0
7F000077F0
3F8001FFF0
3FC003FFE0
1FE001FFC0
1FF801FFC0
0FFE03FF80
07FFFFFFC0
03FFFFFFE0
00FFFFFFE0
007FFFFFC0
000FFFC780
0000FC0300
ENDCHAR
STARTCHAR 0072
ENCODING 114
SWIDTH 600 0
DWIDTH 30 0
BBX 28 35 1 0
BITMAP
1FFFF000
1FFFFC00
1FFFFF00
1FFFFF80
1FFFFFC0
1FFFFFC0
1FC01FE0
1FC00FE0
1FC007F0
1FC007F0
1FC003F0
1FC003F0
1FC007F0
1FC007E0
1FC00FE0
1FC03FE0
FFFFFFC0
FFFFFF80
FFFFFF00
FFFFFE00
FFFFFF00
FFFFFF00
1FC07F80
1FC01F80
1FC01FC0
1FC01FC0
1FC00FC0
1FC00FC0
1FC00FC0
1FC00FC0
1FC00FC0
1FC00FC0
1FC00FC0
1FC00FC0
1FC00FC0
ENDCHAR
STARTCHAR 0073
ENCODING 115
SWIDTH 500 0
DWIDTH 25 0
BBX 23 37 1 -1
BITMAP
007C00
03FF80
07FFE0
0FFFF0
1FFFF8
1FFFF8
3FC3FC
3F81FC
3F00FC
3F00F0
3F0080
3F8000
3FC000
1FE000
0FF800
0FFC00
07FF00
03FF80
00FFE0
007FF0
001FF8
0007F8
0003FC
0001FC
0000FE
0000FE
0E007E
FE007E
7F00FE
7F01FE
3FC3FC
3FFFFC
1FFFF8
0FFFF0
07FFE0
01FFC0
003E00
ENDCHAR
STARTCHAR 0074
ENCODING 116
SWIDTH 500 0
DWIDTH 25 0
BBX 24 35 1 0
BITMAP
FFFFFF
FFFFFF
FFFFFF
FFFFFF
FFFFFF
FFFFFF
007E00
007E00
007E00
007E00
007E00
007E00
007E00
007E00
007E00
007E00
007E00
007E00
007E00
007E00
007E00
007E00
007E00
007E00
007E00
007E00
007E00
007E00
007E00
007E00
007E00
007E00
007E00
007E00
007E00
ENDCHAR
STARTCHAR 0075
ENCODING 117
SWIDTH 520 0
DWIDTH 26 0
BBX 22 36 2 -1
BITMAP
FE00FC
FE00FC
FE00FC
FE00FC
FE00FC
FE00FC
FE00FC
FE00FC
FE00FC
FE00FC
FE00FC
FE00FC
FE00FC
FE00FC
FE00FC
FE00FC
FE00FC
FE00FC
FE00FC
FE00FC
FE00FC
FE00FC
FE00FC
FE00FC
FE00FC
FE00FC
FE00FC
7E01FC
7F01F8
7F87F8
3FFFF8
1FFFF0
1FFFE0
0FFFC0
03FF00
007C00
ENDCHAR
STARTCHAR 0076
ENCODING 118
SWIDTH 480 0
DWIDTH 24 0
BBX 21 35 1 0
BITMAP
FC01F8
FC01F8
FC01F8
FC01F8
FC01F8
FC01F8
FC01F8
FC01F8
FC01F8
FC01F8
FC01F8
FC01F8
FC01F8
FC01F8
FC01F8
FC01F8
FC01F8
FC01F8
FC03F8
FC03F8
FC03F8
FC03F0
FE03F0
FE03F0
7E07F0
7E07E0
7F07E0
3F0FE0
3F8FC0
1F9FC0
1FFF80
0FFF80
07FF00
07FE00
03FC00
ENDCHAR
STARTCHAR 0077
ENCODING 119
SWIDTH 780 0
DWIDTH 39 0
BBX 36 35 1 0
BITMAP
FC01F803F0
FC01F803F0
FC01F803F0
FC01F803F0
FC01F803F0
FC01F803F0
FC01F803F0
FC01F803F0
FC01F803F0
FC01F803F0
FC01F803F0
FC01F803F0
FC01F803F0
FC01F803F0
FC01F803F0
FC01F803F0
FC01F803F0
FC01F803F0
FC03F807F0
FC03F807F0
FC03F807F0
FC03F807E0
FE03FC07E0
FE03FC07E0
7E07FC0FE0
7E07FE0FE0
7F07FE0FC0
3F0FFE1FC0
3F8FFF1F80
1F9FFF3F80
1FFFBFBF00
0FFF9FFF00
07FF0FFE00
07FE07FC00
03FC07F800
ENDCHAR
STARTCHAR 0078
ENCODING 120
SWIDTH 520 0
DWIDTH 26 0
BBX 22 35 2 0
BITMAP
FE00FC
FE00FC
FE00FC
FE00FC
FE00FC
FE00FC
FE00FC
7E00FC
7E00FC
7E00FC
7F01FC
7F83FC
3FFFF8
3FFFF8
1FFFF0
0FFFE0
1FFFF0
3FFFF8
3FC7F8
7F01FC
7F01FC
7E00FC
7E00FC
7E00FC
FE00FC
FE00FC
FE00FC
FE00FC
FE00FC
FE00FC
FE00FC
FE00FC
FE00FC
FE00FC
FE00FC
ENDCHAR
STARTCHAR 0079
ENCODING 121
SWIDTH 500 0
DWIDTH 25 0
BBX 22 35 2 0
BITMAP
FC00FC
FC00FC
FC00FC
FC00FC
FC00FC
FC00FC
FC00FC
FC00FC
FC00FC
FC00FC
FC00FC
FC00FC
FC00FC
FC00FC
FC00FC
FC00FC
FC00FC
FE01FC
FE01FC
7E03F8
7F87F8
7FFFF0
3FFFF0
1FFFE0
0FFFC0
07FF80
01FC00
00FC00
00FC00
00FC00
00FC00
00FC00
00FC00
00FC00
00FC00
ENDCHAR
STARTCHAR 007A
ENCODING 122
SWIDTH 520 0
DWIDTH 26 0
BBX 24 35 1 0
BITMAP
FFFFFF
FFFFFF
FFFFFF
FFFFFF
FFFFFE
FFFFFC
0001FC
0001F8
0003F8
0007F0
0007F0
000FE0
000FC0
001FC0
003F80
003F80
007F00
007E00
00FE00
01FC00
01FC00
03F800
03F000
07F000
0FE000
0FE000
1FC000
1FC000
3F8000
7FFFFE
7FFFFE
FFFFFE
FFFFFE
FFFFFE
FFFFFE
ENDCHAR
STARTCHAR 007B
ENCODING 123
SWIDTH 340 0
DWIDTH 17 0
BBX 12 48 3 -7
BITMAP
03F0
07F0
0FF0
0FF0
1F00
1F00
1F00
1F00
1F00
1F00
1F00
1F00
1F00
1F00
1F00
1F00
1F00
1F00
1F00
1E00
3E00
7E00
FC00
F800
F800
FC00
FE00
3E00
1E00
1F00
1F00
1F00
1F00
1F00
1F00
1F00
1F00
1F00
1F00
1F00
1F00
1F00
1F00
1F00
0FF0
0FF0
07F0
03F0
ENDCHAR
STARTCHAR 007C
ENCODING 124
SWIDTH 160 0
DWIDTH 8 0
BBX 3 41 3 -6
BITMAP
E0
E0
E0
E0
E0
E0
E0
E0
E0
E0
E0
E0
E0
E0
E0
E0
E0
E0
E0
E0
E0
E0
E0
E0
E0
E0
E0
E0
E0
E0
E0
E0
E0
E0
E0
E0
E0
E0
E0
E0
E0
ENDCHAR
STARTCHAR 007D
ENCODING 125
SWIDTH 340 0
DWIDTH 17 0
BBX 12 48 3 -7
BITMAP
F800
FE00
FE00
FF00
1F00
0F00
0F00
0F00
0F00
0F00
0F00
0F00
0F00
0F00
0F00
0F00
0F00
0F00
0F00
0F80
0F80
07E0
07F0
03F0
03F0
07F0
07E0
0F80
0F80
0F00
0F00
0F00
0F00
0F00
0F00
0F00
0F00
0F00
0F00
0F00
0F00
0F00
0F00
1F00
FF00
FE00
FE00
FC00
ENDCHAR
STARTCHAR 007E
ENCODING 126
SWIDTH 540 0
DWIDTH 27 0
BBX 22 7 3 13
BITMAP
080000
FFE000
FFFFFC
FFFFFC
FFFFFC
C1FFFC
000FF0
ENDCHAR
STARTCHAR 00A1
ENCODING 161
SWIDTH 260 0
DWIDTH 13 0
BBX 8 36 3 -6
BITMAP
7C
FE
FF
FF
FF
FE
7E
38
00
00
00
00
00
7C
7C
7C
7C
7C
7C
7C
7C
7C
7C
7C
7C
7C
7C
7C
7C
7C
7C
7C
7C
7C
7C
7C
ENDCHAR
STARTCHAR 00A2
ENCODING 162
SWIDTH 520 0
DWIDTH 26 0
BBX 20 31 3 2
BITMAP
007800
007800
007800
007800
01FF80
07FFC0
0FFFF0
1FFFF0
3FC7E0
7F00C0
7E0000
FC0000
F80000
F80000
F80000
F80000
F80000
F80000
F80000
FC0000
7E0000
7F00C0
3FC7E0
1FFFF0
0FFFF0
07FFC0
01FF80
007800
007800
007800
007800
ENDCHAR
STARTCHAR 00A3
ENCODING 163
SWIDTH 560 0
DWIDTH 28 0
BBX 22 36 3 0
BITMAP
0003C0
003FFC
00FFFC
03FFFC
07FFFC
0FFFFC
0FFE3C
1FF000
1FE000
1FC000
1F8000
1F8000
1F8000
1F8000
1F8000
1FC000
0FC000
FFFFE0
FFFFE0
FFFFE0
FFFFE0
07F000
03F000
03F000
03F000
03F000
03F000
07F000
07F000
1FE000
FFC000
FFFFFC
FFFFFC
FFFFFC
FFFFFC
FFFFFC
ENDCHAR
STARTCHAR 00A4
ENCODING 164
SWIDTH 600 0
DWIDTH 30 0
BBX 24 24 3 4
BITMAP
300004
78000E
FCFF9F
FFFFFE
7FFFFE
3FFFFC
1F00F8
3E007C
3C003C
3C003C
3C003E
78001E
78001E
3C003E
3C003C
3C003C
3E007C
1F00F8
1FF7FC
3FFFFE
7FFFFF
FCFFBF
78001E
30000C
ENDCHAR
STARTCHAR 00A5
ENCODING 165
SWIDTH 660 0
DWIDTH 33 0
BBX 27 35 3 0
BITMAP
FE000FE0
FF000FE0
7F001FC0
3F801FC0
3F803F80
1FC03F80
1FC07F00
0FE07F00
0FE0FE00
07F0FE00
07F0FC00
03F9FC00
03F9F800
01FFF800
01FFF000
00FFF000
00FFE000
007FE000
1FFFFF00
1FFFFF00
1FFFFF00
1FFFFF00
001F8000
001F8000
1FFFFF00
1FFFFF00
1FFFFF00
1FFFFF00
1FFFFF00
001F8000
001F8000
001F8000
001F8000
001F8000
001F8000
ENDCHAR
STARTCHAR 00A6
ENCODING 166
SWIDTH 160 0
DWIDTH 8 0
BBX 3 41 3 -6
BITMAP
E0
E0
E0
E0
E0
E0
E0
E0
E0
E0
E0
E0
E0
E0
E0
00
00
00
00
00
00
00
00
00
00
E0
E0
E0
E0
E0
E0
E0
E0
E0
E0
E0
E0
E0
E0
E0
E0
ENDCHAR
STARTCHAR 00A7
ENCODING 167
SWIDTH 480 0
DWIDTH 24 0
BBX 19 42 3 -6
BITMAP
00E000
07FC00
1FFF00
3FFF80
3FFF80
7FFFC0
7F0FC0
7E0FE0
7E0780
7E0000
3F0000
3FC000
1FE000
0FF800
07FC00
0FFF00
3FFF80
7FFFC0
7E1FC0
FC07C0
F807E0
F807E0
FC07C0
7E0FC0
7FFFC0
3FFF80
1FFE00
0FF800
03FC00
00FE00
007F00
003F80
001F80
1C0FC0
FC0FC0
FE1FC0
7FFF80
7FFF80
3FFF80
1FFF00
0FFC00
01F000
ENDCHAR
STARTCHAR 00A8
ENCODING 168
SWIDTH 380 0
DWIDTH 19 0
BBX 20 8 0 37
BITMAP
3E03E0
7F07E0
FF0FF0
FF0FF0
FF0FF0
7F0FF0
7E07E0
180180
ENDCHAR
STARTCHAR 00A9
ENCODING 169
SWIDTH 840 0
DWIDTH 42 0
BBX 37 37 3 -1
BITMAP
0001FC0000
001FFFC000
007FFFF000
01FE03F800
03F0007E00
07C0001F00
0F00000F80
1E00000780
1C000003C0
3C01FC01E0
7807FF00E0
780FFF80F0
701FFF8070
F03F070070
E03C020078
E07C000078
E078000038
E078000038
E078000038
E078000038
E078000038
E07C000078
E03C020078
F03F070070
701FFF8070
780FFF80F0
7807FF00E0
3C01FC01E0
1E000003C0
1E00000780
0F80000F80
07C0001F00
03F0007E00
01FE03F800
007FFFF000
001FFFC000
0001FC0000
ENDCHAR
STARTCHAR 00AB
ENCODING 171
SWIDTH 600 0
DWIDTH 30 0
BBX 24 22 3 4
BITMAP
00F83F
01F87E
03F07C
07E0FC
07C1F8
0FC3F0
1F83E0
3F07E0
3E0FC0
7C1F80
FC1F00
FC1F80
7E0FC0
3F0FC0
1F87E0
0F83F0
0FC1F8
07E0F8
03F0FC
01F07E
01F83F
00FC1F
ENDCHAR
STARTCHAR 00AC
ENCODING 172
SWIDTH 560 0
DWIDTH 28 0
BBX 23 14 3 5
BITMAP
FFFFFE
FFFFFE
FFFFFE
FFFFFE
FFFFFE
00003E
00003E
00003E
00003E
00003E
00003E
00003E
00003E
00003E
ENDCHAR
STARTCHAR 00AE
ENCODING 174
SWIDTH 500 0
DWIDTH 25 0
BBX 20 20 3 16
BITMAP
03FC00
0FFE00
1E0780
3801C0
7000C0
61F8E0
E1FC60
C18C70
C19C30
C7F830
C7F830
C19870
C19C70
E19C60
6000E0
3001C0
3C0380
1F9F00
07FE00
00F000
ENDCHAR
STARTCHAR 00AF
ENCODING 175
SWIDTH 280 0
DWIDTH 14 0
BBX 14 5 0 39
BITMAP
FFFC
FFFC
FFFC
FFFC
FFFC
ENDCHAR
STARTCHAR 00B0
ENCODING 176
SWIDTH 340 0
DWIDTH 17 0
BBX 12 12 3 24
BITMAP
0600
3F80
7FC0
F0E0
E060
C070
C070
E070
E0E0
7FE0
3FC0
1F00
ENDCHAR
STARTCHAR 00B1
ENCODING 177
SWIDTH 560 0
DWIDTH 28 0
BBX 23 22 3 5
BITMAP
007C00
007C00
007C00
007C00
007C00
007C00
FFFFFE
FFFFFE
FFFFFE
FFFFFE
007C00
007C00
007C00
007C00
007C00
007C00
000000
000000
FFFFFE
FFFFFE
FFFFFE
FFFFFE
ENDCHAR
STARTCHAR 00B4
ENCODING 180
SWIDTH 160 0
DWIDTH 8 0
BBX 8 7 0 38
BITMAP
1F
1E
3E
3C
78
78
F0
ENDCHAR
STARTCHAR 00B6
ENCODING 182
SWIDTH 500 0
DWIDTH 25 0
BBX 20 41 3 -6
BITMAP
03F8F0
0FF8F0
1FF8F0
3FF8F0
7FF8F0
7FF8F0
FFF8F0
FFF8F0
FFF8F0
FFF8F0
FFF8F0
FFF8F0
FFF8F0
FFF8F0
7FF8F0
3FF8F0
3FF8F0
0FF8F0
07F8F0
00F8F0
0038F0
0038F0
0038F0
0038F0
0038F0
0038F0
0038F0
0038F0
0038F0
0038F0
0038F0
0038F0
0038F0
0038F0
0038F0
0038F0
0038F0
0038F0
0038F0
0038F0
0038F0
ENDCHAR
STARTCHAR 00B7
ENCODING 183
SWIDTH 260 0
DWIDTH 13 0
BBX 8 8 3 9
BITMAP
7C
FE
FF
FF
FF
FE
7E
18
ENDCHAR
STARTCHAR 00B8
ENCODING 184
SWIDTH 220 0
DWIDTH 11 0
BBX 11 11 0 -11
BITMAP
0380
0700
0780
07C0
00E0
20E0
60E0
F9E0
FFE0
3FC0
1F80
ENDCHAR
STARTCHAR 00BB
ENCODING 187
SWIDTH 600 0
DWIDTH 30 0
BBX 24 22 3 4
BITMAP
FC1F80
7E0FC0
3F0FC0
1F87E0
1F83F0
0FC1F0
07E1F8
03E0FC
03F07E
01F83E
00FC3F
00F83F
01F87E
03F07C
07E0FC
07C1F8
0F83F0
1F83E0
3F07C0
3E0FC0
7C1F80
FC1F00
ENDCHAR
STARTCHAR 00BF
ENCODING 191
SWIDTH 440 0
DWIDTH 22 0
BBX 16 37 3 -6
BITMAP
00C0
03F0
03F8
07F8
07F8
07F8
03F8
01F0
0000
0000
0000
0000
0000
03F0
03F0
03F0
03F0
03E0
07E0
07E0
0FC0
1FC0
1F80
3F00
7E00
7E00
FC00
FC00
F808
FC1F
FC1F
FFFF
FFFF
7FFE
3FFC
1FF8
03C0
ENDCHAR
STARTCHAR 00C0
ENCODING 192
SWIDTH 560 0
DWIDTH 28 0
BBX 26 45 2 0
BITMAP
03E00000
01E00000
01F00000
00F00000
00780000
00780000
003C0000
00000000
00000000
007C0000
03FF8000
07FFC000
0FFFE000
1FFFF000
3FFFF800
3F87F800
7F01FC00
7F01FC00
7E00FC00
7E00FC00
7E00FC00
FE00FC00
FE00FC00
FE00FC00
FE00FC00
FE00FC00
FE00FC00
FE00FC00
FE00FC00
FE00FC00
FE00FC00
FE00FC00
FE00FC00
FE00FC00
FE00FC00
FE00FC00
FE00FC00
FE00FC00
FE00FC00
FFFFFFC0
FFFFFFC0
FFFFFFC0
FFFFFFC0
FFFFFFC0
FFFFFFC0
ENDCHAR
STARTCHAR 00C1
ENCODING 193
SWIDTH 560 0
DWIDTH 28 0
BBX 26 45 2 0
BITMAP
000F8000
000F0000
001F0000
001E0000
003C0000
003C0000
00780000
00000000
00000000
007C0000
03FF8000
07FFC000
0FFFE000
1FFFF000
3FFFF800
3F87F800
7F01FC00
7F01FC00
7E00FC00
7E00FC00
7E00FC00
FE00FC00
FE00FC00
FE00FC00
FE00FC00
FE00FC00
FE00FC00
FE00FC00
FE00FC00
FE00FC00
FE00FC00
FE00FC00
FE00FC00
FE00FC00
FE00FC00
FE00FC00
FE00FC00
FE00FC00
FE00FC00
FFFFFFC0
FFFFFFC0
FFFFFFC0
FFFFFFC0
FFFFFFC0
FFFFFFC0
ENDCHAR
STARTCHAR 00C2
ENCODING 194
SWIDTH 560 0
DWIDTH 28 0
BBX 26 45 2 0
BITMAP
00FE0000
01FF0000
01FF0000
03EF8000
07C7C000
07C7C000
0F83E000
00000000
00000000
007C0000
03FF8000
07FFC000
0FFFE000
1FFFF000
3FFFF800
3F87F800
7F01FC00
7F01FC00
7E00FC00
7E00FC00
7E00FC00
FE00FC00
FE00FC00
FE00FC00
FE00FC00
FE00FC00
FE00FC00
FE00FC00
FE00FC00
FE00FC00
FE00FC00
FE00FC00
FE00FC00
FE00FC00
FE00FC00
FE00FC00
FE00FC00
FE00FC00
FE00FC00
FFFFFFC0
FFFFFFC0
FFFFFFC0
FFFFFFC0
FFFFFFC0
FFFFFFC0
ENDCHAR
STARTCHAR 00C3
ENCODING 195
SWIDTH 560 0
DWIDTH 28 0
BBX 26 45 2 0
BITMAP
01800000
07FB8000
07FF8000
07FF8000
043F8000
00000000
00000000
00000000
00000000
007C0000
03FF8000
07FFC000
0FFFE000
1FFFF000
3FFFF800
3F87F800
7F01FC00
7F01FC00
7E00FC00
7E00FC00
7E00FC00
FE00FC00
FE00FC00
FE00FC00
FE00FC00
FE00FC00
FE00FC00
FE00FC00
FE00FC00
FE00FC00
FE00FC00
FE00FC00
FE00FC00
FE00FC00
FE00FC00
FE00FC00
FE00FC00
FE00FC00
FE00FC00
FFFFFFC0
FFFFFFC0
FFFFFFC0
FFFFFFC0
FFFFFFC0
FFFFFFC0
ENDCHAR
STARTCHAR 00C4
ENCODING 196
SWIDTH 560 0
DWIDTH 28 0
BBX 26 45 2 0
BITMAP
1F01F000
3F83F800
3FC3FC00
3FC3FC00
3FC3FC00
3FC3F800
1F81F800
06006000
00000000
007C0000
03FF8000
07FFC000
0FFFE000
1FFFF000
3FFFF800
3F87F800
7F01FC00
7F01FC00
7E00FC00
7E00FC00
7E00FC00
FE00FC00
FE00FC00
FE00FC00
FE00FC00
FE00FC00
FE00FC00
FE00FC00
FE00FC00
FE00FC00
FE00FC00
FE00FC00
FE00FC00
FE00FC00
FE00FC00
FE00FC00
FE00FC00
FE00FC00
FE00FC00
FFFFFFC0
FFFFFFC0
FFFFFFC0
FFFFFFC0
FFFFFFC0
FFFFFFC0
ENDCHAR
STARTCHAR 00C5
ENCODING 197
SWIDTH 560 0
DWIDTH 28 0
BBX 26 48 2 0
BITMAP
007C0000
00FE0000
01FF0000
03C70000
03838000
03838000
03C70000
01FF0000
00FE0000
007C0000
00000000
00000000
007C0000
03FF8000
07FFC000
0FFFE000
1FFFF000
3FFFF800
3F87F800
7F01FC00
7F01FC00
7E00FC00
7E00FC00
7E00FC00
FE00FC00
FE00FC00
FE00FC00
FE00FC00
FE00FC00
FE00FC00
FE00FC00
FE00FC00
FE00FC00
FE00FC00
FE00FC00
FE00FC00
FE00FC00
FE00FC00
FE00FC00
FE00FC00
FE00FC00
FE00FC00
FFFFFFC0
FFFFFFC0
FFFFFFC0
FFFFFFC0
FFFFFFC0
FFFFFFC0
ENDCHAR
STARTCHAR 00C7
ENCODING 199
SWIDTH 680 0
DWIDTH 34 0
BBX 31 47 2 -11
BITMAP
0000FC00
001FFF80
007FFFE0
01FFFFF8
03FFFFFC
07FFFFFE
0FFE07FE
1FF800FC
1FE00078
3FC00010
7F800000
7F000000
7E000000
FE000000
FE000000
FC000000
FC000000
FC000000
FC000000
FC000000
FC000000
FC000000
FE000000
FE000000
7E000000
7F000000
7F800000
3FC00010
1FE00078
1FF800FC
0FFE07FE
07FFFFFE
03FFFFFC
00FFFFF8
007FFFE0
001FFF80
0001F800
0001C000
0001E000
0001F800
00003800
00003800
00083800
001E7800
001FF800
000FF000
0003E000
ENDCHAR
STARTCHAR 00C8
ENCODING 200
SWIDTH 500 0
DWIDTH 25 0
BBX 24 45 1 0
BITMAP
07C000
03E000
01E000
01F000
00F000
007800
003800
000000
000000
000000
1FFFC0
1FFFC0
1FFFC0
1FFFC0
1FFFC0
1FFFC0
1FC000
1FC000
1FC000
1FC000
1FC000
1FC000
1FC000
1FC000
FFFFF0
FFFFF0
FFFFF0
FFFFF0
FFFFF0
FFFFF0
1FC000
1FC000
1FC000
1FC000
1FC000
1FC000
1FC000
1FC000
1FC000
1FFFFF
1FFFFF
1FFFFF
1FFFFF
1FFFFF
1FFFFF
ENDCHAR
STARTCHAR 00C9
ENCODING 201
SWIDTH 500 0
DWIDTH 25 0
BBX 24 45 1 0
BITMAP
000F80
001F00
001E00
003C00
003C00
007800
007000
000000
000000
000000
1FFFC0
1FFFC0
1FFFC0
1FFFC0
1FFFC0
1FFFC0
1FC000
1FC000
1FC000
1FC000
1FC000
1FC000
1FC000
1FC000
FFFFF0
FFFFF0
FFFFF0
FFFFF0
FFFFF0
FFFFF0
1FC000
1FC000
1FC000
1FC000
1FC000
1FC000
1FC000
1FC000
1FC000
1FFFFF
1FFFFF
1FFFFF
1FFFFF
1FFFFF
1FFFFF
ENDCHAR
STARTCHAR 00CA
ENCODING 202
SWIDTH 500 0
DWIDTH 25 0
BBX 24 45 1 0
BITMAP
00FC00
01FE00
03FF00
07DF00
07CF80
0F87C0
1F07E0
000000
000000
000000
1FFFC0
1FFFC0
1FFFC0
1FFFC0
1FFFC0
1FFFC0
1FC000
1FC000
1FC000
1FC000
1FC000
1FC000
1FC000
1FC000
FFFFF0
FFFFF0
FFFFF0
FFFFF0
FFFFF0
FFFFF0
1FC000
1FC000
1FC000
1FC000
1FC000
1FC000
1FC000
1FC000
1FC000
1FFFFF
1FFFFF
1FFFFF
1FFFFF
1FFFFF
1FFFFF
ENDCHAR
STARTCHAR 00CB
ENCODING 203
SWIDTH 500 0
DWIDTH 25 0
BBX 24 45 1 0
BITMAP
1F01E0
3F83F0
7F87F8
7F87F8
7F87F8
3F87F8
3F03F0
0C00C0
000000
000000
1FFFC0
1FFFC0
1FFFC0
1FFFC0
1FFFC0
1FFFC0
1FC000
1FC000
1FC000
1FC000
1FC000
1FC000
1FC000
1FC000
FFFFF0
FFFFF0
FFFFF0
FFFFF0
FFFFF0
FFFFF0
1FC000
1FC000
1FC000
1FC000
1FC000
1FC000
1FC000
1FC000
1FC000
1FFFFF
1FFFFF
1FFFFF
1FFFFF
1FFFFF
1FFFFF
ENDCHAR
STARTCHAR 00CC
ENCODING 204
SWIDTH 220 0
DWIDTH 11 0
BBX 8 31 1 0
BITMAP
F0
F8
78
3C
3C
1E
0E
00
00
3F
3F
3F
3F
3F
3F
3F
3F
3F
3F
3F
3F
3F
3F
3F
3F
3F
3F
3F
3F
3F
3F
ENDCHAR
STARTCHAR 00CD
ENCODING 205
SWIDTH 220 0
DWIDTH 11 0
BBX 8 31 3 0
BITMAP
0F
1F
1E
3C
38
78
70
00
00
FC
FC
FC
FC
FC
FC
FC
FC
FC
FC
FC
FC
FC
FC
FC
FC
FC
FC
FC
FC
FC
FC
ENDCHAR
STARTCHAR 00CE
ENCODING 206
SWIDTH 220 0
DWIDTH 11 0
BBX 16 31 -2 0
BITMAP
0FF0
0FF0
1FF8
3E7C
7C7C
7C3E
F81F
0000
0000
07E0
07E0
07E0
07E0
07E0
07E0
07E0
07E0
07E0
07E0
07E0
07E0
07E0
07E0
07E0
07E0
07E0
07E0
07E0
07E0
07E0
07E0
ENDCHAR
STARTCHAR 00CF
ENCODING 207
SWIDTH 220 0
DWIDTH 11 0
BBX 20 32 -4 0
BITMAP
1C03C0
7E07E0
7F0FF0
FF0FF0
FF0FF0
FF0FF0
7F07E0
3E03C0
000000
000000
01F800
01F800
01F800
01F800
01F800
01F800
01F800
01F800
01F800
01F800
01F800
01F800
01F800
01F800
01F800
01F800
01F800
01F800
01F800
01F800
01F800
01F800
ENDCHAR
STARTCHAR 00D1
ENCODING 209
SWIDTH 540 0
DWIDTH 27 0
BBX 24 45 1 0
BITMAP
00C000
03FCC0
03FFC0
03FFC0
031FC0
000000
000000
000000
000000
100000
38003F
3E003F
7F003F
FF803F
7FE03F
3FF03F
3FF83F
3FFC3F
3FFF3F
3FFFBF
3FFFFF
3FBFFF
3F9FFF
3F8FFF
3F83FF
3F81FF
3F80FF
3F807F
3F803F
3F803F
3F803F
3F803F
3F803F
3F803F
3F803F
3F803F
3F803F
3F803F
3F803F
3F803F
3F803F
3F803F
3F803F
3F803F
3F803F
ENDCHAR
STARTCHAR 00D2
ENCODING 210
SWIDTH 820 0
DWIDTH 41 0
BBX 37 46 2 -1
BITMAP
0007C00000
0003C00000
0003E00000
0001E00000
0000F00000
0000700000
0000780000
0000000000
0000000000
0000F80000
001FFFC000
007FFFF000
00FFFFF800
03FFFFFE00
07FFFFFF00
0FFE03FF80
1FF8007FC0
1FE0003FC0
3FC0001FE0
3F80000FF0
7F000007F0
7E000003F0
FE000003F8
FE000003F8
FC000001F8
FC000001F8
FC000001F8
FC000001F8
FC000001F8
FC000001F8
FC000001F8
FE000003F8
FE000003F8
7E000003F0
7F000007F0
3F80000FF0
3FC0001FE0
1FE0003FC0
1FF8007FC0
0FFE03FF80
07FFFFFF00
03FFFFFE00
00FFFFFC00
007FFFF000
000FFFC000
0000F80000
ENDCHAR
STARTCHAR 00D3
ENCODING 211
SWIDTH 820 0
DWIDTH 41 0
BBX 37 46 2 -1
BITMAP
00001F0000
00001F0000
00003E0000
00003C0000
0000780000
0000780000
0000F00000
0000000000
0000000000
0000F80000
001FFFC000
007FFFF000
00FFFFF800
03FFFFFE00
07FFFFFF00
0FFE03FF80
1FF8007FC0
1FE0003FC0
3FC0001FE0
3F80000FF0
7F000007F0
7E000003F0
FE000003F8
FE000003F8
FC000001F8
FC000001F8
FC000001F8
FC000001F8
FC000001F8
FC000001F8
FC000001F8
FE000003F8
FE000003F8
7E000003F0
7F000007F0
3F80000FF0
3FC0001FE0
1FE0003FC0
1FF8007FC0
0FFE03FF80
07FFFFFF00
03FFFFFE00
00FFFFFC00
007FFFF000
000FFFC000
0000F80000
ENDCHAR
STARTCHAR 00D4
ENCODING 212
SWIDTH 820 0
DWIDTH 41 0
BBX 37 46 2 -1
BITMAP
0001FC0000
0001FE0000
0003FE0000
0007DF0000
000F8F8000
000F8FC000
001F07C000
0000000000
0000000000
0000F80000
001FFFC000
007FFFF000
00FFFFF800
03FFFFFE00
07FFFFFF00
0FFE03FF80
1FF8007FC0
1FE0003FC0
3FC0001FE0
3F80000FF0
7F000007F0
7E000003F0
FE000003F8
FE000003F8
FC000001F8
FC000001F8
FC000001F8
FC000001F8
FC000001F8
FC000001F8
FC000001F8
FE000003F8
FE000003F8
7E000003F0
7F000007F0
3F80000FF0
3FC0001FE0
1FE0003FC0
1FF8007FC0
0FFE03FF80
07FFFFFF00
03FFFFFE00
00FFFFFC00
007FFFF000
000FFFC000
0000F80000
ENDCHAR
STARTCHAR 00D5
ENCODING 213
SWIDTH 820 0
DWIDTH 41 0
BBX 37 46 2 -1
BITMAP
0003000000
000FF70000
000FFF0000
000FFF0000
00087F0000
0000000000
0000000000
0000000000
0000000000
0000F80000
001FFFC000
007FFFF000
00FFFFF800
03FFFFFE00
07FFFFFF00
0FFE03FF80
1FF8007FC0
1FE0003FC0
3FC0001FE0
3F80000FF0
7F000007F0
7E000003F0
FE000003F8
FE000003F8
FC000001F8
FC000001F8
FC000001F8
FC000001F8
FC000001F8
FC000001F8
FC000001F8
FE000003F8
FE000003F8
7E000003F0
7F000007F0
3F80000FF0
3FC0001FE0
1FE0003FC0
1FF8007FC0
0FFE03FF80
07FFFFFF00
03FFFFFE00
00FFFFFC00
007FFFF000
000FFFC000
0000F80000
ENDCHAR
STARTCHAR 00D6
ENCODING 214
SWIDTH 820 0
DWIDTH 41 0
BBX 37 46 2 -1
BITMAP
001E03E000
003F07F000
007F87F800
007F87F800
007F87F800
007F87F000
003F03F000
000C00C000
0000000000
0000F80000
001FFFC000
007FFFF000
00FFFFF800
03FFFFFE00
07FFFFFF00
0FFE03FF80
1FF8007FC0
1FE0003FC0
3FC0001FE0
3F80000FF0
7F000007F0
7E000003F0
FE000003F8
FE000003F8
FC000001F8
FC000001F8
FC000001F8
FC000001F8
FC000001F8
FC000001F8
FC000001F8
FE000003F8
FE000003F8
7E000003F0
7F000007F0
3F80000FF0
3FC0001FE0
1FE0003FC0
1FF8007FC0
0FFE03FF80
07FFFFFF00
03FFFFFE00
00FFFFFC00
007FFFF000
000FFFC000
0000F80000
ENDCHAR
STARTCHAR 00D7
ENCODING 215
SWIDTH 520 0
DWIDTH 26 0
BBX 21 21 3 6
BITMAP
300060
7800F0
FC01F8
FE03F8
7F07F0
3F8FE0
1FDFC0
0FFF80
07FF00
03FE00
01FC00
03FE00
07FF00
0FFF80
1FDFC0
3F8FE0
7F07F0
FE03F8
7C01F0
3800E0
100040
ENDCHAR
STARTCHAR 00D8
ENCODING 216
SWIDTH 800 0
DWIDTH 40 0
BBX 38 39 1 -2
BITMAP
0000000040
0000FC00E0
000FFFC1F0
003FFFF3F0
00FFFFFFE0
01FFFFFFC0
03FFFFFF80
07FF01FF80
0FF8007FC0
1FE0007FE0
1FC000FFF0
3F8001FFF0
3F8003F3F8
7F0007E3F8
7E000FC1F8
7E000F81F8
FE001F01FC
FE003E01FC
FC007E00FC
FE00FC00FC
FE01F800FC
FE03F001FC
FE07E001FC
7E07C001F8
7F0F8001F8
7F1F8003F8
3FBF0003F0
3FFE0007F0
1FFC000FF0
1FF8001FE0
0FF8007FC0
07FF03FF80
07FFFFFF00
0FFFFFFE00
1FFFFFFC00
3F3FFFF000
3E0FFFC000
1C00F80000
0800000000
ENDCHAR
STARTCHAR 00D9
ENCODING 217
SWIDTH 520 0
DWIDTH 26 0
BBX 22 46 2 -1
BITMAP
03C000
03E000
01E000
00F000
00F000
007800
003800
000000
000000
000000
FE00FC
FE00FC
FE00FC
FE00FC
FE00FC
FE00FC
FE00FC
FE00FC
FE00FC
FE00FC
FE00FC
FE00FC
FE00FC
FE00FC
FE00FC
FE00FC
FE00FC
FE00FC
FE00FC
FE00FC
FE00FC
FE00FC
FE00FC
FE00FC
FE00FC
FE00FC
FE00FC
7E01FC
7F01F8
7F87F8
3FFFF8
1FFFF0
1FFFE0
0FFFC0
03FF00
007C00
ENDCHAR
STARTCHAR 00DA
ENCODING 218
SWIDTH 520 0
DWIDTH 26 0
BBX 22 46 2 -1
BITMAP
000F80
000F00
001F00
001E00
003C00
003800
007800
000000
000000
000000
FE00FC
FE00FC
FE00FC
FE00FC
FE00FC
FE00FC
FE00FC
FE00FC
FE00FC
FE00FC
FE00FC
FE00FC
FE00FC
FE00FC
FE00FC
FE00FC
FE00FC
FE00FC
FE00FC
FE00FC
FE00FC
FE00FC
FE00FC
FE00FC
FE00FC
FE00FC
FE00FC
7E01FC
7F01F8
7F87F8
3FFFF8
1FFFF0
1FFFE0
0FFFC0
03FF00
007C00
ENDCHAR
STARTCHAR 00DB
ENCODING 219
SWIDTH 520 0
DWIDTH 26 0
BBX 22 46 2 -1
BITMAP
00FE00
01FE00
03FF00
03EF80
07CF80
0F87C0
0F83E0
000000
000000
000000
FE00FC
FE00FC
FE00FC
FE00FC
FE00FC
FE00FC
FE00FC
FE00FC
FE00FC
FE00FC
FE00FC
FE00FC
FE00FC
FE00FC
FE00FC
FE00FC
FE00FC
FE00FC
FE00FC
FE00FC
FE00FC
FE00FC
FE00FC
FE00FC
FE00FC
FE00FC
FE00FC
7E01FC
7F01F8
7F87F8
3FFFF8
1FFFF0
1FFFE0
0FFFC0
03FF00
007C00
ENDCHAR
STARTCHAR 00DC
ENCODING 220
SWIDTH 520 0
DWIDTH 26 0
BBX 22 46 2 -1
BITMAP
1F01F0
3F83F8
3FC3F8
3FC7F8
3FC7F8
3F83F8
1F83F0
0600C0
000000
000000
FE00FC
FE00FC
FE00FC
FE00FC
FE00FC
FE00FC
FE00FC
FE00FC
FE00FC
FE00FC
FE00FC
FE00FC
FE00FC
FE00FC
FE00FC
FE00FC
FE00FC
FE00FC
FE00FC
FE00FC
FE00FC
FE00FC
FE00FC
FE00FC
FE00FC
FE00FC
FE00FC
7E01FC
7F01F8
7F87F8
3FFFF8
1FFFF0
1FFFE0
0FFFC0
03FF00
007C00
ENDCHAR
STARTCHAR 00DD
ENCODING 221
SWIDTH 500 0
DWIDTH 25 0
BBX 22 45 2 0
BITMAP
000F80
001F00
001E00
003E00
003C00
007800
007000
000000
000000
000000
FC00FC
FC00FC
FC00FC
FC00FC
FC00FC
FC00FC
FC00FC
FC00FC
FC00FC
FC00FC
FC00FC
FC00FC
FC00FC
FC00FC
FC00FC
FC00FC
FC00FC
FE01FC
FE01FC
7E03F8
7F87F8
7FFFF0
3FFFF0
1FFFE0
0FFFC0
07FF80
01FC00
00FC00
00FC00
00FC00
00FC00
00FC00
00FC00
00FC00
00FC00
ENDCHAR
STARTCHAR 00E0
ENCODING 224
SWIDTH 560 0
DWIDTH 28 0
BBX 26 45 2 0
BITMAP
03E00000
01E00000
01F00000
00F00000
00780000
00780000
003C0000
00000000
00000000
007C0000
03FF8000
07FFC000
0FFFE000
1FFFF000
3FFFF800
3F87F800
7F01FC00
7F01FC00
7E00FC00
7E00FC00
7E00FC00
FE00FC00
FE00FC00
FE00FC00
FE00FC00
FE00FC00
FE00FC00
FE00FC00
FE00FC00
FE00FC00
FE00FC00
FE00FC00
FE00FC00
FE00FC00
FE00FC00
FE00FC00
FE00FC00
FE00FC00
FE00FC00
FFFFFFC0
FFFFFFC0
FFFFFFC0
FFFFFFC0
FFFFFFC0
FFFFFFC0
ENDCHAR
STARTCHAR 00E1
ENCODING 225
SWIDTH 560 0
DWIDTH 28 0
BBX 26 45 2 0
BITMAP
000F8000
000F0000
001F0000
001E0000
003C0000
003C0000
00780000
00000000
00000000
007C0000
03FF8000
07FFC000
0FFFE000
1FFFF000
3FFFF800
3F87F800
7F01FC00
7F01FC00
7E00FC00
7E00FC00
7E00FC00
FE00FC00
FE00FC00
FE00FC00
FE00FC00
FE00FC00
FE00FC00
FE00FC00
FE00FC00
FE00FC00
FE00FC00
FE00FC00
FE00FC00
FE00FC00
FE00FC00
FE00FC00
FE00FC00
FE00FC00
FE00FC00
FFFFFFC0
FFFFFFC0
FFFFFFC0
FFFFFFC0
FFFFFFC0
FFFFFFC0
ENDCHAR
STARTCHAR 00E2
ENCODING 226
SWIDTH 560 0
DWIDTH 28 0
BBX 26 45 2 0
BITMAP
00FE0000
01FF0000
01FF0000
03EF8000
07C7C000
07C7C000
0F83E000
00000000
00000000
007C0000
03FF8000
07FFC000
0FFFE000
1FFFF000
3FFFF800
3F87F800
7F01FC00
7F01FC00
7E00FC00
7E00FC00
7E00FC00
FE00FC00
FE00FC00
FE00FC00
FE00FC00
FE00FC00
FE00FC00
FE00FC00
FE00FC00
FE00FC00
FE00FC00
FE00FC00
FE00FC00
FE00FC00
FE00FC00
FE00FC00
FE00FC00
FE00FC00
FE00FC00
FFFFFFC0
FFFFFFC0
FFFFFFC0
FFFFFFC0
FFFFFFC0
FFFFFFC0
ENDCHAR
STARTCHAR 00E3
ENCODING 227
SWIDTH 560 0
DWIDTH 28 0
BBX 26 45 2 0
BITMAP
01800000
07FB8000
07FF8000
07FF8000
043F8000
00000000
00000000
00000000
00000000
007C0000
03FF8000
07FFC000
0FFFE000
1FFFF000
3FFFF800
3F87F800
7F01FC00
7F01FC00
7E00FC00
7E00FC00
7E00FC00
FE00FC00
FE00FC00
FE00FC00
FE00FC00
FE00FC00
FE00FC00
FE00FC00
FE00FC00
FE00FC00
FE00FC00
FE00FC00
FE00FC00
FE00FC00
FE00FC00
FE00FC00
FE00FC00
FE00FC00
FE00FC00
FFFFFFC0
FFFFFFC0
FFFFFFC0
FFFFFFC0
FFFFFFC0
FFFFFFC0
ENDCHAR
STARTCHAR 00E4
ENCODING 228
SWIDTH 560 0
DWIDTH 28 0
BBX 26 45 2 0
BITMAP
1F01F000
3F83F800
3FC3FC00
3FC3FC00
3FC3FC00
3FC3F800
1F81F800
06006000
00000000
007C0000
03FF8000
07FFC000
0FFFE000
1FFFF000
3FFFF800
3F87F800
7F01FC00
7F01FC00
7E00FC00
7E00FC00
7E00FC00
FE00FC00
FE00FC00
FE00FC00
FE00FC00
FE00FC00
FE00FC00
FE00FC00
FE00FC00
FE00FC00
FE00FC00
FE00FC00
FE00FC00
FE00FC00
FE00FC00
FE00FC00
FE00FC00
FE00FC00
FE00FC00
FFFFFFC0
FFFFFFC0
FFFFFFC0
FFFFFFC0
FFFFFFC0
FFFFFFC0
ENDCHAR
STARTCHAR 00E5
ENCODING 229
SWIDTH 560 0
DWIDTH 28 0
BBX 26 48 2 0
BITMAP
007C0000
00FE0000
01FF0000
03C70000
03838000
03838000
03C70000
01FF0000
00FE0000
007C0000
00000000
00000000
007C0000
03FF8000
07FFC000
0FFFE000
1FFFF000
3FFFF800
3F87F800
7F01FC00
7F01FC00
7E00FC00
7E00FC00
7E00FC00
FE00FC00
FE00FC00
FE00FC00
FE00FC00
FE00FC00
FE00FC00
FE00FC00
FE00FC00
FE00FC00
FE00FC00
FE00FC00
FE00FC00
FE00FC00
FE00FC00
FE00FC00
FE00FC00
FE00FC00
FE00FC00
FFFFFFC0
FFFFFFC0
FFFFFFC0
FFFFFFC0
FFFFFFC0
FFFFFFC0
ENDCHAR
STARTCHAR 00E7
ENCODING 231
SWIDTH 680 0
DWIDTH 34 0
BBX 31 47 2 -11
BITMAP
0000FC00
001FFF80
007FFFE0
01FFFFF8
03FFFFFC
07FFFFFE
0FFE07FE
1FF800FC
1FE00078
3FC00010
7F800000
7F000000
7E000000
FE000000
FE000000
FC000000
FC000000
FC000000
FC000000
FC000000
FC000000
FC000000
FE000000
FE000000
7E000000
7F000000
7F800000
3FC00010
1FE00078
1FF800FC
0FFE07FE
07FFFFFE
03FFFFFC
00FFFFF8
007FFFE0
001FFF80
0001F800
0001C000
0001E000
0001F800
00003800
00003800
00083800
001E7800
001FF800
000FF000
0003E000
ENDCHAR
STARTCHAR 00E8
ENCODING 232
SWIDTH 500 0
DWIDTH 25 0
BBX 24 45 1 0
BITMAP
07C000
03E000
01E000
01F000
00F000
007800
003800
000000
000000
000000
1FFFC0
1FFFC0
1FFFC0
1FFFC0
1FFFC0
1FFFC0
1FC000
1FC000
1FC000
1FC000
1FC000
1FC000
1FC000
1FC000
FFFFF0
FFFFF0
FFFFF0
FFFFF0
FFFFF0
FFFFF0
1FC000
1FC000
1FC000
1FC000
1FC000
1FC000
1FC000
1FC000
1FC000
1FFFFF
1FFFFF
1FFFFF
1FFFFF
1FFFFF
1FFFFF
ENDCHAR
STARTCHAR 00E9
ENCODING 233
SWIDTH 500 0
DWIDTH 25 0
BBX 24 45 1 0
BITMAP
000F80
001F00
001E00
003C00
003C00
007800
007000
000000
000000
000000
1FFFC0
1FFFC0
1FFFC0
1FFFC0
1FFFC0
1FFFC0
1FC000
1FC000
1FC000
1FC000
1FC000
1FC000
1FC000
1FC000
FFFFF0
FFFFF0
FFFFF0
FFFFF0
FFFFF0
FFFFF0
1FC000
1FC000
1FC000
1FC000
1FC000
1FC000
1FC000
1FC000
1FC000
1FFFFF
1FFFFF
1FFFFF
1FFFFF
1FFFFF
1FFFFF
ENDCHAR
STARTCHAR 00EA
ENCODING 234
SWIDTH 500 0
DWIDTH 25 0
BBX 24 45 1 0
BITMAP
00FC00
01FE00
03FF00
07DF00
07CF80
0F87C0
1F07E0
000000
000000
000000
1FFFC0
1FFFC0
1FFFC0
1FFFC0
1FFFC0
1FFFC0
1FC000
1FC000
1FC000
1FC000
1FC000
1FC000
1FC000
1FC000
FFFFF0
FFFFF0
FFFFF0
FFFFF0
FFFFF0
FFFFF0
1FC000
1FC000
1FC000
1FC000
1FC000
1FC000
1FC000
1FC000
1FC000
1FFFFF
1FFFFF
1FFFFF
1FFFFF
1FFFFF
1FFFFF
ENDCHAR
STARTCHAR 00EB
ENCODING 235
SWIDTH 500 0
DWIDTH 25 0
BBX 24 45 1 0
BITMAP
1F01E0
3F83F0
7F87F8
7F87F8
7F87F8
3F87F8
3F03F0
0C00C0
000000
000000
1FFFC0
1FFFC0
1FFFC0
1FFFC0
1FFFC0
1FFFC0
1FC000
1FC000
1FC000
1FC000
1FC000
1FC000
1FC000
1FC000
FFFFF0
FFFFF0
FFFFF0
FFFFF0
FFFFF0
FFFFF0
1FC000
1FC000
1FC000
1FC000
1FC000
1FC000
1FC000
1FC000
1FC000
1FFFFF
1FFFFF
1FFFFF
1FFFFF
1FFFFF
1FFFFF
ENDCHAR
STARTCHAR 00EC
ENCODING 236
SWIDTH 220 0
DWIDTH 11 0
BBX 8 31 1 0
BITMAP
F0
F8
78
3C
3C
1E
0E
00
00
3F
3F
3F
3F
3F
3F
3F
3F
3F
3F
3F
3F
3F
3F
3F
3F
3F
3F
3F
3F
3F
3F
ENDCHAR
STARTCHAR 00ED
ENCODING 237
SWIDTH 220 0
DWIDTH 11 0
BBX 8 31 3 0
BITMAP
0F
1F
1E
3C
38
78
70
00
00
FC
FC
FC
FC
FC
FC
FC
FC
FC
FC
FC
FC
FC
FC
FC
FC
FC
FC
FC
FC
FC
FC
ENDCHAR
STARTCHAR 00EE
ENCODING 238
SWIDTH 220 0
DWIDTH 11 0
BBX 16 31 -2 0
BITMAP
0FF0
0FF0
1FF8
3E7C
7C7C
7C3E
F81F
0000
0000
07E0
07E0
07E0
07E0
07E0
07E0
07E0
07E0
07E0
07E0
07E0
07E0
07E0
07E0
07E0
07E0
07E0
07E0
07E0
07E0
07E0
07E0
ENDCHAR
STARTCHAR 00EF
ENCODING 239
SWIDTH 220 0
DWIDTH 11 0
BBX 20 32 -4 0
BITMAP
1C03C0
7E07E0
7F0FF0
FF0FF0
FF0FF0
FF0FF0
7F07E0
3E03C0
000000
000000
01F800
01F800
01F800
01F800
01F800
01F800
01F800
01F800
01F800
01F800
01F800
01F800
01F800
01F800
01F800
01F800
01F800
01F800
01F800
01F800
01F800
01F800
ENDCHAR
STARTCHAR 00F1
ENCODING 241
SWIDTH 540 0
DWIDTH 27 0
BBX 24 45 1 0
BITMAP
00C000
03FCC0
03FFC0
03FFC0
031FC0
000000
000000
000000
000000
100000
38003F
3E003F
7F003F
FF803F
7FE03F
3FF03F
3FF83F
3FFC3F
3FFF3F
3FFFBF
3FFFFF
3FBFFF
3F9FFF
3F8FFF
3F83FF
3F81FF
3F80FF
3F807F
3F803F
3F803F
3F803F
3F803F
3F803F
3F803F
3F803F
3F803F
3F803F
3F803F
3F803F
3F803F
3F803F
3F803F
3F803F
3F803F
3F803F
ENDCHAR
STARTCHAR 00F2
ENCODING 242
SWIDTH 820 0
DWIDTH 41 0
BBX 37 46 2 -1
BITMAP
0007C00000
0003C00000
0003E00000
0001E00000
0000F00000
0000700000
0000780000
0000000000
0000000000
0000F80000
001FFFC000
007FFFF000
00FFFFF800
03FFFFFE00
07FFFFFF00
0FFE03FF80
1FF8007FC0
1FE0003FC0
3FC0001FE0
3F80000FF0
7F000007F0
7E000003F0
FE000003F8
FE000003F8
FC000001F8
FC000001F8
FC000001F8
FC000001F8
FC000001F8
FC000001F8
FC000001F8
FE000003F8
FE000003F8
7E000003F0
7F000007F0
3F80000FF0
3FC0001FE0
1FE0003FC0
1FF8007FC0
0FFE03FF80
07FFFFFF00
03FFFFFE00
00FFFFFC00
007FFFF000
000FFFC000
0000F80000
ENDCHAR
STARTCHAR 00F3
ENCODING 243
SWIDTH 820 0
DWIDTH 41 0
BBX 37 46 2 -1
BITMAP
00001F0000
00001F0000
00003E0000
00003C0000
0000780000
0000780000
0000F00000
0000000000
0000000000
0000F80000
001FFFC000
007FFFF000
00FFFFF800
03FFFFFE00
07FFFFFF00
0FFE03FF80
1FF8007FC0
1FE0003FC0
3FC0001FE0
3F80000FF0
7F000007F0
7E000003F0
FE000003F8
FE000003F8
FC000001F8
FC000001F8
FC000001F8
FC000001F8
FC000001F8
FC000001F8
FC000001F8
FE000003F8
FE000003F8
7E000003F0
7F000007F0
3F80000FF0
3FC0001FE0
1FE0003FC0
1FF8007FC0
0FFE03FF80
07FFFFFF00
03FFFFFE00
00FFFFFC00
007FFFF000
000FFFC000
0000F80000
ENDCHAR
STARTCHAR 00F4
ENCODING 244
SWIDTH 820 0
DWIDTH 41 0
BBX 37 46 2 -1
BITMAP
0001FC0000
0001FE0000
0003FE0000
0007DF0000
000F8F8000
000F8FC000
001F07C000
0000000000
0000000000
0000F80000
001FFFC000
007FFFF000
00FFFFF800
03FFFFFE00
07FFFFFF00
0FFE03FF80
1FF8007FC0
1FE0003FC0
3FC0001FE0
3F80000FF0
7F000007F0
7E000003F0
FE000003F8
FE000003F8
FC000001F8
FC000001F8
FC000001F8
FC000001F8
FC000001F8
FC000001F8
FC000001F8
FE000003F8
FE000003F8
7E000003F0
7F000007F0
3F80000FF0
3FC0001FE0
1FE0003FC0
1FF8007FC0
0FFE03FF80
07FFFFFF00
03FFFFFE00
00FFFFFC00
007FFFF000
000FFFC000
0000F80000
ENDCHAR
STARTCHAR 00F5
ENCODING 245
SWIDTH 820 0
DWIDTH 41 0
BBX 37 46 2 -1
BITMAP
0003000000
000FF70000
000FFF0000
000FFF0000
00087F0000
0000000000
0000000000
0000000000
0000000000
0000F80000
001FFFC000
007FFFF000
00FFFFF800
03FFFFFE00
07FFFFFF00
0FFE03FF80
1FF8007FC0
1FE0003FC0
3FC0001FE0
3F80000FF0
7F000007F0
7E000003F0
FE000003F8
FE000003F8
FC000001F8
FC000001F8
FC000001F8
FC000001F8
FC000001F8
FC000001F8
FC000001F8
FE000003F8
FE000003F8
7E000003F0
7F000007F0
3F80000FF0
3FC0001FE0
1FE0003FC0
1FF8007FC0
0FFE03FF80
07FFFFFF00
03FFFFFE00
00FFFFFC00
007FFFF000
000FFFC000
0000F80000
ENDCHAR
STARTCHAR 00F6
ENCODING 246
SWIDTH 820 0
DWIDTH 41 0
BBX 37 46 2 -1
BITMAP
001E03E000
003F07F000
007F87F800
007F87F800
007F87F800
007F87F000
003F03F000
000C00C000
0000000000
0000F80000
001FFFC000
007FFFF000
00FFFFF800
03FFFFFE00
07FFFFFF00
0FFE03FF80
1FF8007FC0
1FE0003FC0
3FC0001FE0
3F80000FF0
7F000007F0
7E000003F0
FE000003F8
FE000003F8
FC000001F8
FC000001F8
FC000001F8
FC000001F8
FC000001F8
FC000001F8
FC000001F8
FE000003F8
FE000003F8
7E000003F0
7F000007F0
3F80000FF0
3FC0001FE0
1FE0003FC0
1FF8007FC0
0FFE03FF80
07FFFFFF00
03FFFFFE00
00FFFFFC00
007FFFF000
000FFFC000
0000F80000
ENDCHAR
STARTCHAR 00F7
ENCODING 247
SWIDTH 560 0
DWIDTH 28 0
BBX 23 24 3 4
BITMAP
003800
00FC00
00FE00
00FE00
00FE00
007C00
003800
000000
000000
000000
FFFFFE
FFFFFE
FFFFFE
FFFFFE
000000
000000
000000
007800
00FC00
00FE00
00FE00
00FE00
007C00
003800
ENDCHAR
STARTCHAR 00F8
ENCODING 248
SWIDTH 800 0
DWIDTH 40 0
BBX 38 39 1 -2
BITMAP
0000000040
0000FC00E0
000FFFC1F0
003FFFF3F0
00FFFFFFE0
01FFFFFFC0
03FFFFFF80
07FF01FF80
0FF8007FC0
1FE0007FE0
1FC000FFF0
3F8001FFF0
3F8003F3F8
7F0007E3F8
7E000FC1F8
7E000F81F8
FE001F01FC
FE003E01FC
FC007E00FC
FE00FC00FC
FE01F800FC
FE03F001FC
FE07E001FC
7E07C001F8
7F0F8001F8
7F1F8003F8
3FBF0003F0
3FFE0007F0
1FFC000FF0
1FF8001FE0
0FF8007FC0
07FF03FF80
07FFFFFF00
0FFFFFFE00
1FFFFFFC00
3F3FFFF000
3E0FFFC000
1C00F80000
0800000000
ENDCHAR
STARTCHAR 00F9
ENCODING 249
SWIDTH 520 0
DWIDTH 26 0
BBX 22 46 2 -1
BITMAP
03C000
03E000
01E000
00F000
00F000
007800
003800
000000
000000
000000
FE00FC
FE00FC
FE00FC
FE00FC
FE00FC
FE00FC
FE00FC
FE00FC
FE00FC
FE00FC
FE00FC
FE00FC
FE00FC
FE00FC
FE00FC
FE00FC
FE00FC
FE00FC
FE00FC
FE00FC
FE00FC
FE00FC
FE00FC
FE00FC
FE00FC
FE00FC
FE00FC
7E01FC
7F01F8
7F87F8
3FFFF8
1FFFF0
1FFFE0
0FFFC0
03FF00
007C00
ENDCHAR
STARTCHAR 00FA
ENCODING 250
SWIDTH 520 0
DWIDTH 26 0
BBX 22 46 2 -1
BITMAP
000F80
000F00
001F00
001E00
003C00
003800
007800
000000
000000
000000
FE00FC
FE00FC
FE00FC
FE00FC
FE00FC
FE00FC
FE00FC
FE00FC
FE00FC
FE00FC
FE00FC
FE00FC
FE00FC
FE00FC
FE00FC
FE00FC
FE00FC
FE00FC
FE00FC
FE00FC
FE00FC
FE00FC
FE00FC
FE00FC
FE00FC
FE00FC
FE00FC
7E01FC
7F01F8
7F87F8
3FFFF8
1FFFF0
1FFFE0
0FFFC0
03FF00
007C00
ENDCHAR
STARTCHAR 00FB
ENCODING 251
SWIDTH 520 0
DWIDTH 26 0
BBX 22 46 2 -1
BITMAP
00FE00
01FE00
03FF00
03EF80
07CF80
0F87C0
0F83E0
000000
000000
000000
FE00FC
FE00FC
FE00FC
FE00FC
FE00FC
FE00FC
FE00FC
FE00FC
FE00FC
FE00FC
FE00FC
FE00FC
FE00FC
FE00FC
FE00FC
FE00FC
FE00FC
FE00FC
FE00FC
FE00FC
FE00FC
FE00FC
FE00FC
FE00FC
FE00FC
FE00FC
FE00FC
7E01FC
7F01F8
7F87F8
3FFFF8
1FFFF0
1FFFE0
0FFFC0
03FF00
007C00
ENDCHAR
STARTCHAR 00FC
ENCODING 252
SWIDTH 520 0
DWIDTH 26 0
BBX 22 46 2 -1
BITMAP
1F01F0
3F83F8
3FC3F8
3FC7F8
3FC7F8
3F83F8
1F83F0
0600C0
000000
000000
FE00FC
FE00FC
FE00FC
FE00FC
FE00FC
FE00FC
FE00FC
FE00FC
FE00FC
FE00FC
FE00FC
FE00FC
FE00FC
FE00FC
FE00FC
FE00FC
FE00FC
FE00FC
FE00FC
FE00FC
FE00FC
FE00FC
FE00FC
FE00FC
FE00FC
FE00FC
FE00FC
7E01FC
7F01F8
7F87F8
3FFFF8
1FFFF0
1FFFE0
0FFFC0
03FF00
007C00
ENDCHAR
STARTCHAR 00FD
ENCODING 253
SWIDTH 500 0
DWIDTH 25 0
BBX 22 45 2 0
BITMAP
000F80
001F00
001E00
003E00
003C00
007800
007000
000000
000000
000000
FC00FC
FC00FC
FC00FC
FC00FC
FC00FC
FC00FC
FC00FC
FC00FC
FC00FC
FC00FC
FC00FC
FC00FC
FC00FC
FC00FC
FC00FC
FC00FC
FC00FC
FE01FC
FE01FC
7E03F8
7F87F8
7FFFF0
3FFFF0
1FFFE0
0FFFC0
07FF80
01FC00
00FC00
00FC00
00FC00
00FC00
00FC00
00FC00
00FC00
00FC00
ENDCHAR
STARTCHAR 00FF
ENCODING 255
SWIDTH 500 0
DWIDTH 25 0
BBX 22 45 2 0
BITMAP
1F01F0
3F83F8
3F87F8
7F87F8
7F87F8
3F83F8
3F03F0
0C00E0
000000
000000
FC00FC
FC00FC
FC00FC
FC00FC
FC00FC
FC00FC
FC00FC
FC00FC
FC00FC
FC00FC
FC00FC
FC00FC
FC00FC
FC00FC
FC00FC
FC00FC
FC00FC
FE01FC
FE01FC
7E03F8
7F87F8
7FFFF0
3FFFF0
1FFFE0
0FFFC0
07FF80
01FC00
00FC00
00FC00
00FC00
00FC00
00FC00
00FC00
00FC00
00FC00
ENDCHAR
STARTCHAR 0100
ENCODING 256
SWIDTH 560 0
DWIDTH 28 0
BBX 26 44 2 0
BITMAP
0FFFE000
0FFFE000
0FFFE000
0FFFE000
0FFFE000
00000000
00000000
00000000
007C0000
03FF8000
07FFC000
0FFFE000
1FFFF000
3FFFF800
3F87F800
7F01FC00
7F01FC00
7E00FC00
7E00FC00
7E00FC00
FE00FC00
FE00FC00
FE00FC00
FE00FC00
FE00FC00
FE00FC00
FE00FC00
FE00FC00
FE00FC00
FE00FC00
FE00FC00
FE00FC00
FE00FC00
FE00FC00
FE00FC00
FE00FC00
FE00FC00
FE00FC00
FFFFFFC0
FFFFFFC0
FFFFFFC0
FFFFFFC0
FFFFFFC0
FFFFFFC0
ENDCHAR
STARTCHAR 0101
ENCODING 257
SWIDTH 560 0
DWIDTH 28 0
BBX 26 44 2 0
BITMAP
0FFFE000
0FFFE000
0FFFE000
0FFFE000
0FFFE000
00000000
00000000
00000000
007C0000
03FF8000
07FFC000
0FFFE000
1FFFF000
3FFFF800
3F87F800
7F01FC00
7F01FC00
7E00FC00
7E00FC00
7E00FC00
FE00FC00
FE00FC00
FE00FC00
FE00FC00
FE00FC00
FE00FC00
FE00FC00
FE00FC00
FE00FC00
FE00FC00
FE00FC00
FE00FC00
FE00FC00
FE00FC00
FE00FC00
FE00FC00
FE00FC00
FE00FC00
FFFFFFC0
FFFFFFC0
FFFFFFC0
FFFFFFC0
FFFFFFC0
FFFFFFC0
ENDCHAR
STARTCHAR 0102
ENCODING 258
SWIDTH 560 0
DWIDTH 28 0
BBX 26 45 2 0
BITMAP
0F01E000
0F01C000
0783C000
07EFC000
03FF8000
01FF0000
007C0000
00000000
00000000
007C0000
03FF8000
07FFC000
0FFFE000
1FFFF000
3FFFF800
3F87F800
7F01FC00
7F01FC00
7E00FC00
7E00FC00
7E00FC00
FE00FC00
FE00FC00
FE00FC00
FE00FC00
FE00FC00
FE00FC00
FE00FC00
FE00FC00
FE00FC00
FE00FC00
FE00FC00
FE00FC00
FE00FC00
FE00FC00
FE00FC00
FE00FC00
FE00FC00
FE00FC00
FFFFFFC0
FFFFFFC0
FFFFFFC0
FFFFFFC0
FFFFFFC0
FFFFFFC0
ENDCHAR
STARTCHAR 0103
ENCODING 259
SWIDTH 560 0
DWIDTH 28 0
BBX 26 45 2 0
BITMAP
0F01E000
0F01C000
0783C000
07EFC000
03FF8000
01FF0000
007C0000
00000000
00000000
007C0000
03FF8000
07FFC000
0FFFE000
1FFFF000
3FFFF800
3F87F800
7F01FC00
7F01FC00
7E00FC00
7E00FC00
7E00FC00
FE00FC00
FE00FC00
FE00FC00
FE00FC00
FE00FC00
FE00FC00
FE00FC00
FE00FC00
FE00FC00
FE00FC00
FE00FC00
FE00FC00
FE00FC00
FE00FC00
FE00FC00
FE00FC00
FE00FC00
FE00FC00
FFFFFFC0
FFFFFFC0
FFFFFFC0
FFFFFFC0
FFFFFFC0
FFFFFFC0
ENDCHAR
STARTCHAR 0104
ENCODING 260
SWIDTH 560 0
DWIDTH 28 0
BBX 28 46 2 -10
BITMAP
007C0000
03FF8000
07FFC000
0FFFE000
1FFFF000
3FFFF800
3F87F800
7F01FC00
7F01FC00
7E00FC00
7E00FC00
7E00FC00
FE00FC00
FE00FC00
FE00FC00
FE00FC00
FE00FC00
FE00FC00
FE00FC00
FE00FC00
FE00FC00
FE00FC00
FE00FC00
FE00FC00
FE00FC00
FE00FC00
FE00FC00
FE00FC00
FE00FC00
FE00FC00
FFFFFFC0
FFFFFFC0
FFFFFFC0
FFFFFFC0
FFFFFFC0
FFFFFFC0
00001F00
00003C00
00003800
00007800
00007000
00007840
00007DE0
00003FF0
00001FE0
00000780
ENDCHAR
STARTCHAR 0105
ENCODING 261
SWIDTH 560 0
DWIDTH 28 0
BBX 28 46 2 -10
BITMAP
007C0000
03FF8000
07FFC000
0FFFE000
1FFFF000
3FFFF800
3F87F800
7F01FC00
7F01FC00
7E00FC00
7E00FC00
7E00FC00
FE00FC00
FE00FC00
FE00FC00
FE00FC00
FE00FC00
FE00FC00
FE00FC00
FE00FC00
FE00FC00
FE00FC00
FE00FC00
FE00FC00
FE00FC00
FE00FC00
FE00FC00
FE00FC00
FE00FC00
FE00FC00
FFFFFFC0
FFFFFFC0
FFFFFFC0
FFFFFFC0
FFFFFFC0
FFFFFFC0
00001F00
00003C00
00003800
00007800
00007000
00007840
00007DE0
00003FF0
00001FE0
00000780
ENDCHAR
STARTCHAR 0106
ENCODING 262
SWIDTH 680 0
DWIDTH 34 0
BBX 31 46 2 -1
BITMAP
00001F00
00001E00
00003C00
00003C00
00007800
00007000
0000F000
00000000
00000000
0000FC00
001FFF80
007FFFE0
01FFFFF8
03FFFFFC
07FFFFFE
0FFE07FE
1FF800FC
1FE00078
3FC00010
7F800000
7F000000
7E000000
FE000000
FE000000
FC000000
FC000000
FC000000
FC000000
FC000000
FC000000
FC000000
FE000000
FE000000
7E000000
7F000000
7F800000
3FC00010
1FE00078
1FF800FC
0FFE07FE
07FFFFFE
03FFFFFC
01FFFFF8
007FFFE0
001FFF80
0000F800
ENDCHAR
STARTCHAR 0107
ENCODING 263
SWIDTH 680 0
DWIDTH 34 0
BBX 31 46 2 -1
BITMAP
00001F00
00001E00
00003C00
00003C00
00007800
00007000
0000F000
00000000
00000000
0000FC00
001FFF80
007FFFE0
01FFFFF8
03FFFFFC
07FFFFFE
0FFE07FE
1FF800FC
1FE00078
3FC00010
7F800000
7F000000
7E000000
FE000000
FE000000
FC000000
FC000000
FC000000
FC000000
FC000000
FC000000
FC000000
FE000000
FE000000
7E000000
7F000000
7F800000
3FC00010
1FE00078
1FF800FC
0FFE07FE
07FFFFFE
03FFFFFC
01FFFFF8
007FFFE0
001FFF80
0000F800
ENDCHAR
STARTCHAR 010A
ENCODING 266
SWIDTH 680 0
DWIDTH 34 0
BBX 31 47 2 -1
BITMAP
0000F800
0001FC00
0001FC00
0003FC00
0003FC00
0001FC00
0000F800
00007000
00000000
00000000
0000FC00
001FFF80
007FFFE0
01FFFFF8
03FFFFFC
07FFFFFE
0FFE07FE
1FF800FC
1FE00078
3FC00010
7F800000
7F000000
7E000000
FE000000
FE000000
FC000000
FC000000
FC000000
FC000000
FC000000
FC000000
FC000000
FE000000
FE000000
7E000000
7F000000
7F800000
3FC00010
1FE00078
1FF800FC
0FFE07FE
07FFFFFE
03FFFFFC
01FFFFF8
007FFFE0
001FFF80
0000F800
ENDCHAR
STARTCHAR 010B
ENCODING 267
SWIDTH 680 0
DWIDTH 34 0
BBX 31 47 2 -1
BITMAP
0000F800
0001FC00
0001FC00
0003FC00
0003FC00
0001FC00
0000F800
00007000
00000000
00000000
0000FC00
001FFF80
007FFFE0
01FFFFF8
03FFFFFC
07FFFFFE
0FFE07FE
1FF800FC
1FE00078
3FC00010
7F800000
7F000000
7E000000
FE000000
FE000000
FC000000
FC000000
FC000000
FC000000
FC000000
FC000000
FC000000
FE000000
FE000000
7E000000
7F000000
7F800000
3FC00010
1FE00078
1FF800FC
0FFE07FE
07FFFFFE
03FFFFFC
01FFFFF8
007FFFE0
001FFF80
0000F800
ENDCHAR
STARTCHAR 010C
ENCODING 268
SWIDTH 680 0
DWIDTH 34 0
BBX 31 46 2 -1
BITMAP
001F07C0
001F0F80
000F9F00
0007FF00
0003FE00
0003FC00
00000000
00000000
00000000
0000FC00
001FFF80
007FFFE0
01FFFFF8
03FFFFFC
07FFFFFE
0FFE07FE
1FF800FC
1FE00078
3FC00010
7F800000
7F000000
7E000000
FE000000
FE000000
FC000000
FC000000
FC000000
FC000000
FC000000
FC000000
FC000000
FE000000
FE000000
7E000000
7F000000
7F800000
3FC00010
1FE00078
1FF800FC
0FFE07FE
07FFFFFE
03FFFFFC
01FFFFF8
007FFFE0
001FFF80
0000F800
ENDCHAR
STARTCHAR 010D
ENCODING 269
SWIDTH 680 0
DWIDTH 34 0
BBX 31 46 2 -1
BITMAP
001F07C0
001F0F80
000F9F00
0007FF00
0003FE00
0003FC00
00000000
00000000
00000000
0000FC00
001FFF80
007FFFE0
01FFFFF8
03FFFFFC
07FFFFFE
0FFE07FE
1FF800FC
1FE00078
3FC00010
7F800000
7F000000
7E000000
FE000000
FE000000
FC000000
FC000000
FC000000
FC000000
FC000000
FC000000
FC000000
FE000000
FE000000
7E000000
7F000000
7F800000
3FC00010
1FE00078
1FF800FC
0FFE07FE
07FFFFFE
03FFFFFC
01FFFFF8
007FFFE0
001FFF80
0000F800
ENDCHAR
STARTCHAR 010E
ENCODING 270
SWIDTH 660 0
DWIDTH 33 0
BBX 29 45 3 0
BITMAP
0F83E000
0F87C000
07CF8000
03FF0000
01FF0000
01FE0000
00000000
00000000
00000000
00000000
FFFE0000
FFFFE000
FFFFF800
FFFFFC00
FFFFFF00
FFFFFF80
FC01FF80
FC007FC0
FC001FE0
FC000FE0
FC0007F0
FC0007F0
FC0003F0
FC0003F8
FC0003F8
FC0003F8
FC0001F8
FC0001F8
FC0001F8
FC0003F8
FC0003F8
FC0003F8
FC0003F0
FC0007F0
FC0007F0
FC000FE0
FC001FE0
FC007FC0
FC01FF80
FFFFFF80
FFFFFF00
FFFFFC00
FFFFF800
FFFFE000
FFFE0000
ENDCHAR
STARTCHAR 010F
ENCODING 271
SWIDTH 660 0
DWIDTH 33 0
BBX 29 45 3 0
BITMAP
0F83E000
0F87C000
07CF8000
03FF0000
01FF0000
01FE0000
00000000
00000000
00000000
00000000
FFFE0000
FFFFE000
FFFFF800
FFFFFC00
FFFFFF00
FFFFFF80
FC01FF80
FC007FC0
FC001FE0
FC000FE0
FC0007F0
FC0007F0
FC0003F0
FC0003F8
FC0003F8
FC0003F8
FC0001F8
FC0001F8
FC0001F8
FC0003F8
FC0003F8
FC0003F8
FC0003F0
FC0007F0
FC0007F0
FC000FE0
FC001FE0
FC007FC0
FC01FF80
FFFFFF80
FFFFFF00
FFFFFC00
FFFFF800
FFFFE000
FFFE0000
ENDCHAR
STARTCHAR 0110
ENCODING 272
SWIDTH 700 0
DWIDTH 35 0
BBX 32 35 1 0
BITMAP
1FFFE000
1FFFFC00
1FFFFF00
1FFFFFC0
1FFFFFE0
1FFFFFF0
1FC03FF8
1FC007FC
1FC003FC
1FC001FE
1FC000FE
1FC0007F
1FC0007F
1FC0003F
FFFFC03F
FFFFC03F
FFFFC03F
FFFFC03F
FFFFC03F
FFFFC03F
1FC0003F
1FC0003F
1FC0007F
1FC0007F
1FC000FE
1FC001FE
1FC003FC
1FC007FC
1FC03FF8
1FFFFFF0
1FFFFFE0
1FFFFFC0
1FFFFF00
1FFFFC00
1FFFE000
ENDCHAR
STARTCHAR 0111
ENCODING 273
SWIDTH 700 0
DWIDTH 35 0
BBX 32 35 1 0
BITMAP
1FFFE000
1FFFFC00
1FFFFF00
1FFFFFC0
1FFFFFE0
1FFFFFF0
1FC03FF8
1FC007FC
1FC003FC
1FC001FE
1FC000FE
1FC0007F
1FC0007F
1FC0003F
FFFFC03F
FFFFC03F
FFFFC03F
FFFFC03F
FFFFC03F
FFFFC03F
1FC0003F
1FC0003F
1FC0007F
1FC0007F
1FC000FE
1FC001FE
1FC003FC
1FC007FC
1FC03FF8
1FFFFFF0
1FFFFFE0
1FFFFFC0
1FFFFF00
1FFFFC00
1FFFE000
ENDCHAR
STARTCHAR 0112
ENCODING 274
SWIDTH 500 0
DWIDTH 25 0
BBX 24 44 1 0
BITMAP
0FFFC0
0FFFC0
0FFFC0
0FFFC0
0FFFC0
000000
000000
000000
000000
1FFFC0
1FFFC0
1FFFC0
1FFFC0
1FFFC0
1FFFC0
1FC000
1FC000
1FC000
1FC000
1FC000
1FC000
1FC000
1FC000
FFFFF0
FFFFF0
FFFFF0
FFFFF0
FFFFF0
FFFFF0
1FC000
1FC000
1FC000
1FC000
1FC000
1FC000
1FC000
1FC000
1FC000
1FFFFF
1FFFFF
1FFFFF
1FFFFF
1FFFFF
1FFFFF
ENDCHAR
STARTCHAR 0113
ENCODING 275
SWIDTH 500 0
DWIDTH 25 0
BBX 24 44 1 0
BITMAP
0FFFC0
0FFFC0
0FFFC0
0FFFC0
0FFFC0
000000
000000
000000
000000
1FFFC0
1FFFC0
1FFFC0
1FFFC0
1FFFC0
1FFFC0
1FC000
1FC000
1FC000
1FC000
1FC000
1FC000
1FC000
1FC000
FFFFF0
FFFFF0
FFFFF0
FFFFF0
FFFFF0
FFFFF0
1FC000
1FC000
1FC000
1FC000
1FC000
1FC000
1FC000
1FC000
1FC000
1FFFFF
1FFFFF
1FFFFF
1FFFFF
1FFFFF
1FFFFF
ENDCHAR
STARTCHAR 0116
ENCODING 278
SWIDTH 500 0
DWIDTH 25 0
BBX 24 46 1 0
BITMAP
007C00
00FE00
01FE00
01FE00
01FE00
01FE00
00FC00
003000
000000
000000
000000
1FFFC0
1FFFC0
1FFFC0
1FFFC0
1FFFC0
1FFFC0
1FC000
1FC000
1FC000
1FC000
1FC000
1FC000
1FC000
1FC000
FFFFF0
FFFFF0
FFFFF0
FFFFF0
FFFFF0
FFFFF0
1FC000
1FC000
1FC000
1FC000
1FC000
1FC000
1FC000
1FC000
1FC000
1FFFFF
1FFFFF
1FFFFF
1FFFFF
1FFFFF
1FFFFF
ENDCHAR
STARTCHAR 0117
ENCODING 279
SWIDTH 500 0
DWIDTH 25 0
BBX 24 46 1 0
BITMAP
007C00
00FE00
01FE00
01FE00
01FE00
01FE00
00FC00
003000
000000
000000
000000
1FFFC0
1FFFC0
1FFFC0
1FFFC0
1FFFC0
1FFFC0
1FC000
1FC000
1FC000
1FC000
1FC000
1FC000
1FC000
1FC000
FFFFF0
FFFFF0
FFFFF0
FFFFF0
FFFFF0
FFFFF0
1FC000
1FC000
1FC000
1FC000
1FC000
1FC000
1FC000
1FC000
1FC000
1FFFFF
1FFFFF
1FFFFF
1FFFFF
1FFFFF
1FFFFF
ENDCHAR
STARTCHAR 0118
ENCODING 280
SWIDTH 500 0
DWIDTH 25 0
BBX 26 45 1 -10
BITMAP
1FFFC000
1FFFC000
1FFFC000
1FFFC000
1FFFC000
1FFFC000
1FC00000
1FC00000
1FC00000
1FC00000
1FC00000
1FC00000
1FC00000
1FC00000
FFFFF000
FFFFF000
FFFFF000
FFFFF000
FFFFF000
FFFFF000
1FC00000
1FC00000
1FC00000
1FC00000
1FC00000
1FC00000
1FC00000
1FC00000
1FC00000
1FFFFF00
1FFFFF00
1FFFFF00
1FFFFF00
1FFFFF00
1FFFFF00
00003C00
00007800
0000F000
0000E000
0000E000
0000E080
0000F3C0
0000FFC0
00007F80
00001E00
ENDCHAR
STARTCHAR 0119
ENCODING 281
SWIDTH 500 0
DWIDTH 25 0
BBX 26 45 1 -10
BITMAP
1FFFC000
1FFFC000
1FFFC000
1FFFC000
1FFFC000
1FFFC000
1FC00000
1FC00000
1FC00000
1FC00000
1FC00000
1FC00000
1FC00000
1FC00000
FFFFF000
FFFFF000
FFFFF000
FFFFF000
FFFFF000
FFFFF000
1FC00000
1FC00000
1FC00000
1FC00000
1FC00000
1FC00000
1FC00000
1FC00000
1FC00000
1FFFFF00
1FFFFF00
1FFFFF00
1FFFFF00
1FFFFF00
1FFFFF00
00003C00
00007800
0000F000
0000E000
0000E000
0000E080
0000F3C0
0000FFC0
00007F80
00001E00
ENDCHAR
STARTCHAR 011A
ENCODING 282
SWIDTH 500 0
DWIDTH 25 0
BBX 24 45 1 0
BITMAP
1F07C0
0F87C0
07CF80
07FF00
03FE00
01FE00
000000
000000
000000
000000
1FFFC0
1FFFC0
1FFFC0
1FFFC0
1FFFC0
1FFFC0
1FC000
1FC000
1FC000
1FC000
1FC000
1FC000
1FC000
1FC000
FFFFF0
FFFFF0
FFFFF0
FFFFF0
FFFFF0
FFFFF0
1FC000
1FC000
1FC000
1FC000
1FC000
1FC000
1FC000
1FC000
1FC000
1FFFFF
1FFFFF
1FFFFF
1FFFFF
1FFFFF
1FFFFF
ENDCHAR
STARTCHAR 011B
ENCODING 283
SWIDTH 500 0
DWIDTH 25 0
BBX 24 45 1 0
BITMAP
1F07C0
0F87C0
07CF80
07FF00
03FE00
01FE00
000000
000000
000000
000000
1FFFC0
1FFFC0
1FFFC0
1FFFC0
1FFFC0
1FFFC0
1FC000
1FC000
1FC000
1FC000
1FC000
1FC000
1FC000
1FC000
FFFFF0
FFFFF0
FFFFF0
FFFFF0
FFFFF0
FFFFF0
1FC000
1FC000
1FC000
1FC000
1FC000
1FC000
1FC000
1FC000
1FC000
1FFFFF
1FFFFF
1FFFFF
1FFFFF
1FFFFF
1FFFFF
ENDCHAR
STARTCHAR 011E
ENCODING 286
SWIDTH 820 0
DWIDTH 41 0
BBX 39 46 2 -1
BITMAP
001E078000
001E078000
001F078000
000FDF0000
0007FF0000
0003FE0000
0001F80000
0000000000
0000000000
0000F80000
001FFF8000
007FFFE000
00FFFFF800
03FFFFFC00
07FFFFFE00
0FFE03FE00
1FF000FC00
1FE0003800
3FC0001000
3F80000000
7F00000000
7E00000000
FE00000000
FE00000000
FC00000000
FC007FFFFE
FC007FFFFE
FC007FFFFE
FC007FFFFE
FC007FFFFE
FC000003F0
FE000007F0
FE000007F0
7E000007F0
7F00000FE0
3F80001FE0
3FC0001FC0
1FE0003FC0
1FF800FF80
0FFE03FF00
07FFFFFE00
03FFFFFC00
00FFFFF800
007FFFE000
000FFF8000
0000F80000
ENDCHAR
STARTCHAR 011F
ENCODING 287
SWIDTH 820 0
DWIDTH 41 0
BBX 39 46 2 -1
BITMAP
001E078000
001E078000
001F078000
000FDF0000
0007FF0000
0003FE0000
0001F80000
0000000000
0000000000
0000F80000
001FFF8000
007FFFE000
00FFFFF800
03FFFFFC00
07FFFFFE00
0FFE03FE00
1FF000FC00
1FE0003800
3FC0001000
3F80000000
7F00000000
7E00000000
FE00000000
FE00000000
FC00000000
FC007FFFFE
FC007FFFFE
FC007FFFFE
FC007FFFFE
FC007FFFFE
FC000003F0
FE000007F0
FE000007F0
7E000007F0
7F00000FE0
3F80001FE0
3FC0001FC0
1FE0003FC0
1FF800FF80
0FFE03FF00
07FFFFFE00
03FFFFFC00
00FFFFF800
007FFFE000
000FFF8000
0000F80000
ENDCHAR
STARTCHAR 0120
ENCODING 288
SWIDTH 820 0
DWIDTH 41 0
BBX 39 47 2 -1
BITMAP
0000F80000
0001FC0000
0001FC0000
0003FC0000
0003FC0000
0001FC0000
0001F80000
0000600000
0000000000
0000000000
0000F80000
001FFF8000
007FFFE000
00FFFFF800
03FFFFFC00
07FFFFFE00
0FFE03FE00
1FF000FC00
1FE0003800
3FC0001000
3F80000000
7F00000000
7E00000000
FE00000000
FE00000000
FC00000000
FC007FFFFE
FC007FFFFE
FC007FFFFE
FC007FFFFE
FC007FFFFE
FC000003F0
FE000007F0
FE000007F0
7E000007F0
7F00000FE0
3F80001FE0
3FC0001FC0
1FE0003FC0
1FF800FF80
0FFE03FF00
07FFFFFE00
03FFFFFC00
00FFFFF800
007FFFE000
000FFF8000
0000F80000
ENDCHAR
STARTCHAR 0121
ENCODING 289
SWIDTH 820 0
DWIDTH 41 0
BBX 39 47 2 -1
BITMAP
0000F80000
0001FC0000
0001FC0000
0003FC0000
0003FC0000
0001FC0000
0001F80000
0000600000
0000000000
0000000000
0000F80000
001FFF8000
007FFFE000
00FFFFF800
03FFFFFC00
07FFFFFE00
0FFE03FE00
1FF000FC00
1FE0003800
3FC0001000
3F80000000
7F00000000
7E00000000
FE00000000
FE00000000
FC00000000
FC007FFFFE
FC007FFFFE
FC007FFFFE
FC007FFFFE
FC007FFFFE
FC000003F0
FE000007F0
FE000007F0
7E000007F0
7F00000FE0
3F80001FE0
3FC0001FC0
1FE0003FC0
1FF800FF80
0FFE03FF00
07FFFFFE00
03FFFFFC00
00FFFFF800
007FFFE000
000FFF8000
0000F80000
ENDCHAR
STARTCHAR 0124
ENCODING 292
SWIDTH 560 0
DWIDTH 28 0
BBX 25 45 1 0
BITMAP
001FC000
003FC000
003FE000
007DF000
00F9F800
01F0F800
01F07C00
00000000
00000000
00000000
1FC01F80
1FC01F80
1FC01F80
1FC01F80
1FC01F80
1FC01F80
1FC01F80
1FC01F80
1FC01F80
1FC01F80
1FC01F80
1FC01F80
1FC01F80
1FC01F80
1FC01F80
FFFFFF80
FFFFFF80
FFFFFF80
FFFFFF80
FFFFFF80
FFFFFF80
1FC01F80
1FC01F80
1FC01F80
1FC01F80
1FC01F80
1FC01F80
1FC01F80
1FC01F80
1FC01F80
1FC01F80
1FC01F80
1FC01F80
1FC01F80
1FC01F80
ENDCHAR
STARTCHAR 0125
ENCODING 293
SWIDTH 560 0
DWIDTH 28 0
BBX 25 45 1 0
BITMAP
001FC000
003FC000
003FE000
007DF000
00F9F800
01F0F800
01F07C00
00000000
00000000
00000000
1FC01F80
1FC01F80
1FC01F80
1FC01F80
1FC01F80
1FC01F80
1FC01F80
1FC01F80
1FC01F80
1FC01F80
1FC01F80
1FC01F80
1FC01F80
1FC01F80
1FC01F80
FFFFFF80
FFFFFF80
FFFFFF80
FFFFFF80
FFFFFF80
FFFFFF80
1FC01F80
1FC01F80
1FC01F80
1FC01F80
1FC01F80
1FC01F80
1FC01F80
1FC01F80
1FC01F80
1FC01F80
1FC01F80
1FC01F80
1FC01F80
1FC01F80
ENDCHAR
STARTCHAR 0128
ENCODING 296
SWIDTH 220 0
DWIDTH 11 0
BBX 12 31 -1 0
BITMAP
7C00
FFF0
FFF0
FFF0
03E0
0000
0000
0000
0000
0FC0
0FC0
0FC0
0FC0
0FC0
0FC0
0FC0
0FC0
0FC0
0FC0
0FC0
0FC0
0FC0
0FC0
0FC0
0FC0
0FC0
0FC0
0FC0
0FC0
0FC0
0FC0
ENDCHAR
STARTCHAR 0129
ENCODING 297
SWIDTH 220 0
DWIDTH 11 0
BBX 12 31 -1 0
BITMAP
7C00
FFF0
FFF0
FFF0
03E0
0000
0000
0000
0000
0FC0
0FC0
0FC0
0FC0
0FC0
0FC0
0FC0
0FC0
0FC0
0FC0
0FC0
0FC0
0FC0
0FC0
0FC0
0FC0
0FC0
0FC0
0FC0
0FC0
0FC0
0FC0
ENDCHAR
STARTCHAR 012A
ENCODING 298
SWIDTH 220 0
DWIDTH 11 0
BBX 14 30 -1 0
BITMAP
FFFC
FFFC
FFFC
FFFC
0000
0000
0000
0000
0FC0
0FC0
0FC0
0FC0
0FC0
0FC0
0FC0
0FC0
0FC0
0FC0
0FC0
0FC0
0FC0
0FC0
0FC0
0FC0
0FC0
0FC0
0FC0
0FC0
0FC0
0FC0
ENDCHAR
STARTCHAR 012B
ENCODING 299
SWIDTH 220 0
DWIDTH 11 0
BBX 14 30 -1 0
BITMAP
FFFC
FFFC
FFFC
FFFC
0000
0000
0000
0000
0FC0
0FC0
0FC0
0FC0
0FC0
0FC0
0FC0
0FC0
0FC0
0FC0
0FC0
0FC0
0FC0
0FC0
0FC0
0FC0
0FC0
0FC0
0FC0
0FC0
0FC0
0FC0
ENDCHAR
STARTCHAR 012E
ENCODING 302
SWIDTH 220 0
DWIDTH 11 0
BBX 13 50 -1 -10
BITMAP
0200
0200
0300
0700
0700
FFF8
7FF0
3FE0
1FC0
1FC0
1FC0
18E0
3060
0000
0000
0000
0000
0000
1FC0
1FC0
1FC0
1FC0
1FC0
1FC0
1FC0
1FC0
1FC0
1FC0
1FC0
1FC0
1FC0
1FC0
1FC0
1FC0
1FC0
1FC0
1FC0
1FC0
1FC0
1FC0
1F00
3C00
3800
7800
7000
7840
7DE0
3FF0
1FE0
0780
ENDCHAR
STARTCHAR 012F
ENCODING 303
SWIDTH 220 0
DWIDTH 11 0
BBX 13 50 -1 -10
BITMAP
0200
0200
0300
0700
0700
FFF8
7FF0
3FE0
1FC0
1FC0
1FC0
18E0
3060
0000
0000
0000
0000
0000
1FC0
1FC0
1FC0
1FC0
1FC0
1FC0
1FC0
1FC0
1FC0
1FC0
1FC0
1FC0
1FC0
1FC0
1FC0
1FC0
1FC0
1FC0
1FC0
1FC0
1FC0
1FC0
1F00
3C00
3800
7800
7000
7840
7DE0
3FF0
1FE0
0780
ENDCHAR
STARTCHAR 0130
ENCODING 304
SWIDTH 220 0
DWIDTH 11 0
BBX 8 33 2 0
BITMAP
1C
7E
FF
FF
FF
FF
7E
3C
00
00
00
7E
7E
7E
7E
7E
7E
7E
7E
7E
7E
7E
7E
7E
7E
7E
7E
7E
7E
7E
7E
7E
7E
ENDCHAR
STARTCHAR 0139
ENCODING 313
SWIDTH 440 0
DWIDTH 22 0
BBX 19 45 3 0
BITMAP
0F8000
1F0000
1E0000
3C0000
3C0000
780000
700000
000000
000000
000000
FC0000
FC0000
FC0000
FC0000
FC0000
FC0000
FC0000
FC0000
FC0000
FC0000
FC0000
FC0000
FC0000
FC0000
FC0000
FC0000
FC0000
FC0000
FC0000
FC0000
FC0000
FC0000
FC0000
FC0000
FC0000
FC0000
FC0000
FC0000
FC0000
FFFFE0
FFFFE0
FFFFE0
FFFFE0
FFFFE0
FFFFE0
ENDCHAR
STARTCHAR 013A
ENCODING 314
SWIDTH 440 0
DWIDTH 22 0
BBX 19 45 3 0
BITMAP
0F8000
1F0000
1E0000
3C0000
3C0000
780000
700000
000000
000000
000000
FC0000
FC0000
FC0000
FC0000
FC0000
FC0000
FC0000
FC0000
FC0000
FC0000
FC0000
FC0000
FC0000
FC0000
FC0000
FC0000
FC0000
FC0000
FC0000
FC0000
FC0000
FC0000
FC0000
FC0000
FC0000
FC0000
FC0000
FC0000
FC0000
FFFFE0
FFFFE0
FFFFE0
FFFFE0
FFFFE0
FFFFE0
ENDCHAR
STARTCHAR 013D
ENCODING 317
SWIDTH 440 0
DWIDTH 22 0
BBX 24 45 -2 0
BITMAP
F83E00
7C3E00
3E7C00
1FF800
1FF000
0FF000
000000
000000
000000
000000
07E000
07E000
07E000
07E000
07E000
07E000
07E000
07E000
07E000
07E000
07E000
07E000
07E000
07E000
07E000
07E000
07E000
07E000
07E000
07E000
07E000
07E000
07E000
07E000
07E000
07E000
07E000
07E000
07E000
07FFFF
07FFFF
07FFFF
07FFFF
07FFFF
07FFFF
ENDCHAR
STARTCHAR 013E
ENCODING 318
SWIDTH 440 0
DWIDTH 22 0
BBX 24 45 -2 0
BITMAP
F83E00
7C3E00
3E7C00
1FF800
1FF000
0FF000
000000
000000
000000
000000
07E000
07E000
07E000
07E000
07E000
07E000
07E000
07E000
07E000
07E000
07E000
07E000
07E000
07E000
07E000
07E000
07E000
07E000
07E000
07E000
07E000
07E000
07E000
07E000
07E000
07E000
07E000
07E000
07E000
07FFFF
07FFFF
07FFFF
07FFFF
07FFFF
07FFFF
ENDCHAR
STARTCHAR 0141
ENCODING 321
SWIDTH 500 0
DWIDTH 25 0
BBX 23 35 1 0
BITMAP
0FE000
0FE000
0FE000
0FE000
0FE000
0FE000
0FE000
0FE000
0FE000
0FE000
0FE000
0FE100
0FE780
0FFFC0
0FFF80
0FFE00
0FF800
1FE000
3FE000
FFE000
FFE000
6FE000
4FE000
0FE000
0FE000
0FE000
0FE000
0FE000
0FE000
0FFFFE
0FFFFE
0FFFFE
0FFFFE
0FFFFE
0FFFFE
ENDCHAR
STARTCHAR 0142
ENCODING 322
SWIDTH 500 0
DWIDTH 25 0
BBX 23 35 1 0
BITMAP
0FE000
0FE000
0FE000
0FE000
0FE000
0FE000
0FE000
0FE000
0FE000
0FE000
0FE000
0FE100
0FE780
0FFFC0
0FFF80
0FFE00
0FF800
1FE000
3FE000
FFE000
FFE000
6FE000
4FE000
0FE000
0FE000
0FE000
0FE000
0FE000
0FE000
0FFFFE
0FFFFE
0FFFFE
0FFFFE
0FFFFE
0FFFFE
ENDCHAR
STARTCHAR 0143
ENCODING 323
SWIDTH 540 0
DWIDTH 27 0
BBX 24 45 1 0
BITMAP
0003E0
0007C0
000780
000F80
000F00
001E00
001C00
000000
000000
100000
38003F
3E003F
7F003F
FF803F
7FE03F
3FF03F
3FF83F
3FFC3F
3FFF3F
3FFFBF
3FFFFF
3FBFFF
3F9FFF
3F8FFF
3F83FF
3F81FF
3F80FF
3F807F
3F803F
3F803F
3F803F
3F803F
3F803F
3F803F
3F803F
3F803F
3F803F
3F803F
3F803F
3F803F
3F803F
3F803F
3F803F
3F803F
3F803F
ENDCHAR
STARTCHAR 0144
ENCODING 324
SWIDTH 540 0
DWIDTH 27 0
BBX 24 45 1 0
BITMAP
0003E0
0007C0
000780
000F80
000F00
001E00
001C00
000000
000000
100000
38003F
3E003F
7F003F
FF803F
7FE03F
3FF03F
3FF83F
3FFC3F
3FFF3F
3FFFBF
3FFFFF
3FBFFF
3F9FFF
3F8FFF
3F83FF
3F81FF
3F80FF
3F807F
3F803F
3F803F
3F803F
3F803F
3F803F
3F803F
3F803F
3F803F
3F803F
3F803F
3F803F
3F803F
3F803F
3F803F
3F803F
3F803F
3F803F
ENDCHAR
STARTCHAR 0147
ENCODING 327
SWIDTH 540 0
DWIDTH 27 0
BBX 24 45 1 0
BITMAP
07E0F0
03E1F0
01F3E0
00FFC0
00FFC0
007F80
000000
000000
000000
100000
38003F
3E003F
7F003F
FF803F
7FE03F
3FF03F
3FF83F
3FFC3F
3FFF3F
3FFFBF
3FFFFF
3FBFFF
3F9FFF
3F8FFF
3F83FF
3F81FF
3F80FF
3F807F
3F803F
3F803F
3F803F
3F803F
3F803F
3F803F
3F803F
3F803F
3F803F
3F803F
3F803F
3F803F
3F803F
3F803F
3F803F
3F803F
3F803F
ENDCHAR
STARTCHAR 0148
ENCODING 328
SWIDTH 540 0
DWIDTH 27 0
BBX 24 45 1 0
BITMAP
07E0F0
03E1F0
01F3E0
00FFC0
00FFC0
007F80
000000
000000
000000
100000
38003F
3E003F
7F003F
FF803F
7FE03F
3FF03F
3FF83F
3FFC3F
3FFF3F
3FFFBF
3FFFFF
3FBFFF
3F9FFF
3F8FFF
3F83FF
3F81FF
3F80FF
3F807F
3F803F
3F803F
3F803F
3F803F
3F803F
3F803F
3F803F
3F803F
3F803F
3F803F
3F803F
3F803F
3F803F
3F803F
3F803F
3F803F
3F803F
ENDCHAR
STARTCHAR 014C
ENCODING 332
SWIDTH 820 0
DWIDTH 41 0
BBX 37 45 2 -1
BITMAP
001FFFC000
001FFFC000
001FFFC000
001FFFC000
001FFFC000
0000000000
0000000000
0000000000
0000F80000
001FFFC000
007FFFF000
00FFFFF800
03FFFFFE00
07FFFFFF00
0FFE03FF80
1FF8007FC0
1FE0003FC0
3FC0001FE0
3F80000FF0
7F000007F0
7E000003F0
FE000003F8
FE000003F8
FC000001F8
FC000001F8
FC000001F8
FC000001F8
FC000001F8
FC000001F8
FC000001F8
FE000003F8
FE000003F8
7E000003F0
7F000007F0
3F80000FF0
3FC0001FE0
1FE0003FC0
1FF8007FC0
0FFE03FF80
07FFFFFF00
03FFFFFE00
00FFFFFC00
007FFFF000
000FFFC000
0000F80000
ENDCHAR
STARTCHAR 014D
ENCODING 333
SWIDTH 820 0
DWIDTH 41 0
BBX 37 45 2 -1
BITMAP
001FFFC000
001FFFC000
001FFFC000
001FFFC000
001FFFC000
0000000000
0000000000
0000000000
0000F80000
001FFFC000
007FFFF000
00FFFFF800
03FFFFFE00
07FFFFFF00
0FFE03FF80
1FF8007FC0
1FE0003FC0
3FC0001FE0
3F80000FF0
7F000007F0
7E000003F0
FE000003F8
FE000003F8
FC000001F8
FC000001F8
FC000001F8
FC000001F8
FC000001F8
FC000001F8
FC000001F8
FE000003F8
FE000003F8
7E000003F0
7F000007F0
3F80000FF0
3FC0001FE0
1FE0003FC0
1FF8007FC0
0FFE03FF80
07FFFFFF00
03FFFFFE00
00FFFFFC00
007FFFF000
000FFFC000
0000F80000
ENDCHAR
STARTCHAR 0150
ENCODING 336
SWIDTH 820 0
DWIDTH 41 0
BBX 37 46 2 -1
BITMAP
0001F0F800
0001E1F000
0003E1E000
0003C3C000
000783C000
0007078000
000F070000
0000000000
0000000000
0000F80000
001FFFC000
007FFFF000
00FFFFF800
03FFFFFE00
07FFFFFF00
0FFE03FF80
1FF8007FC0
1FE0003FC0
3FC0001FE0
3F80000FF0
7F000007F0
7E000003F0
FE000003F8
FE000003F8
FC000001F8
FC000001F8
FC000001F8
FC000001F8
FC000001F8
FC000001F8
FC000001F8
FE000003F8
FE000003F8
7E000003F0
7F000007F0
3F80000FF0
3FC0001FE0
1FE0003FC0
1FF8007FC0
0FFE03FF80
07FFFFFF00
03FFFFFE00
00FFFFFC00
007FFFF000
000FFFC000
0000F80000
ENDCHAR
STARTCHAR 0151
ENCODING 337
SWIDTH 820 0
DWIDTH 41 0
BBX 37 46 2 -1
BITMAP
0001F0F800
0001E1F000
0003E1E000
0003C3C000
000783C000
0007078000
000F070000
0000000000
0000000000
0000F80000
001FFFC000
007FFFF000
00FFFFF800
03FFFFFE00
07FFFFFF00
0FFE03FF80
1FF8007FC0
1FE0003FC0
3FC0001FE0
3F80000FF0
7F000007F0
7E000003F0
FE000003F8
FE000003F8
FC000001F8
FC000001F8
FC000001F8
FC000001F8
FC000001F8
FC000001F8
FC000001F8
FE000003F8
FE000003F8
7E000003F0
7F000007F0
3F80000FF0
3FC0001FE0
1FE0003FC0
1FF8007FC0
0FFE03FF80
07FFFFFF00
03FFFFFE00
00FFFFFC00
007FFFF000
000FFFC000
0000F80000
ENDCHAR
STARTCHAR 0154
ENCODING 340
SWIDTH 600 0
DWIDTH 30 0
BBX 28 45 1 0
BITMAP
0001F000
0003E000
0003C000
0007C000
00078000
000F0000
000E0000
00000000
00000000
00000000
1FFFF000
1FFFFC00
1FFFFF00
1FFFFF80
1FFFFFC0
1FFFFFC0
1FC01FE0
1FC00FE0
1FC007F0
1FC007F0
1FC003F0
1FC003F0
1FC007F0
1FC007E0
1FC00FE0
1FC03FE0
FFFFFFC0
FFFFFF80
FFFFFF00
FFFFFE00
FFFFFF00
FFFFFF00
1FC07F80
1FC01F80
1FC01FC0
1FC01FC0
1FC00FC0
1FC00FC0
1FC00FC0
1FC00FC0
1FC00FC0
1FC00FC0
1FC00FC0
1FC00FC0
1FC00FC0
ENDCHAR
STARTCHAR 0155
ENCODING 341
SWIDTH 600 0
DWIDTH 30 0
BBX 28 45 1 0
BITMAP
0001F000
0003E000
0003C000
0007C000
00078000
000F0000
000E0000
00000000
00000000
00000000
1FFFF000
1FFFFC00
1FFFFF00
1FFFFF80
1FFFFFC0
1FFFFFC0
1FC01FE0
1FC00FE0
1FC007F0
1FC007F0
1FC003F0
1FC003F0
1FC007F0
1FC007E0
1FC00FE0
1FC03FE0
FFFFFFC0
FFFFFF80
FFFFFF00
FFFFFE00
FFFFFF00
FFFFFF00
1FC07F80
1FC01F80
1FC01FC0
1FC01FC0
1FC00FC0
1FC00FC0
1FC00FC0
1FC00FC0
1FC00FC0
1FC00FC0
1FC00FC0
1FC00FC0
1FC00FC0
ENDCHAR
STARTCHAR 0158
ENCODING 344
SWIDTH 600 0
DWIDTH 30 0
BBX 28 45 1 0
BITMAP
03F07C00
01F0F800
00F9F000
007FE000
007FE000
003FC000
00000000
00000000
00000000
00000000
1FFFF000
1FFFFC00
1FFFFF00
1FFFFF80
1FFFFFC0
1FFFFFC0
1FC01FE0
1FC00FE0
1FC007F0
1FC007F0
1FC003F0
1FC003F0
1FC007F0
1FC007E0
1FC00FE0
1FC03FE0
FFFFFFC0
FFFFFF80
FFFFFF00
FFFFFE00
FFFFFF00
FFFFFF00
1FC07F80
1FC01F80
1FC01FC0
1FC01FC0
1FC00FC0
1FC00FC0
1FC00FC0
1FC00FC0
1FC00FC0
1FC00FC0
1FC00FC0
1FC00FC0
1FC00FC0
ENDCHAR
STARTCHAR 0159
ENCODING 345
SWIDTH 600 0
DWIDTH 30 0
BBX 28 45 1 0
BITMAP
03F07C00
01F0F800
00F9F000
007FE000
007FE000
003FC000
00000000
00000000
00000000
00000000
1FFFF000
1FFFFC00
1FFFFF00
1FFFFF80
1FFFFFC0
1FFFFFC0
1FC01FE0
1FC00FE0
1FC007F0
1FC007F0
1FC003F0
1FC003F0
1FC007F0
1FC007E0
1FC00FE0
1FC03FE0
FFFFFFC0
FFFFFF80
FFFFFF00
FFFFFE00
FFFFFF00
FFFFFF00
1FC07F80
1FC01F80
1FC01FC0
1FC01FC0
1FC00FC0
1FC00FC0
1FC00FC0
1FC00FC0
1FC00FC0
1FC00FC0
1FC00FC0
1FC00FC0
1FC00FC0
ENDCHAR
STARTCHAR 015A
ENCODING 346
SWIDTH 500 0
DWIDTH 25 0
BBX 23 46 1 -1
BITMAP
000780
000F80
000F00
001E00
001C00
003C00
007800
000000
000000
007C00
03FF80
07FFE0
0FFFF0
1FFFF8
1FFFF8
3FC3FC
3F81FC
3F00FC
3F00F0
3F0080
3F8000
3FC000
1FE000
0FF800
0FFC00
07FF00
03FF80
00FFE0
007FF0
001FF8
0007F8
0003FC
0001FC
0000FE
0000FE
0E007E
FE007E
7F00FE
7F01FE
3FC3FC
3FFFFC
1FFFF8
0FFFF0
07FFE0
01FFC0
003E00
ENDCHAR
STARTCHAR 015B
ENCODING 347
SWIDTH 500 0
DWIDTH 25 0
BBX 23 46 1 -1
BITMAP
000780
000F80
000F00
001E00
001C00
003C00
007800
000000
000000
007C00
03FF80
07FFE0
0FFFF0
1FFFF8
1FFFF8
3FC3FC
3F81FC
3F00FC
3F00F0
3F0080
3F8000
3FC000
1FE000
0FF800
0FFC00
07FF00
03FF80
00FFE0
007FF0
001FF8
0007F8
0003FC
0001FC
0000FE
0000FE
0E007E
FE007E
7F00FE
7F01FE
3FC3FC
3FFFFC
1FFFF8
0FFFF0
07FFE0
01FFC0
003E00
ENDCHAR
STARTCHAR 015E
ENCODING 350
SWIDTH 500 0
DWIDTH 25 0
BBX 23 47 1 -11
BITMAP
007C00
03FF80
07FFE0
0FFFF0
1FFFF8
1FFFF8
3FC3FC
3F81FC
3F00FC
3F00F0
3F0080
3F8000
3FC000
1FE000
0FF800
0FFC00
07FF00
03FF80
00FFE0
007FF0
001FF8
0007F8
0003FC
0001FC
0000FE
0000FE
0E007E
FE007E
7F00FE
7F01FE
3FC3FC
3FFFFC
1FFFF8
0FFFF0
07FFE0
03FFC0
003E00
003800
003C00
003E00
000700
010700
030700
07CF00
07FF00
01FE00
00FC00
ENDCHAR
STARTCHAR 015F
ENCODING 351
SWIDTH 500 0
DWIDTH 25 0
BBX 23 47 1 -11
BITMAP
007C00
03FF80
07FFE0
0FFFF0
1FFFF8
1FFFF8
3FC3FC
3F81FC
3F00FC
3F00F0
3F0080
3F8000
3FC000
1FE000
0FF800
0FFC00
07FF00
03FF80
00FFE0
007FF0
001FF8
0007F8
0003FC
0001FC
0000FE
0000FE
0E007E
FE007E
7F00FE
7F01FE
3FC3FC
3FFFFC
1FFFF8
0FFFF0
07FFE0
03FFC0
003E00
003800
003C00
003E00
000700
010700
030700
07CF00
07FF00
01FE00
00FC00
ENDCHAR
STARTCHAR 0160
ENCODING 352
SWIDTH 500 0
DWIDTH 25 0
BBX 23 46 1 -1
BITMAP
0F83E0
07C7C0
03E7C0
03FF80
01FF00
00FF00
000000
000000
000000
007C00
03FF80
07FFE0
0FFFF0
1FFFF8
1FFFF8
3FC3FC
3F81FC
3F00FC
3F00F0
3F0080
3F8000
3FC000
1FE000
0FF800
0FFC00
07FF00
03FF80
00FFE0
007FF0
001FF8
0007F8
0003FC
0001FC
0000FE
0000FE
0E007E
FE007E
7F00FE
7F01FE
3FC3FC
3FFFFC
1FFFF8
0FFFF0
07FFE0
01FFC0
003E00
ENDCHAR
STARTCHAR 0161
ENCODING 353
SWIDTH 500 0
DWIDTH 25 0
BBX 23 46 1 -1
BITMAP
0F83E0
07C7C0
03E7C0
03FF80
01FF00
00FF00
000000
000000
000000
007C00
03FF80
07FFE0
0FFFF0
1FFFF8
1FFFF8
3FC3FC
3F81FC
3F00FC
3F00F0
3F0080
3F8000
3FC000
1FE000
0FF800
0FFC00
07FF00
03FF80
00FFE0
007FF0
001FF8
0007F8
0003FC
0001FC
0000FE
0000FE
0E007E
FE007E
7F00FE
7F01FE
3FC3FC
3FFFFC
1FFFF8
0FFFF0
07FFE0
01FFC0
003E00
ENDCHAR
STARTCHAR 0162
ENCODING 354
SWIDTH 500 0
DWIDTH 25 0
BBX 24 46 1 -11
BITMAP
FFFFFF
FFFFFF
FFFFFF
FFFFFF
FFFFFF
FFFFFF
007E00
007E00
007E00
007E00
007E00
007E00
007E00
007E00
007E00
007E00
007E00
007E00
007E00
007E00
007E00
007E00
007E00
007E00
007E00
007E00
007E00
007E00
007E00
007E00
007E00
007E00
007E00
007E00
007E00
003800
003800
003C00
003E00
000F00
000700
030700
079F00
07FE00
03FE00
00F800
ENDCHAR
STARTCHAR 0163
ENCODING 355
SWIDTH 500 0
DWIDTH 25 0
BBX 24 46 1 -11
BITMAP
FFFFFF
FFFFFF
FFFFFF
FFFFFF
FFFFFF
FFFFFF
007E00
007E00
007E00
007E00
007E00
007E00
007E00
007E00
007E00
007E00
007E00
007E00
007E00
007E00
007E00
007E00
007E00
007E00
007E00
007E00
007E00
007E00
007E00
007E00
007E00
007E00
007E00
007E00
007E00
003800
003800
003C00
003E00
000F00
000700
030700
079F00
07FE00
03FE00
00F800
ENDCHAR
STARTCHAR 0164
ENCODING 356
SWIDTH 500 0
DWIDTH 25 0
BBX 24 45 1 0
BITMAP
0FC1E0
07C3E0
03E7C0
01FF80
01FF80
00FF00
000000
000000
000000
000000
FFFFFF
FFFFFF
FFFFFF
FFFFFF
FFFFFF
FFFFFF
007E00
007E00
007E00
007E00
007E00
007E00
007E00
007E00
007E00
007E00
007E00
007E00
007E00
007E00
007E00
007E00
007E00
007E00
007E00
007E00
007E00
007E00
007E00
007E00
007E00
007E00
007E00
007E00
007E00
ENDCHAR
STARTCHAR 0165
ENCODING 357
SWIDTH 500 0
DWIDTH 25 0
BBX 24 45 1 0
BITMAP
0FC1E0
07C3E0
03E7C0
01FF80
01FF80
00FF00
000000
000000
000000
000000
FFFFFF
FFFFFF
FFFFFF
FFFFFF
FFFFFF
FFFFFF
007E00
007E00
007E00
007E00
007E00
007E00
007E00
007E00
007E00
007E00
007E00
007E00
007E00
007E00
007E00
007E00
007E00
007E00
007E00
007E00
007E00
007E00
007E00
007E00
007E00
007E00
007E00
007E00
007E00
ENDCHAR
STARTCHAR 0168
ENCODING 360
SWIDTH 520 0
DWIDTH 26 0
BBX 22 46 2 -1
BITMAP
010000
07FB80
07FF80
07FF80
047F80
000000
000000
000000
000000
000000
FE00FC
FE00FC
FE00FC
FE00FC
FE00FC
FE00FC
FE00FC
FE00FC
FE00FC
FE00FC
FE00FC
FE00FC
FE00FC
FE00FC
FE00FC
FE00FC
FE00FC
FE00FC
FE00FC
FE00FC
FE00FC
FE00FC
FE00FC
FE00FC
FE00FC
FE00FC
FE00FC
7E01FC
7F01F8
7F87F8
3FFFF8
1FFFF0
1FFFE0
0FFFC0
03FF00
007C00
ENDCHAR
STARTCHAR 0169
ENCODING 361
SWIDTH 520 0
DWIDTH 26 0
BBX 22 46 2 -1
BITMAP
010000
07FB80
07FF80
07FF80
047F80
000000
000000
000000
000000
000000
FE00FC
FE00FC
FE00FC
FE00FC
FE00FC
FE00FC
FE00FC
FE00FC
FE00FC
FE00FC
FE00FC
FE00FC
FE00FC
FE00FC
FE00FC
FE00FC
FE00FC
FE00FC
FE00FC
FE00FC
FE00FC
FE00FC
FE00FC
FE00FC
FE00FC
FE00FC
FE00FC
7E01FC
7F01F8
7F87F8
3FFFF8
1FFFF0
1FFFE0
0FFFC0
03FF00
007C00
ENDCHAR
STARTCHAR 016A
ENCODING 362
SWIDTH 520 0
DWIDTH 26 0
BBX 22 45 2 -1
BITMAP
0FFFC0
0FFFC0
0FFFC0
0FFFC0
0FFFC0
000000
000000
000000
000000
FE00FC
FE00FC
FE00FC
FE00FC
FE00FC
FE00FC
FE00FC
FE00FC
FE00FC
FE00FC
FE00FC
FE00FC
FE00FC
FE00FC
FE00FC
FE00FC
FE00FC
FE00FC
FE00FC
FE00FC
FE00FC
FE00FC
FE00FC
FE00FC
FE00FC
FE00FC
FE00FC
7E01FC
7F01F8
7F87F8
3FFFF8
1FFFF0
1FFFE0
0FFFC0
03FF00
007C00
ENDCHAR
STARTCHAR 016B
ENCODING 363
SWIDTH 520 0
DWIDTH 26 0
BBX 22 45 2 -1
BITMAP
0FFFC0
0FFFC0
0FFFC0
0FFFC0
0FFFC0
000000
000000
000000
000000
FE00FC
FE00FC
FE00FC
FE00FC
FE00FC
FE00FC
FE00FC
FE00FC
FE00FC
FE00FC
FE00FC
FE00FC
FE00FC
FE00FC
FE00FC
FE00FC
FE00FC
FE00FC
FE00FC
FE00FC
FE00FC
FE00FC
FE00FC
FE00FC
FE00FC
FE00FC
FE00FC
7E01FC
7F01F8
7F87F8
3FFFF8
1FFFF0
1FFFE0
0FFFC0
03FF00
007C00
ENDCHAR
STARTCHAR 016E
ENCODING 366
SWIDTH 520 0
DWIDTH 26 0
BBX 22 49 2 -1
BITMAP
007C00
01FE00
01FF00
038700
038700
038700
038700
01FF00
01FE00
007C00
000000
000000
000000
FE00FC
FE00FC
FE00FC
FE00FC
FE00FC
FE00FC
FE00FC
FE00FC
FE00FC
FE00FC
FE00FC
FE00FC
FE00FC
FE00FC
FE00FC
FE00FC
FE00FC
FE00FC
FE00FC
FE00FC
FE00FC
FE00FC
FE00FC
FE00FC
FE00FC
FE00FC
FE00FC
7E01FC
7F01F8
7F87F8
3FFFF8
1FFFF0
1FFFE0
0FFFC0
03FF00
007C00
ENDCHAR
STARTCHAR 016F
ENCODING 367
SWIDTH 520 0
DWIDTH 26 0
BBX 22 49 2 -1
BITMAP
007C00
01FE00
01FF00
038700
038700
038700
038700
01FF00
01FE00
007C00
000000
000000
000000
FE00FC
FE00FC
FE00FC
FE00FC
FE00FC
FE00FC
FE00FC
FE00FC
FE00FC
FE00FC
FE00FC
FE00FC
FE00FC
FE00FC
FE00FC
FE00FC
FE00FC
FE00FC
FE00FC
FE00FC
FE00FC
FE00FC
FE00FC
FE00FC
FE00FC
FE00FC
FE00FC
7E01FC
7F01F8
7F87F8
3FFFF8
1FFFF0
1FFFE0
0FFFC0
03FF00
007C00
ENDCHAR
STARTCHAR 0170
ENCODING 368
SWIDTH 520 0
DWIDTH 26 0
BBX 22 46 2 -1
BITMAP
00F8F8
01F0F0
01E1F0
03E1E0
03C3C0
0783C0
070780
000000
000000
000000
FE00FC
FE00FC
FE00FC
FE00FC
FE00FC
FE00FC
FE00FC
FE00FC
FE00FC
FE00FC
FE00FC
FE00FC
FE00FC
FE00FC
FE00FC
FE00FC
FE00FC
FE00FC
FE00FC
FE00FC
FE00FC
FE00FC
FE00FC
FE00FC
FE00FC
FE00FC
FE00FC
7E01FC
7F01F8
7F87F8
3FFFF8
1FFFF0
1FFFE0
0FFFC0
03FF00
007C00
ENDCHAR
STARTCHAR 0171
ENCODING 369
SWIDTH 520 0
DWIDTH 26 0
BBX 22 46 2 -1
BITMAP
00F8F8
01F0F0
01E1F0
03E1E0
03C3C0
0783C0
070780
000000
000000
000000
FE00FC
FE00FC
FE00FC
FE00FC
FE00FC
FE00FC
FE00FC
FE00FC
FE00FC
FE00FC
FE00FC
FE00FC
FE00FC
FE00FC
FE00FC
FE00FC
FE00FC
FE00FC
FE00FC
FE00FC
FE00FC
FE00FC
FE00FC
FE00FC
FE00FC
FE00FC
FE00FC
7E01FC
7F01F8
7F87F8
3FFFF8
1FFFF0
1FFFE0
0FFFC0
03FF00
007C00
ENDCHAR
STARTCHAR 0172
ENCODING 370
SWIDTH 520 0
DWIDTH 26 0
BBX 22 45 2 -10
BITMAP
FE00FC
FE00FC
FE00FC
FE00FC
FE00FC
FE00FC
FE00FC
FE00FC
FE00FC
FE00FC
FE00FC
FE00FC
FE00FC
FE00FC
FE00FC
FE00FC
FE00FC
FE00FC
FE00FC
FE00FC
FE00FC
FE00FC
FE00FC
FE00FC
FE00FC
FE00FC
FE00FC
7E01FC
7F01F8
7F87F8
3FFFF8
3FFFF0
1FFFE0
0FFFC0
03FF00
007C00
00F000
01E000
01C000
01C000
01C100
01E780
01FF80
00FF00
001C00
ENDCHAR
STARTCHAR 0173
ENCODING 371
SWIDTH 520 0
DWIDTH 26 0
BBX 22 45 2 -10
BITMAP
FE00FC
FE00FC
FE00FC
FE00FC
FE00FC
FE00FC
FE00FC
FE00FC
FE00FC
FE00FC
FE00FC
FE00FC
FE00FC
FE00FC
FE00FC
FE00FC
FE00FC
FE00FC
FE00FC
FE00FC
FE00FC
FE00FC
FE00FC
FE00FC
FE00FC
FE00FC
FE00FC
7E01FC
7F01F8
7F87F8
3FFFF8
3FFFF0
1FFFE0
0FFFC0
03FF00
007C00
00F000
01E000
01C000
01C000
01C100
01E780
01FF80
00FF00
001C00
ENDCHAR
STARTCHAR 0176
ENCODING 374
SWIDTH 500 0
DWIDTH 25 0
BBX 22 45 2 0
BITMAP
00FC00
01FE00
03FF00
03FF00
07CF80
0F87C0
1F03E0
000000
000000
000000
FC00FC
FC00FC
FC00FC
FC00FC
FC00FC
FC00FC
FC00FC
FC00FC
FC00FC
FC00FC
FC00FC
FC00FC
FC00FC
FC00FC
FC00FC
FC00FC
FC00FC
FE01FC
FE01FC
7E03F8
7F87F8
7FFFF0
3FFFF0
1FFFE0
0FFFC0
07FF80
01FC00
00FC00
00FC00
00FC00
00FC00
00FC00
00FC00
00FC00
00FC00
ENDCHAR
STARTCHAR 0177
ENCODING 375
SWIDTH 500 0
DWIDTH 25 0
BBX 22 45 2 0
BITMAP
00FC00
01FE00
03FF00
03FF00
07CF80
0F87C0
1F03E0
000000
000000
000000
FC00FC
FC00FC
FC00FC
FC00FC
FC00FC
FC00FC
FC00FC
FC00FC
FC00FC
FC00FC
FC00FC
FC00FC
FC00FC
FC00FC
FC00FC
FC00FC
FC00FC
FE01FC
FE01FC
7E03F8
7F87F8
7FFFF0
3FFFF0
1FFFE0
0FFFC0
07FF80
01FC00
00FC00
00FC00
00FC00
00FC00
00FC00
00FC00
00FC00
00FC00
ENDCHAR
STARTCHAR 0178
ENCODING 376
SWIDTH 500 0
DWIDTH 25 0
BBX 22 45 2 0
BITMAP
1F01F0
3F83F8
3F87F8
7F87F8
7F87F8
3F83F8
3F03F0
0C00E0
000000
000000
FC00FC
FC00FC
FC00FC
FC00FC
FC00FC
FC00FC
FC00FC
FC00FC
FC00FC
FC00FC
FC00FC
FC00FC
FC00FC
FC00FC
FC00FC
FC00FC
FC00FC
FE01FC
FE01FC
7E03F8
7F87F8
7FFFF0
3FFFF0
1FFFE0
0FFFC0
07FF80
01FC00
00FC00
00FC00
00FC00
00FC00
00FC00
00FC00
00FC00
00FC00
ENDCHAR
STARTCHAR 0179
ENCODING 377
SWIDTH 520 0
DWIDTH 26 0
BBX 24 45 1 0
BITMAP
0007C0
000780
000F80
000F00
001E00
001C00
003C00
000000
000000
000000
FFFFFF
FFFFFF
FFFFFF
FFFFFF
FFFFFE
FFFFFC
0001FC
0001F8
0003F8
0007F0
0007F0
000FE0
000FC0
001FC0
003F80
003F80
007F00
007E00
00FE00
01FC00
01FC00
03F800
03F000
07F000
0FE000
0FE000
1FC000
1FC000
3F8000
7FFFFE
7FFFFE
FFFFFE
FFFFFE
FFFFFE
FFFFFE
ENDCHAR
STARTCHAR 017A
ENCODING 378
SWIDTH 520 0
DWIDTH 26 0
BBX 24 45 1 0
BITMAP
0007C0
000780
000F80
000F00
001E00
001C00
003C00
000000
000000
000000
FFFFFF
FFFFFF
FFFFFF
FFFFFF
FFFFFE
FFFFFC
0001FC
0001F8
0003F8
0007F0
0007F0
000FE0
000FC0
001FC0
003F80
003F80
007F00
007E00
00FE00
01FC00
01FC00
03F800
03F000
07F000
0FE000
0FE000
1FC000
1FC000
3F8000
7FFFFE
7FFFFE
FFFFFE
FFFFFE
FFFFFE
FFFFFE
ENDCHAR
STARTCHAR 017B
ENCODING 379
SWIDTH 520 0
DWIDTH 26 0
BBX 24 46 1 0
BITMAP
003E00
007F00
007F00
007F80
007F80
007F00
003E00
000C00
000000
000000
000000
FFFFFF
FFFFFF
FFFFFF
FFFFFF
FFFFFE
FFFFFC
0001FC
0001F8
0003F8
0007F0
0007F0
000FE0
000FC0
001FC0
003F80
003F80
007F00
007E00
00FE00
01FC00
01FC00
03F800
03F000
07F000
0FE000
0FE000
1FC000
1FC000
3F8000
7FFFFE
7FFFFE
FFFFFE
FFFFFE
FFFFFE
FFFFFE
ENDCHAR
STARTCHAR 017C
ENCODING 380
SWIDTH 520 0
DWIDTH 26 0
BBX 24 46 1 0
BITMAP
003E00
007F00
007F00
007F80
007F80
007F00
003E00
000C00
000000
000000
000000
FFFFFF
FFFFFF
FFFFFF
FFFFFF
FFFFFE
FFFFFC
0001FC
0001F8
0003F8
0007F0
0007F0
000FE0
000FC0
001FC0
003F80
003F80
007F00
007E00
00FE00
01FC00
01FC00
03F800
03F000
07F000
0FE000
0FE000
1FC000
1FC000
3F8000
7FFFFE
7FFFFE
FFFFFE
FFFFFE
FFFFFE
FFFFFE
ENDCHAR
STARTCHAR 017D
ENCODING 381
SWIDTH 520 0
DWIDTH 26 0
BBX 24 45 1 0
BITMAP
07C1F0
03E3E0
03E7C0
01F7C0
00FF80
00FF00
000000
000000
000000
000000
FFFFFF
FFFFFF
FFFFFF
FFFFFF
FFFFFE
FFFFFC
0001FC
0001F8
0003F8
0007F0
0007F0
000FE0
000FC0
001FC0
003F80
003F80
007F00
007E00
00FE00
01FC00
01FC00
03F800
03F000
07F000
0FE000
0FE000
1FC000
1FC000
3F8000
7FFFFE
7FFFFE
FFFFFE
FFFFFE
FFFFFE
FFFFFE
ENDCHAR
STARTCHAR 017E
ENCODING 382
SWIDTH 520 0
DWIDTH 26 0
BBX 24 45 1 0
BITMAP
07C1F0
03E3E0
03E7C0
01F7C0
00FF80
00FF00
000000
000000
000000
000000
FFFFFF
FFFFFF
FFFFFF
FFFFFF
FFFFFE
FFFFFC
0001FC
0001F8
0003F8
0007F0
0007F0
000FE0
000FC0
001FC0
003F80
003F80
007F00
007E00
00FE00
01FC00
01FC00
03F800
03F000
07F000
0FE000
0FE000
1FC000
1FC000
3F8000
7FFFFE
7FFFFE
FFFFFE
FFFFFE
FFFFFE
FFFFFE
ENDCHAR
STARTCHAR 01A0
ENCODING 416
SWIDTH 820 0
DWIDTH 41 0
BBX 37 41 2 -1
BITMAP
00000001E0
00000001E0
00000003E0
00000003C0
0000F807C0
001FFFCF80
007FFFFF00
00FFFFFC00
03FFFFFE00
07FFFFFF00
0FFE03FF80
1FF8007FC0
1FE0003FC0
3FC0001FE0
3F80000FF0
7F000007F0
7E000003F0
FE000003F8
FE000003F8
FC000001F8
FC000001F8
FC000001F8
FC000001F8
FC000001F8
FC000001F8
FC000001F8
FE000003F8
FE000003F8
7E000003F0
7F000007F0
3F80000FF0
3FC0001FE0
1FE0003FC0
1FF8007FC0
0FFE03FF80
07FFFFFF00
03FFFFFE00
00FFFFFC00
007FFFF000
000FFFC000
0000F80000
ENDCHAR
STARTCHAR 01A1
ENCODING 417
SWIDTH 820 0
DWIDTH 41 0
BBX 37 41 2 -1
BITMAP
00000001E0
00000001E0
00000003E0
00000003C0
0000F807C0
001FFFCF80
007FFFFF00
00FFFFFC00
03FFFFFE00
07FFFFFF00
0FFE03FF80
1FF8007FC0
1FE0003FC0
3FC0001FE0
3F80000FF0
7F000007F0
7E000003F0
FE000003F8
FE000003F8
FC000001F8
FC000001F8
FC000001F8
FC000001F8
FC000001F8
FC000001F8
FC000001F8
FE000003F8
FE000003F8
7E000003F0
7F000007F0
3F80000FF0
3FC0001FE0
1FE0003FC0
1FF8007FC0
0FFE03FF80
07FFFFFF00
03FFFFFE00
00FFFFFC00
007FFFF000
000FFFC000
0000F80000
ENDCHAR
STARTCHAR 01AF
ENCODING 431
SWIDTH 520 0
DWIDTH 26 0
BBX 26 41 2 -1
BITMAP
000001C0
000001C0
000003C0
000003C0
00000380
FE00FF80
FE00FF00
FE00FC00
FE00FC00
FE00FC00
FE00FC00
FE00FC00
FE00FC00
FE00FC00
FE00FC00
FE00FC00
FE00FC00
FE00FC00
FE00FC00
FE00FC00
FE00FC00
FE00FC00
FE00FC00
FE00FC00
FE00FC00
FE00FC00
FE00FC00
FE00FC00
FE00FC00
FE00FC00
FE00FC00
FE00FC00
7E01FC00
7F01F800
7F87F800
3FFFF800
1FFFF000
1FFFE000
0FFFC000
03FF0000
007C0000
ENDCHAR
STARTCHAR 01B0
ENCODING 432
SWIDTH 520 0
DWIDTH 26 0
BBX 26 41 2 -1
BITMAP
000001C0
000001C0
000003C0
000003C0
00000380
FE00FF80
FE00FF00
FE00FC00
FE00FC00
FE00FC00
FE00FC00
FE00FC00
FE00FC00
FE00FC00
FE00FC00
FE00FC00
FE00FC00
FE00FC00
FE00FC00
FE00FC00
FE00FC00
FE00FC00
FE00FC00
FE00FC00
FE00FC00
FE00FC00
FE00FC00
FE00FC00
FE00FC00
FE00FC00
FE00FC00
FE00FC00
7E01FC00
7F01F800
7F87F800
3FFFF800
1FFFF000
1FFFE000
0FFFC000
03FF0000
007C0000
ENDCHAR
STARTCHAR 01CD
ENCODING 461
SWIDTH 560 0
DWIDTH 28 0
BBX 26 45 2 0
BITMAP
0F83E000
07C7C000
07EFC000
03EF8000
01FF0000
00FE0000
00000000
00000000
00000000
007C0000
03FF8000
07FFC000
0FFFE000
1FFFF000
3FFFF800
3F87F800
7F01FC00
7F01FC00
7E00FC00
7E00FC00
7E00FC00
FE00FC00
FE00FC00
FE00FC00
FE00FC00
FE00FC00
FE00FC00
FE00FC00
FE00FC00
FE00FC00
FE00FC00
FE00FC00
FE00FC00
FE00FC00
FE00FC00
FE00FC00
FE00FC00
FE00FC00
FE00FC00
FFFFFFC0
FFFFFFC0
FFFFFFC0
FFFFFFC0
FFFFFFC0
FFFFFFC0
ENDCHAR
STARTCHAR 01CE
ENCODING 462
SWIDTH 560 0
DWIDTH 28 0
BBX 26 45 2 0
BITMAP
0F83E000
07C7C000
07EFC000
03EF8000
01FF0000
00FE0000
00000000
00000000
00000000
007C0000
03FF8000
07FFC000
0FFFE000
1FFFF000
3FFFF800
3F87F800
7F01FC00
7F01FC00
7E00FC00
7E00FC00
7E00FC00
FE00FC00
FE00FC00
FE00FC00
FE00FC00
FE00FC00
FE00FC00
FE00FC00
FE00FC00
FE00FC00
FE00FC00
FE00FC00
FE00FC00
FE00FC00
FE00FC00
FE00FC00
FE00FC00
FE00FC00
FE00FC00
FFFFFFC0
FFFFFFC0
FFFFFFC0
FFFFFFC0
FFFFFFC0
FFFFFFC0
ENDCHAR
STARTCHAR 01CF
ENCODING 463
SWIDTH 220 0
DWIDTH 11 0
BBX 16 32 -2 0
BITMAP
F81F
7C3E
7E7C
3E7C
1FF8
0FF0
0FE0
0000
0000
0000
07E0
07E0
07E0
07E0
07E0
07E0
07E0
07E0
07E0
07E0
07E0
07E0
07E0
07E0
07E0
07E0
07E0
07E0
07E0
07E0
07E0
07E0
ENDCHAR
STARTCHAR 01D0
ENCODING 464
SWIDTH 220 0
DWIDTH 11 0
BBX 16 32 -2 0
BITMAP
F81F
7C3E
7E7C
3E7C
1FF8
0FF0
0FE0
0000
0000
0000
07E0
07E0
07E0
07E0
07E0
07E0
07E0
07E0
07E0
07E0
07E0
07E0
07E0
07E0
07E0
07E0
07E0
07E0
07E0
07E0
07E0
07E0
ENDCHAR
STARTCHAR 01D1
ENCODING 465
SWIDTH 820 0
DWIDTH 41 0
BBX 37 46 2 -1
BITMAP
001F07C000
000F8F8000
0007CF8000
0007DF0000
0003FE0000
0001FC0000
0000000000
0000000000
0000000000
0000F80000
001FFFC000
007FFFF000
00FFFFF800
03FFFFFE00
07FFFFFF00
0FFE03FF80
1FF8007FC0
1FE0003FC0
3FC0001FE0
3F80000FF0
7F000007F0
7E000003F0
FE000003F8
FE000003F8
FC000001F8
FC000001F8
FC000001F8
FC000001F8
FC000001F8
FC000001F8
FC000001F8
FE000003F8
FE000003F8
7E000003F0
7F000007F0
3F80000FF0
3FC0001FE0
1FE0003FC0
1FF8007FC0
0FFE03FF80
07FFFFFF00
03FFFFFE00
00FFFFFC00
007FFFF000
000FFFC000
0000F80000
ENDCHAR
STARTCHAR 01D2
ENCODING 466
SWIDTH 820 0
DWIDTH 41 0
BBX 37 46 2 -1
BITMAP
001F07C000
000F8F8000
0007CF8000
0007DF0000
0003FE0000
0001FC0000
0000000000
0000000000
0000000000
0000F80000
001FFFC000
007FFFF000
00FFFFF800
03FFFFFE00
07FFFFFF00
0FFE03FF80
1FF8007FC0
1FE0003FC0
3FC0001FE0
3F80000FF0
7F000007F0
7E000003F0
FE000003F8
FE000003F8
FC000001F8
FC000001F8
FC000001F8
FC000001F8
FC000001F8
FC000001F8
FC000001F8
FE000003F8
FE000003F8
7E000003F0
7F000007F0
3F80000FF0
3FC0001FE0
1FE0003FC0
1FF8007FC0
0FFE03FF80
07FFFFFF00
03FFFFFE00
00FFFFFC00
007FFFF000
000FFFC000
0000F80000
ENDCHAR
STARTCHAR 01D3
ENCODING 467
SWIDTH 520 0
DWIDTH 26 0
BBX 22 46 2 -1
BITMAP
0F83E0
0FC7C0
07CF80
03FF80
01FF00
01FE00
000000
000000
000000
000000
FE00FC
FE00FC
FE00FC
FE00FC
FE00FC
FE00FC
FE00FC
FE00FC
FE00FC
FE00FC
FE00FC
FE00FC
FE00FC
FE00FC
FE00FC
FE00FC
FE00FC
FE00FC
FE00FC
FE00FC
FE00FC
FE00FC
FE00FC
FE00FC
FE00FC
FE00FC
FE00FC
7E01FC
7F01F8
7F87F8
3FFFF8
1FFFF0
1FFFE0
0FFFC0
03FF00
007C00
ENDCHAR
STARTCHAR 01D4
ENCODING 468
SWIDTH 520 0
DWIDTH 26 0
BBX 22 46 2 -1
BITMAP
0F83E0
0FC7C0
07CF80
03FF80
01FF00
01FE00
000000
000000
000000
000000
FE00FC
FE00FC
FE00FC
FE00FC
FE00FC
FE00FC
FE00FC
FE00FC
FE00FC
FE00FC
FE00FC
FE00FC
FE00FC
FE00FC
FE00FC
FE00FC
FE00FC
FE00FC
FE00FC
FE00FC
FE00FC
FE00FC
FE00FC
FE00FC
FE00FC
FE00FC
FE00FC
7E01FC
7F01F8
7F87F8
3FFFF8
1FFFF0
1FFFE0
0FFFC0
03FF00
007C00
ENDCHAR
STARTCHAR 02C6
ENCODING 710
SWIDTH 320 0
DWIDTH 16 0
BBX 16 7 0 38
BITMAP
07E0
0FF0
1FF8
1FFC
3E7C
7C3E
F81F
ENDCHAR
STARTCHAR 02C7
ENCODING 711
SWIDTH 320 0
DWIDTH 16 0
BBX 16 6 0 39
BITMAP
FC1F
7C3E
3E7C
1FF8
1FF8
0FF0
ENDCHAR
STARTCHAR 02D8
ENCODING 728
SWIDTH 280 0
DWIDTH 14 0
BBX 14 7 0 38
BITMAP
F03C
F03C
F83C
7EF8
3FF8
1FF0
0FC0
ENDCHAR
STARTCHAR 02D9
ENCODING 729
SWIDTH 160 0
DWIDTH 8 0
BBX 8 8 0 39
BITMAP
08
3E
7F
FF
FF
FF
7F
3E
ENDCHAR
STARTCHAR 02DA
ENCODING 730
SWIDTH 200 0
DWIDTH 10 0
BBX 10 10 0 38
BITMAP
1F00
7F80
7FC0
E1C0
E1C0
E1C0
E1C0
7FC0
7F80
1F00
ENDCHAR
STARTCHAR 02DB
ENCODING 731
SWIDTH 200 0
DWIDTH 10 0
BBX 11 11 0 -10
BITMAP
0780
3E00
7800
7000
F000
E000
F080
FBC0
7FE0
3FC0
0F00
ENDCHAR
STARTCHAR 02DC
ENCODING 732
SWIDTH 220 0
DWIDTH 11 0
BBX 12 5 0 40
BITMAP
3000
FF30
FFF0
FFF0
87F0
ENDCHAR
STARTCHAR 02DD
ENCODING 733
SWIDTH 320 0
DWIDTH 16 0
BBX 17 7 0 38
BITMAP
1F0F80
1E1F00
3E1E00
3C3C00
783C00
787800
F07000
ENDCHAR
STARTCHAR 0300
ENCODING 768
SWIDTH 0 0
DWIDTH 0 0
BBX 8 7 -8 38
BITMAP
F8
78
7C
3C
1E
1E
0F
ENDCHAR
STARTCHAR 0301
ENCODING 769
SWIDTH 0 0
DWIDTH 0 0
BBX 8 7 -8 38
BITMAP
1F
1E
3E
3C
78
70
F0
ENDCHAR
STARTCHAR 0302
ENCODING 770
SWIDTH 0 0
DWIDTH 0 0
BBX 16 7 -16 38
BITMAP
07E0
0FF0
1FF8
3FF8
3E7C
7C3E
F81F
ENDCHAR
STARTCHAR 0303
ENCODING 771
SWIDTH 0 0
DWIDTH 0 0
BBX 12 5 -12 40
BITMAP
3000
FF30
FFF0
FFF0
87F0
ENDCHAR
STARTCHAR 0304
ENCODING 772
SWIDTH 0 0
DWIDTH 0 0
BBX 14 5 -14 39
BITMAP
FFFC
FFFC
FFFC
FFFC
FFFC
ENDCHAR
STARTCHAR 0306
ENCODING 774
SWIDTH 0 0
DWIDTH 0 0
BBX 14 7 -14 38
BITMAP
F03C
F03C
F07C
7DF8
7FF0
3FE0
0FC0
ENDCHAR
STARTCHAR 0307
ENCODING 775
SWIDTH 0 0
DWIDTH 0 0
BBX 8 7 -8 40
BITMAP
7E
7F
FF
FF
FF
7F
3E
ENDCHAR
STARTCHAR 0308
ENCODING 776
SWIDTH 0 0
DWIDTH 0 0
BBX 20 8 -20 37
BITMAP
3E03E0
7F07F0
7F0FF0
FF0FF0
FF0FF0
7F07F0
3E07E0
1C0180
ENDCHAR
STARTCHAR 0309
ENCODING 777
SWIDTH 0 0
DWIDTH 0 0
BBX 5 9 -5 38
BITMAP
78
78
78
78
F0
F0
F0
F0
F0
ENDCHAR
STARTCHAR 030A
ENCODING 778
SWIDTH 0 0
DWIDTH 0 0
BBX 10 10 -10 38
BITMAP
1E00
7F80
FF80
E1C0
E1C0
E1C0
E1C0
FF80
7F80
3E00
ENDCHAR
STARTCHAR 030B
ENCODING 779
SWIDTH 0 0
DWIDTH 0 0
BBX 16 7 -16 38
BITMAP
1F1F
3E1E
3C3E
783C
7878
F070
E0F0
ENDCHAR
STARTCHAR 030C
ENCODING 780
SWIDTH 0 0
DWIDTH 0 0
BBX 16 6 -16 39
BITMAP
F83F
7C3E
3E7C
1FF8
1FF8
0FF0
ENDCHAR
STARTCHAR 031B
ENCODING 795
SWIDTH 0 0
DWIDTH 0 0
BBX 7 7 -7 33
BITMAP
1E
1E
1E
1E
3C
FC
F0
ENDCHAR
STARTCHAR 0323
ENCODING 803
SWIDTH 0 0
DWIDTH 0 0
BBX 8 8 -8 -14
BITMAP
7C
FE
FF
FF
FF
FF
7E
18
ENDCHAR
STARTCHAR 0326
ENCODING 806
SWIDTH 0 0
DWIDTH 0 0
BBX 8 8 -8 -11
BITMAP
1F
1E
3E
3C
7C
78
78
F0
ENDCHAR
STARTCHAR 0327
ENCODING 807
SWIDTH 0 0
DWIDTH 0 0
BBX 11 11 -11 -11
BITMAP
0700
0700
0780
07C0
01E0
00E0
60E0
F3E0
FFC0
7FC0
1F00
ENDCHAR
STARTCHAR 0328
ENCODING 808
SWIDTH 0 0
DWIDTH 0 0
BBX 11 11 -11 -10
BITMAP
0780
3E00
7800
7000
F000
E000
F080
FBC0
7FE0
3FC0
0F00
ENDCHAR
STARTCHAR 0335
ENCODING 821
SWIDTH 0 0
DWIDTH 0 0
BBX 17 5 -17 8
BITMAP
FFFF80
FFFF80
FFFF80
FFFF80
FFFF80
ENDCHAR
STARTCHAR 1EA0
ENCODING 7840
SWIDTH 560 0
DWIDTH 28 0
BBX 26 50 2 -14
BITMAP
007C0000
03FF8000
07FFC000
0FFFE000
1FFFF000
3FFFF800
3F87F800
7F01FC00
7F01FC00
7E00FC00
7E00FC00
7E00FC00
FE00FC00
FE00FC00
FE00FC00
FE00FC00
FE00FC00
FE00FC00
FE00FC00
FE00FC00
FE00FC00
FE00FC00
FE00FC00
FE00FC00
FE00FC00
FE00FC00
FE00FC00
FE00FC00
FE00FC00
FE00FC00
FFFFFFC0
FFFFFFC0
FFFFFFC0
FFFFFFC0
FFFFFFC0
FFFFFFC0
00000000
00000000
00000000
00000000
00000000
00000000
007C0000
00FE0000
00FE0000
00FF0000
00FF0000
00FE0000
007C0000
00100000
ENDCHAR
STARTCHAR 1EA1
ENCODING 7841
SWIDTH 560 0
DWIDTH 28 0
BBX 26 50 2 -14
BITMAP
007C0000
03FF8000
07FFC000
0FFFE000
1FFFF000
3FFFF800
3F87F800
7F01FC00
7F01FC00
7E00FC00
7E00FC00
7E00FC00
FE00FC00
FE00FC00
FE00FC00
FE00FC00
FE00FC00
FE00FC00
FE00FC00
FE00FC00
FE00FC00
FE00FC00
FE00FC00
FE00FC00
FE00FC00
FE00FC00
FE00FC00
FE00FC00
FE00FC00
FE00FC00
FFFFFFC0
FFFFFFC0
FFFFFFC0
FFFFFFC0
FFFFFFC0
FFFFFFC0
00000000
00000000
00000000
00000000
00000000
00000000
007C0000
00FE0000
00FE0000
00FF0000
00FF0000
00FE0000
007C0000
00100000
ENDCHAR
STARTCHAR 1EA2
ENCODING 7842
SWIDTH 560 0
DWIDTH 28 0
BBX 26 47 2 0
BITMAP
003C0000
003C0000
003C0000
00380000
00780000
00780000
00780000
00780000
00780000
00000000
00000000
007C0000
03FF8000
07FFC000
0FFFE000
1FFFF000
3FFFF800
3F87F800
7F01FC00
7F01FC00
7E00FC00
7E00FC00
7E00FC00
FE00FC00
FE00FC00
FE00FC00
FE00FC00
FE00FC00
FE00FC00
FE00FC00
FE00FC00
FE00FC00
FE00FC00
FE00FC00
FE00FC00
FE00FC00
FE00FC00
FE00FC00
FE00FC00
FE00FC00
FE00FC00
FFFFFFC0
FFFFFFC0
FFFFFFC0
FFFFFFC0
FFFFFFC0
FFFFFFC0
ENDCHAR
STARTCHAR 1EA3
ENCODING 7843
SWIDTH 560 0
DWIDTH 28 0
BBX 26 47 2 0
BITMAP
003C0000
003C0000
003C0000
00380000
00780000
00780000
00780000
00780000
00780000
00000000
00000000
007C0000
03FF8000
07FFC000
0FFFE000
1FFFF000
3FFFF800
3F87F800
7F01FC00
7F01FC00
7E00FC00
7E00FC00
7E00FC00
FE00FC00
FE00FC00
FE00FC00
FE00FC00
FE00FC00
FE00FC00
FE00FC00
FE00FC00
FE00FC00
FE00FC00
FE00FC00
FE00FC00
FE00FC00
FE00FC00
FE00FC00
FE00FC00
FE00FC00
FE00FC00
FFFFFFC0
FFFFFFC0
FFFFFFC0
FFFFFFC0
FFFFFFC0
FFFFFFC0
ENDCHAR
STARTCHAR 1EA4
ENCODING 7844
SWIDTH 560 0
DWIDTH 28 0
BBX 26 49 2 0
BITMAP
000007C0
00000F80
00000F00
00001E00
00FE1E00
01FF3C00
01FF0000
03EF8000
07C7C000
07C7C000
0F83E000
00000000
00000000
007C0000
03FF8000
07FFC000
0FFFE000
1FFFF000
3FFFF800
3F87F800
7F01FC00
7F01FC00
7E00FC00
7E00FC00
7E00FC00
FE00FC00
FE00FC00
FE00FC00
FE00FC00
FE00FC00
FE00FC00
FE00FC00
FE00FC00
FE00FC00
FE00FC00
FE00FC00
FE00FC00
FE00FC00
FE00FC00
FE00FC00
FE00FC00
FE00FC00
FE00FC00
FFFFFFC0
FFFFFFC0
FFFFFFC0
FFFFFFC0
FFFFFFC0
FFFFFFC0
ENDCHAR
STARTCHAR 1EA5
ENCODING 7845
SWIDTH 560 0
DWIDTH 28 0
BBX 26 49 2 0
BITMAP
000007C0
00000F80
00000F00
00001E00
00FE1E00
01FF3C00
01FF0000
03EF8000
07C7C000
07C7C000
0F83E000
00000000
00000000
007C0000
03FF8000
07FFC000
0FFFE000
1FFFF000
3FFFF800
3F87F800
7F01FC00
7F01FC00
7E00FC00
7E00FC00
7E00FC00
FE00FC00
FE00FC00
FE00FC00
FE00FC00
FE00FC00
FE00FC00
FE00FC00
FE00FC00
FE00FC00
FE00FC00
FE00FC00
FE00FC00
FE00FC00
FE00FC00
FE00FC00
FE00FC00
FE00FC00
FE00FC00
FFFFFFC0
FFFFFFC0
FFFFFFC0
FFFFFFC0
FFFFFFC0
FFFFFFC0
ENDCHAR
STARTCHAR 1EA6
ENCODING 7846
SWIDTH 560 0
DWIDTH 28 0
BBX 30 49 -2 0
BITMAP
F8000000
78000000
3C000000
3C000000
1E0FE000
0E1FE000
001FF000
003EF800
007C7C00
007C7C00
00F83E00
00000000
00000000
0007C000
003FF800
007FFC00
00FFFE00
01FFFF00
03FFFF80
03F87F80
07F01FC0
07F01FC0
07E00FC0
07E00FC0
07E00FC0
0FE00FC0
0FE00FC0
0FE00FC0
0FE00FC0
0FE00FC0
0FE00FC0
0FE00FC0
0FE00FC0
0FE00FC0
0FE00FC0
0FE00FC0
0FE00FC0
0FE00FC0
0FE00FC0
0FE00FC0
0FE00FC0
0FE00FC0
0FE00FC0
0FFFFFFC
0FFFFFFC
0FFFFFFC
0FFFFFFC
0FFFFFFC
0FFFFFFC
ENDCHAR
STARTCHAR 1EA7
ENCODING 7847
SWIDTH 560 0
DWIDTH 28 0
BBX 30 49 -2 0
BITMAP
F8000000
78000000
3C000000
3C000000
1E0FE000
0E1FE000
001FF000
003EF800
007C7C00
007C7C00
00F83E00
00000000
00000000
0007C000
003FF800
007FFC00
00FFFE00
01FFFF00
03FFFF80
03F87F80
07F01FC0
07F01FC0
07E00FC0
07E00FC0
07E00FC0
0FE00FC0
0FE00FC0
0FE00FC0
0FE00FC0
0FE00FC0
0FE00FC0
0FE00FC0
0FE00FC0
0FE00FC0
0FE00FC0
0FE00FC0
0FE00FC0
0FE00FC0
0FE00FC0
0FE00FC0
0FE00FC0
0FE00FC0
0FE00FC0
0FFFFFFC
0FFFFFFC
0FFFFFFC
0FFFFFFC
0FFFFFFC
0FFFFFFC
ENDCHAR
STARTCHAR 1EA8
ENCODING 7848
SWIDTH 560 0
DWIDTH 28 0
BBX 26 51 2 0
BITMAP
00001E00
00001E00
00001E00
00003C00
00003C00
00003C00
00FE3800
01FF3C00
01FF3C00
03EF8000
07C7C000
07C7C000
0F83E000
00000000
00000000
007C0000
03FF8000
07FFC000
0FFFE000
1FFFF000
3FFFF800
3F87F800
7F01FC00
7F01FC00
7E00FC00
7E00FC00
7E00FC00
FE00FC00
FE00FC00
FE00FC00
FE00FC00
FE00FC00
FE00FC00
FE00FC00
FE00FC00
FE00FC00
FE00FC00
FE00FC00
FE00FC00
FE00FC00
FE00FC00
FE00FC00
FE00FC00
FE00FC00
FE00FC00
FFFFFFC0
FFFFFFC0
FFFFFFC0
FFFFFFC0
FFFFFFC0
FFFFFFC0
ENDCHAR
STARTCHAR 1EA9
ENCODING 7849
SWIDTH 560 0
DWIDTH 28 0
BBX 26 51 2 0
BITMAP
00001E00
00001E00
00001E00
00003C00
00003C00
00003C00
00FE3800
01FF3C00
01FF3C00
03EF8000
07C7C000
07C7C000
0F83E000
00000000
00000000
007C0000
03FF8000
07FFC000
0FFFE000
1FFFF000
3FFFF800
3F87F800
7F01FC00
7F01FC00
7E00FC00
7E00FC00
7E00FC00
FE00FC00
FE00FC00
FE00FC00
FE00FC00
FE00FC00
FE00FC00
FE00FC00
FE00FC00
FE00FC00
FE00FC00
FE00FC00
FE00FC00
FE00FC00
FE00FC00
FE00FC00
FE00FC00
FE00FC00
FE00FC00
FFFFFFC0
FFFFFFC0
FFFFFFC0
FFFFFFC0
FFFFFFC0
FFFFFFC0
ENDCHAR
STARTCHAR 1EAA
ENCODING 7850
SWIDTH 560 0
DWIDTH 28 0
BBX 26 51 2 0
BITMAP
00060000
001FEE00
001FFE00
001FFE00
0010FE00
00000000
00FE0000
01FF0000
01FF0000
03EF8000
07C7C000
07C7C000
0F83E000
00000000
00000000
007C0000
03FF8000
07FFC000
0FFFE000
1FFFF000
3FFFF800
3F87F800
7F01FC00
7F01FC00
7E00FC00
7E00FC00
7E00FC00
FE00FC00
FE00FC00
FE00FC00
FE00FC00
FE00FC00
FE00FC00
FE00FC00
FE00FC00
FE00FC00
FE00FC00
FE00FC00
FE00FC00
FE00FC00
FE00FC00
FE00FC00
FE00FC00
FE00FC00
FE00FC00
FFFFFFC0
FFFFFFC0
FFFFFFC0
FFFFFFC0
FFFFFFC0
FFFFFFC0
ENDCHAR
STARTCHAR 1EAB
ENCODING 7851
SWIDTH 560 0
DWIDTH 28 0
BBX 26 51 2 0
BITMAP
00060000
001FEE00
001FFE00
001FFE00
0010FE00
00000000
00FE0000
01FF0000
01FF0000
03EF8000
07C7C000
07C7C000
0F83E000
00000000
00000000
007C0000
03FF8000
07FFC000
0FFFE000
1FFFF000
3FFFF800
3F87F800
7F01FC00
7F01FC00
7E00FC00
7E00FC00
7E00FC00
FE00FC00
FE00FC00
FE00FC00
FE00FC00
FE00FC00
FE00FC00
FE00FC00
FE00FC00
FE00FC00
FE00FC00
FE00FC00
FE00FC00
FE00FC00
FE00FC00
FE00FC00
FE00FC00
FE00FC00
FE00FC00
FFFFFFC0
FFFFFFC0
FFFFFFC0
FFFFFFC0
FFFFFFC0
FFFFFFC0
ENDCHAR
STARTCHAR 1EAC
ENCODING 7852
SWIDTH 560 0
DWIDTH 28 0
BBX 26 59 2 -14
BITMAP
00FE0000
01FF0000
01FF0000
03EF8000
07C7C000
07C7C000
0F83E000
00000000
00000000
007C0000
03FF8000
07FFC000
0FFFE000
1FFFF000
3FFFF800
3F87F800
7F01FC00
7F01FC00
7E00FC00
7E00FC00
7E00FC00
FE00FC00
FE00FC00
FE00FC00
FE00FC00
FE00FC00
FE00FC00
FE00FC00
FE00FC00
FE00FC00
FE00FC00
FE00FC00
FE00FC00
FE00FC00
FE00FC00
FE00FC00
FE00FC00
FE00FC00
FE00FC00
FFFFFFC0
FFFFFFC0
FFFFFFC0
FFFFFFC0
FFFFFFC0
FFFFFFC0
00000000
00000000
00000000
00000000
00000000
00000000
007C0000
00FE0000
00FE0000
00FF0000
00FF0000
00FE0000
007C0000
00100000
ENDCHAR
STARTCHAR 1EAD
ENCODING 7853
SWIDTH 560 0
DWIDTH 28 0
BBX 26 59 2 -14
BITMAP
00FE0000
01FF0000
01FF0000
03EF8000
07C7C000
07C7C000
0F83E000
00000000
00000000
007C0000
03FF8000
07FFC000
0FFFE000
1FFFF000
3FFFF800
3F87F800
7F01FC00
7F01FC00
7E00FC00
7E00FC00
7E00FC00
FE00FC00
FE00FC00
FE00FC00
FE00FC00
FE00FC00
FE00FC00
FE00FC00
FE00FC00
FE00FC00
FE00FC00
FE00FC00
FE00FC00
FE00FC00
FE00FC00
FE00FC00
FE00FC00
FE00FC00
FE00FC00
FFFFFFC0
FFFFFFC0
FFFFFFC0
FFFFFFC0
FFFFFFC0
FFFFFFC0
00000000
00000000
00000000
00000000
00000000
00000000
007C0000
00FE0000
00FE0000
00FF0000
00FF0000
00FE0000
007C0000
00100000
ENDCHAR
STARTCHAR 1EAE
ENCODING 7854
SWIDTH 560 0
DWIDTH 28 0
BBX 26 51 2 0
BITMAP
00078000
000F0000
000F0000
001E0000
001C0000
003C0000
0F01E000
0F01C000
0783C000
07EFC000
03FF8000
01FF0000
007C0000
00000000
00000000
007C0000
03FF8000
07FFC000
0FFFE000
1FFFF000
3FFFF800
3F87F800
7F01FC00
7F01FC00
7E00FC00
7E00FC00
7E00FC00
FE00FC00
FE00FC00
FE00FC00
FE00FC00
FE00FC00
FE00FC00
FE00FC00
FE00FC00
FE00FC00
FE00FC00
FE00FC00
FE00FC00
FE00FC00
FE00FC00
FE00FC00
FE00FC00
FE00FC00
FE00FC00
FFFFFFC0
FFFFFFC0
FFFFFFC0
FFFFFFC0
FFFFFFC0
FFFFFFC0
ENDCHAR
STARTCHAR 1EAF
ENCODING 7855
SWIDTH 560 0
DWIDTH 28 0
BBX 26 51 2 0
BITMAP
00078000
000F0000
000F0000
001E0000
001C0000
003C0000
0F01E000
0F01C000
0783C000
07EFC000
03FF8000
01FF0000
007C0000
00000000
00000000
007C0000
03FF8000
07FFC000
0FFFE000
1FFFF000
3FFFF800
3F87F800
7F01FC00
7F01FC00
7E00FC00
7E00FC00
7E00FC00
FE00FC00
FE00FC00
FE00FC00
FE00FC00
FE00FC00
FE00FC00
FE00FC00
FE00FC00
FE00FC00
FE00FC00
FE00FC00
FE00FC00
FE00FC00
FE00FC00
FE00FC00
FE00FC00
FE00FC00
FE00FC00
FFFFFFC0
FFFFFFC0
FFFFFFC0
FFFFFFC0
FFFFFFC0
FFFFFFC0
ENDCHAR
STARTCHAR 1EB0
ENCODING 7856
SWIDTH 560 0
DWIDTH 28 0
BBX 26 51 2 0
BITMAP
07C00000
03C00000
01E00000
01E00000
00F00000
00700000
0F01E000
0F01C000
0783C000
07EFC000
03FF8000
01FF0000
007C0000
00000000
00000000
007C0000
03FF8000
07FFC000
0FFFE000
1FFFF000
3FFFF800
3F87F800
7F01FC00
7F01FC00
7E00FC00
7E00FC00
7E00FC00
FE00FC00
FE00FC00
FE00FC00
FE00FC00
FE00FC00
FE00FC00
FE00FC00
FE00FC00
FE00FC00
FE00FC00
FE00FC00
FE00FC00
FE00FC00
FE00FC00
FE00FC00
FE00FC00
FE00FC00
FE00FC00
FFFFFFC0
FFFFFFC0
FFFFFFC0
FFFFFFC0
FFFFFFC0
FFFFFFC0
ENDCHAR
STARTCHAR 1EB1
ENCODING 7857
SWIDTH 560 0
DWIDTH 28 0
BBX 26 51 2 0
BITMAP
07C00000
03C00000
01E00000
01E00000
00F00000
00700000
0F01E000
0F01C000
0783C000
07EFC000
03FF8000
01FF0000
007C0000
00000000
00000000
007C0000
03FF8000
07FFC000
0FFFE000
1FFFF000
3FFFF800
3F87F800
7F01FC00
7F01FC00
7E00FC00
7E00FC00
7E00FC00
FE00FC00
FE00FC00
FE00FC00
FE00FC00
FE00FC00
FE00FC00
FE00FC00
FE00FC00
FE00FC00
FE00FC00
FE00FC00
FE00FC00
FE00FC00
FE00FC00
FE00FC00
FE00FC00
FE00FC00
FE00FC00
FFFFFFC0
FFFFFFC0
FFFFFFC0
FFFFFFC0
FFFFFFC0
FFFFFFC0
ENDCHAR
STARTCHAR 1EB2
ENCODING 7858
SWIDTH 560 0
DWIDTH 28 0
BBX 26 53 2 0
BITMAP
003C0000
003C0000
003C0000
003C0000
003C0000
00780000
00780000
00780000
0F39E000
0F01C000
0783C000
07EFC000
03FF8000
01FF0000
007C0000
00000000
00000000
007C0000
03FF8000
07FFC000
0FFFE000
1FFFF000
3FFFF800
3F87F800
7F01FC00
7F01FC00
7E00FC00
7E00FC00
7E00FC00
FE00FC00
FE00FC00
FE00FC00
FE00FC00
FE00FC00
FE00FC00
FE00FC00
FE00FC00
FE00FC00
FE00FC00
FE00FC00
FE00FC00
FE00FC00
FE00FC00
FE00FC00
FE00FC00
FE00FC00
FE00FC00
FFFFFFC0
FFFFFFC0
FFFFFFC0
FFFFFFC0
FFFFFFC0
FFFFFFC0
ENDCHAR
STARTCHAR 1EB3
ENCODING 7859
SWIDTH 560 0
DWIDTH 28 0
BBX 26 53 2 0
BITMAP
003C0000
003C0000
003C0000
003C0000
003C0000
00780000
00780000
00780000
0F39E000
0F01C000
0783C000
07EFC000
03FF8000
01FF0000
007C0000
00000000
00000000
007C0000
03FF8000
07FFC000
0FFFE000
1FFFF000
3FFFF800
3F87F800
7F01FC00
7F01FC00
7E00FC00
7E00FC00
7E00FC00
FE00FC00
FE00FC00
FE00FC00
FE00FC00
FE00FC00
FE00FC00
FE00FC00
FE00FC00
FE00FC00
FE00FC00
FE00FC00
FE00FC00
FE00FC00
FE00FC00
FE00FC00
FE00FC00
FE00FC00
FE00FC00
FFFFFFC0
FFFFFFC0
FFFFFFC0
FFFFFFC0
FFFFFFC0
FFFFFFC0
ENDCHAR
STARTCHAR 1EB4
ENCODING 7860
SWIDTH 560 0
DWIDTH 28 0
BBX 26 51 2 0
BITMAP
03E04000
03FFC000
03FFC000
03FFC000
000F8000
00000000
0F01E000
0F01C000
0783C000
07EFC000
03FF8000
01FF0000
007C0000
00000000
00000000
007C0000
03FF8000
07FFC000
0FFFE000
1FFFF000
3FFFF800
3F87F800
7F01FC00
7F01FC00
7E00FC00
7E00FC00
7E00FC00
FE00FC00
FE00FC00
FE00FC00
FE00FC00
FE00FC00
FE00FC00
FE00FC00
FE00FC00
FE00FC00
FE00FC00
FE00FC00
FE00FC00
FE00FC00
FE00FC00
FE00FC00
FE00FC00
FE00FC00
FE00FC00
FFFFFFC0
FFFFFFC0
FFFFFFC0
FFFFFFC0
FFFFFFC0
FFFFFFC0
ENDCHAR
STARTCHAR 1EB5
ENCODING 7861
SWIDTH 560 0
DWIDTH 28 0
BBX 26 51 2 0
BITMAP
03E04000
03FFC000
03FFC000
03FFC000
000F8000
00000000
0F01E000
0F01C000
0783C000
07EFC000
03FF8000
01FF0000
007C0000
00000000
00000000
007C0000
03FF8000
07FFC000
0FFFE000
1FFFF000
3FFFF800
3F87F800
7F01FC00
7F01FC00
7E00FC00
7E00FC00
7E00FC00
FE00FC00
FE00FC00
FE00FC00
FE00FC00
FE00FC00
FE00FC00
FE00FC00
FE00FC00
FE00FC00
FE00FC00
FE00FC00
FE00FC00
FE00FC00
FE00FC00
FE00FC00
FE00FC00
FE00FC00
FE00FC00
FFFFFFC0
FFFFFFC0
FFFFFFC0
FFFFFFC0
FFFFFFC0
FFFFFFC0
ENDCHAR
STARTCHAR 1EB6
ENCODING 7862
SWIDTH 560 0
DWIDTH 28 0
BBX 26 59 2 -14
BITMAP
0F01E000
0F01C000
0783C000
07EFC000
03FF8000
01FF0000
007C0000
00000000
00000000
007C0000
03FF8000
07FFC000
0FFFE000
1FFFF000
3FFFF800
3F87F800
7F01FC00
7F01FC00
7E00FC00
7E00FC00
7E00FC00
FE00FC00
FE00FC00
FE00FC00
FE00FC00
FE00FC00
FE00FC00
FE00FC00
FE00FC00
FE00FC00
FE00FC00
FE00FC00
FE00FC00
FE00FC00
FE00FC00
FE00FC00
FE00FC00
FE00FC00
FE00FC00
FFFFFFC0
FFFFFFC0
FFFFFFC0
FFFFFFC0
FFFFFFC0
FFFFFFC0
00000000
00000000
00000000
00000000
00000000
00000000
007C0000
00FE0000
00FE0000
00FF0000
00FF0000
00FE0000
007C0000
00100000
ENDCHAR
STARTCHAR 1EB7
ENCODING 7863
SWIDTH 560 0
DWIDTH 28 0
BBX 26 59 2 -14
BITMAP
0F01E000
0F01C000
0783C000
07EFC000
03FF8000
01FF0000
007C0000
00000000
00000000
007C0000
03FF8000
07FFC000
0FFFE000
1FFFF000
3FFFF800
3F87F800
7F01FC00
7F01FC00
7E00FC00
7E00FC00
7E00FC00
FE00FC00
FE00FC00
FE00FC00
FE00FC00
FE00FC00
FE00FC00
FE00FC00
FE00FC00
FE00FC00
FE00FC00
FE00FC00
FE00FC00
FE00FC00
FE00FC00
FE00FC00
FE00FC00
FE00FC00
FE00FC00
FFFFFFC0
FFFFFFC0
FFFFFFC0
FFFFFFC0
FFFFFFC0
FFFFFFC0
00000000
00000000
00000000
00000000
00000000
00000000
007C0000
00FE0000
00FE0000
00FF0000
00FF0000
00FE0000
007C0000
00100000
ENDCHAR
STARTCHAR 1EB8
ENCODING 7864
SWIDTH 500 0
DWIDTH 25 0
BBX 24 49 1 -14
BITMAP
1FFFC0
1FFFC0
1FFFC0
1FFFC0
1FFFC0
1FFFC0
1FC000
1FC000
1FC000
1FC000
1FC000
1FC000
1FC000
1FC000
FFFFF0
FFFFF0
FFFFF0
FFFFF0
FFFFF0
FFFFF0
1FC000
1FC000
1FC000
1FC000
1FC000
1FC000
1FC000
1FC000
1FC000
1FFFFF
1FFFFF
1FFFFF
1FFFFF
1FFFFF
1FFFFF
000000
000000
000000
000000
000000
000000
000F80
001FC0
003FC0
003FC0
003FC0
001FC0
001F80
000600
ENDCHAR
STARTCHAR 1EB9
ENCODING 7865
SWIDTH 500 0
DWIDTH 25 0
BBX 24 49 1 -14
BITMAP
1FFFC0
1FFFC0
1FFFC0
1FFFC0
1FFFC0
1FFFC0
1FC000
1FC000
1FC000
1FC000
1FC000
1FC000
1FC000
1FC000
FFFFF0
FFFFF0
FFFFF0
FFFFF0
FFFFF0
FFFFF0
1FC000
1FC000
1FC000
1FC000
1FC000
1FC000
1FC000
1FC000
1FC000
1FFFFF
1FFFFF
1FFFFF
1FFFFF
1FFFFF
1FFFFF
000000
000000
000000
000000
000000
000000
000F80
001FC0
003FC0
003FC0
003FC0
001FC0
001F80
000600
ENDCHAR
STARTCHAR 1EBA
ENCODING 7866
SWIDTH 500 0
DWIDTH 25 0
BBX 24 47 1 0
BITMAP
007800
007800
007800
007800
007000
00F000
00F000
00F000
007000
000000
000000
000000
1FFFC0
1FFFC0
1FFFC0
1FFFC0
1FFFC0
1FFFC0
1FC000
1FC000
1FC000
1FC000
1FC000
1FC000
1FC000
1FC000
FFFFF0
FFFFF0
FFFFF0
FFFFF0
FFFFF0
FFFFF0
1FC000
1FC000
1FC000
1FC000
1FC000
1FC000
1FC000
1FC000
1FC000
1FFFFF
1FFFFF
1FFFFF
1FFFFF
1FFFFF
1FFFFF
ENDCHAR
STARTCHAR 1EBB
ENCODING 7867
SWIDTH 500 0
DWIDTH 25 0
BBX 24 47 1 0
BITMAP
007800
007800
007800
007800
007000
00F000
00F000
00F000
007000
000000
000000
000000
1FFFC0
1FFFC0
1FFFC0
1FFFC0
1FFFC0
1FFFC0
1FC000
1FC000
1FC000
1FC000
1FC000
1FC000
1FC000
1FC000
FFFFF0
FFFFF0
FFFFF0
FFFFF0
FFFFF0
FFFFF0
1FC000
1FC000
1FC000
1FC000
1FC000
1FC000
1FC000
1FC000
1FC000
1FFFFF
1FFFFF
1FFFFF
1FFFFF
1FFFFF
1FFFFF
ENDCHAR
STARTCHAR 1EBC
ENCODING 7868
SWIDTH 500 0
DWIDTH 25 0
BBX 24 45 1 0
BITMAP
010000
0FF300
0FFF00
0FFF00
0C7F00
000000
000000
000000
000000
000000
1FFFC0
1FFFC0
1FFFC0
1FFFC0
1FFFC0
1FFFC0
1FC000
1FC000
1FC000
1FC000
1FC000
1FC000
1FC000
1FC000
FFFFF0
FFFFF0
FFFFF0
FFFFF0
FFFFF0
FFFFF0
1FC000
1FC000
1FC000
1FC000
1FC000
1FC000
1FC000
1FC000
1FC000
1FFFFF
1FFFFF
1FFFFF
1FFFFF
1FFFFF
1FFFFF
ENDCHAR
STARTCHAR 1EBD
ENCODING 7869
SWIDTH 500 0
DWIDTH 25 0
BBX 24 45 1 0
BITMAP
010000
0FF300
0FFF00
0FFF00
0C7F00
000000
000000
000000
000000
000000
1FFFC0
1FFFC0
1FFFC0
1FFFC0
1FFFC0
1FFFC0
1FC000
1FC000
1FC000
1FC000
1FC000
1FC000
1FC000
1FC000
FFFFF0
FFFFF0
FFFFF0
FFFFF0
FFFFF0
FFFFF0
1FC000
1FC000
1FC000
1FC000
1FC000
1FC000
1FC000
1FC000
1FC000
1FFFFF
1FFFFF
1FFFFF
1FFFFF
1FFFFF
1FFFFF
ENDCHAR
STARTCHAR 1EBE
ENCODING 7870
SWIDTH 500 0
DWIDTH 25 0
BBX 25 49 1 0
BITMAP
00000F80
00000F00
00001E00
00001E00
00FC3C00
01FE3800
03FF0000
07DF0000
07CF8000
0F87C000
1F07E000
00000000
00000000
00000000
1FFFC000
1FFFC000
1FFFC000
1FFFC000
1FFFC000
1FFFC000
1FC00000
1FC00000
1FC00000
1FC00000
1FC00000
1FC00000
1FC00000
1FC00000
FFFFF000
FFFFF000
FFFFF000
FFFFF000
FFFFF000
FFFFF000
1FC00000
1FC00000
1FC00000
1FC00000
1FC00000
1FC00000
1FC00000
1FC00000
1FC00000
1FFFFF00
1FFFFF00
1FFFFF00
1FFFFF00
1FFFFF00
1FFFFF00
ENDCHAR
STARTCHAR 1EBF
ENCODING 7871
SWIDTH 500 0
DWIDTH 25 0
BBX 25 49 1 0
BITMAP
00000F80
00000F00
00001E00
00001E00
00FC3C00
01FE3800
03FF0000
07DF0000
07CF8000
0F87C000
1F07E000
00000000
00000000
00000000
1FFFC000
1FFFC000
1FFFC000
1FFFC000
1FFFC000
1FFFC000
1FC00000
1FC00000
1FC00000
1FC00000
1FC00000
1FC00000
1FC00000
1FC00000
FFFFF000
FFFFF000
FFFFF000
FFFFF000
FFFFF000
FFFFF000
1FC00000
1FC00000
1FC00000
1FC00000
1FC00000
1FC00000
1FC00000
1FC00000
1FC00000
1FFFFF00
1FFFFF00
1FFFFF00
1FFFFF00
1FFFFF00
1FFFFF00
ENDCHAR
STARTCHAR 1EC0
ENCODING 7872
SWIDTH 500 0
DWIDTH 25 0
BBX 29 49 -4 0
BITMAP
F8000000
7C000000
3C000000
1E000000
1E07E000
0F0FF000
001FF800
003EF800
003E7C00
007C3E00
00F83F00
00000000
00000000
00000000
00FFFE00
00FFFE00
00FFFE00
00FFFE00
00FFFE00
00FFFE00
00FE0000
00FE0000
00FE0000
00FE0000
00FE0000
00FE0000
00FE0000
00FE0000
07FFFF80
07FFFF80
07FFFF80
07FFFF80
07FFFF80
07FFFF80
00FE0000
00FE0000
00FE0000
00FE0000
00FE0000
00FE0000
00FE0000
00FE0000
00FE0000
00FFFFF8
00FFFFF8
00FFFFF8
00FFFFF8
00FFFFF8
00FFFFF8
ENDCHAR
STARTCHAR 1EC1
ENCODING 7873
SWIDTH 500 0
DWIDTH 25 0
BBX 29 49 -4 0
BITMAP
F8000000
7C000000
3C000000
1E000000
1E07E000
0F0FF000
001FF800
003EF800
003E7C00
007C3E00
00F83F00
00000000
00000000
00000000
00FFFE00
00FFFE00
00FFFE00
00FFFE00
00FFFE00
00FFFE00
00FE0000
00FE0000
00FE0000
00FE0000
00FE0000
00FE0000
00FE0000
00FE0000
07FFFF80
07FFFF80
07FFFF80
07FFFF80
07FFFF80
07FFFF80
00FE0000
00FE0000
00FE0000
00FE0000
00FE0000
00FE0000
00FE0000
00FE0000
00FE0000
00FFFFF8
00FFFFF8
00FFFFF8
00FFFFF8
00FFFFF8
00FFFFF8
ENDCHAR
STARTCHAR 1EC2
ENCODING 7874
SWIDTH 500 0
DWIDTH 25 0
BBX 24 51 1 0
BITMAP
00003C
00003C
00003C
00003C
000078
000078
00FC78
01FE78
03FF38
07DF00
07CF80
0F87C0
1F07E0
000000
000000
000000
1FFFC0
1FFFC0
1FFFC0
1FFFC0
1FFFC0
1FFFC0
1FC000
1FC000
1FC000
1FC000
1FC000
1FC000
1FC000
1FC000
FFFFF0
FFFFF0
FFFFF0
FFFFF0
FFFFF0
FFFFF0
1FC000
1FC000
1FC000
1FC000
1FC000
1FC000
1FC000
1FC000
1FC000
1FFFFF
1FFFFF
1FFFFF
1FFFFF
1FFFFF
1FFFFF
ENDCHAR
STARTCHAR 1EC3
ENCODING 7875
SWIDTH 500 0
DWIDTH 25 0
BBX 24 51 1 0
BITMAP
00003C
00003C
00003C
00003C
000078
000078
00FC78
01FE78
03FF38
07DF00
07CF80
0F87C0
1F07E0
000000
000000
000000
1FFFC0
1FFFC0
1FFFC0
1FFFC0
1FFFC0
1FFFC0
1FC000
1FC000
1FC000
1FC000
1FC000
1FC000
1FC000
1FC000
FFFFF0
FFFFF0
FFFFF0
FFFFF0
FFFFF0
FFFFF0
1FC000
1FC000
1FC000
1FC000
1FC000
1FC000
1FC000
1FC000
1FC000
1FFFFF
1FFFFF
1FFFFF
1FFFFF
1FFFFF
1FFFFF
ENDCHAR
STARTCHAR 1EC4
ENCODING 7876
SWIDTH 500 0
DWIDTH 25 0
BBX 24 51 1 0
BITMAP
000E00
003FFC
003FFC
003FFC
0031FC
000000
00FC00
01FE00
03FF00
07DF00
07CF80
0F87C0
1F07E0
000000
000000
000000
1FFFC0
1FFFC0
1FFFC0
1FFFC0
1FFFC0
1FFFC0
1FC000
1FC000
1FC000
1FC000
1FC000
1FC000
1FC000
1FC000
FFFFF0
FFFFF0
FFFFF0
FFFFF0
FFFFF0
FFFFF0
1FC000
1FC000
1FC000
1FC000
1FC000
1FC000
1FC000
1FC000
1FC000
1FFFFF
1FFFFF
1FFFFF
1FFFFF
1FFFFF
1FFFFF
ENDCHAR
STARTCHAR 1EC5
ENCODING 7877
SWIDTH 500 0
DWIDTH 25 0
BBX 24 51 1 0
BITMAP
000E00
003FFC
003FFC
003FFC
0031FC
000000
00FC00
01FE00
03FF00
07DF00
07CF80
0F87C0
1F07E0
000000
000000
000000
1FFFC0
1FFFC0
1FFFC0
1FFFC0
1FFFC0
1FFFC0
1FC000
1FC000
1FC000
1FC000
1FC000
1FC000
1FC000
1FC000
FFFFF0
FFFFF0
FFFFF0
FFFFF0
FFFFF0
FFFFF0
1FC000
1FC000
1FC000
1FC000
1FC000
1FC000
1FC000
1FC000
1FC000
1FFFFF
1FFFFF
1FFFFF
1FFFFF
1FFFFF
1FFFFF
ENDCHAR
STARTCHAR 1EC6
ENCODING 7878
SWIDTH 500 0
DWIDTH 25 0
BBX 24 59 1 -14
BITMAP
00FC00
01FE00
03FF00
07DF00
07CF80
0F87C0
1F07E0
000000
000000
000000
1FFFC0
1FFFC0
1FFFC0
1FFFC0
1FFFC0
1FFFC0
1FC000
1FC000
1FC000
1FC000
1FC000
1FC000
1FC000
1FC000
FFFFF0
FFFFF0
FFFFF0
FFFFF0
FFFFF0
FFFFF0
1FC000
1FC000
1FC000
1FC000
1FC000
1FC000
1FC000
1FC000
1FC000
1FFFFF
1FFFFF
1FFFFF
1FFFFF
1FFFFF
1FFFFF
000000
000000
000000
000000
000000
000000
000F80
001FC0
003FC0
003FC0
003FC0
001FC0
001F80
000600
ENDCHAR
STARTCHAR 1EC7
ENCODING 7879
SWIDTH 500 0
DWIDTH 25 0
BBX 24 59 1 -14
BITMAP
00FC00
01FE00
03FF00
07DF00
07CF80
0F87C0
1F07E0
000000
000000
000000
1FFFC0
1FFFC0
1FFFC0
1FFFC0
1FFFC0
1FFFC0
1FC000
1FC000
1FC000
1FC000
1FC000
1FC000
1FC000
1FC000
FFFFF0
FFFFF0
FFFFF0
FFFFF0
FFFFF0
FFFFF0
1FC000
1FC000
1FC000
1FC000
1FC000
1FC000
1FC000
1FC000
1FC000
1FFFFF
1FFFFF
1FFFFF
1FFFFF
1FFFFF
1FFFFF
000000
000000
000000
000000
000000
000000
000F80
001FC0
003FC0
003FC0
003FC0
001FC0
001F80
000600
ENDCHAR
STARTCHAR 1EC8
ENCODING 7880
SWIDTH 220 0
DWIDTH 11 0
BBX 6 34 3 0
BITMAP
78
78
78
78
78
F0
F0
F0
70
78
00
00
FC
FC
FC
FC
FC
FC
FC
FC
FC
FC
FC
FC
FC
FC
FC
FC
FC
FC
FC
FC
FC
FC
ENDCHAR
STARTCHAR 1EC9
ENCODING 7881
SWIDTH 220 0
DWIDTH 11 0
BBX 6 34 3 0
BITMAP
78
78
78
78
78
F0
F0
F0
70
78
00
00
FC
FC
FC
FC
FC
FC
FC
FC
FC
FC
FC
FC
FC
FC
FC
FC
FC
FC
FC
FC
FC
FC
ENDCHAR
STARTCHAR 1ECA
ENCODING 7882
SWIDTH 220 0
DWIDTH 11 0
BBX 13 54 -1 -14
BITMAP
0200
0200
0300
0700
0700
FFF8
7FF0
3FE0
1FC0
1FC0
1FC0
18E0
3060
0000
0000
0000
0000
0000
1FC0
1FC0
1FC0
1FC0
1FC0
1FC0
1FC0
1FC0
1FC0
1FC0
1FC0
1FC0
1FC0
1FC0
1FC0
1FC0
1FC0
1FC0
1FC0
1FC0
1FC0
1FC0
0000
0000
0000
0000
0000
0000
0F80
1FC0
1FE0
1FE0
1FE0
1FC0
0FC0
0600
ENDCHAR
STARTCHAR 1ECB
ENCODING 7883
SWIDTH 220 0
DWIDTH 11 0
BBX 13 54 -1 -14
BITMAP
0200
0200
0300
0700
0700
FFF8
7FF0
3FE0
1FC0
1FC0
1FC0
18E0
3060
0000
0000
0000
0000
0000
1FC0
1FC0
1FC0
1FC0
1FC0
1FC0
1FC0
1FC0
1FC0
1FC0
1FC0
1FC0
1FC0
1FC0
1FC0
1FC0
1FC0
1FC0
1FC0
1FC0
1FC0
1FC0
0000
0000
0000
0000
0000
0000
0F80
1FC0
1FE0
1FE0
1FE0
1FC0
0FC0
0600
ENDCHAR
STARTCHAR 1ECC
ENCODING 7884
SWIDTH 820 0
DWIDTH 41 0
BBX 37 50 2 -14
BITMAP
0000F80000
001FFFC000
007FFFF000
00FFFFF800
03FFFFFE00
07FFFFFF00
0FFE03FF80
1FF8007FC0
1FE0003FC0
3FC0001FE0
3F80000FF0
7F000007F0
7E000003F0
FE000003F8
FE000003F8
FC000001F8
FC000001F8
FC000001F8
FC000001F8
FC000001F8
FC000001F8
FC000001F8
FE000003F8
FE000003F8
7E000003F0
7F000007F0
3F80000FF0
3FC0001FE0
1FE0003FC0
1FF8007FC0
0FFE03FF80
07FFFFFF00
03FFFFFE00
00FFFFFC00
007FFFF000
000FFFC000
0000F80000
0000000000
0000000000
0000000000
0000000000
0000000000
0000F80000
0001FC0000
0001FC0000
0001FE0000
0001FE0000
0001FC0000
0000F80000
0000200000
ENDCHAR
STARTCHAR 1ECD
ENCODING 7885
SWIDTH 820 0
DWIDTH 41 0
BBX 37 50 2 -14
BITMAP
0000F80000
001FFFC000
007FFFF000
00FFFFF800
03FFFFFE00
07FFFFFF00
0FFE03FF80
1FF8007FC0
1FE0003FC0
3FC0001FE0
3F80000FF0
7F000007F0
7E000003F0
FE000003F8
FE000003F8
FC000001F8
FC000001F8
FC000001F8
FC000001F8
FC000001F8
FC000001F8
FC000001F8
FE000003F8
FE000003F8
7E000003F0
7F000007F0
3F80000FF0
3FC0001FE0
1FE0003FC0
1FF8007FC0
0FFE03FF80
07FFFFFF00
03FFFFFE00
00FFFFFC00
007FFFF000
000FFFC000
0000F80000
0000000000
0000000000
0000000000
0000000000
0000000000
0000F80000
0001FC0000
0001FC0000
0001FE0000
0001FE0000
0001FC0000
0000F80000
0000200000
ENDCHAR
STARTCHAR 1ECE
ENCODING 7886
SWIDTH 820 0
DWIDTH 41 0
BBX 37 48 2 -1
BITMAP
0000780000
0000780000
0000780000
0000780000
0000F00000
0000F00000
0000F00000
0000F00000
0000F00000
0000000000
0000000000
0000F80000
001FFFC000
007FFFF000
00FFFFF800
03FFFFFE00
07FFFFFF00
0FFE03FF80
1FF8007FC0
1FE0003FC0
3FC0001FE0
3F80000FF0
7F000007F0
7E000003F0
FE000003F8
FE000003F8
FC000001F8
FC000001F8
FC000001F8
FC000001F8
FC000001F8
FC000001F8
FC000001F8
FE000003F8
FE000003F8
7E000003F0
7F000007F0
3F80000FF0
3FC0001FE0
1FE0003FC0
1FF8007FC0
0FFE03FF80
07FFFFFF00
03FFFFFE00
00FFFFFC00
007FFFF000
000FFFC000
0000F80000
ENDCHAR
STARTCHAR 1ECF
ENCODING 7887
SWIDTH 820 0
DWIDTH 41 0
BBX 37 48 2 -1
BITMAP
0000780000
0000780000
0000780000
0000780000
0000F00000
0000F00000
0000F00000
0000F00000
0000F00000
0000000000
0000000000
0000F80000
001FFFC000
007FFFF000
00FFFFF800
03FFFFFE00
07FFFFFF00
0FFE03FF80
1FF8007FC0
1FE0003FC0
3FC0001FE0
3F80000FF0
7F000007F0
7E000003F0
FE000003F8
FE000003F8
FC000001F8
FC000001F8
FC000001F8
FC000001F8
FC000001F8
FC000001F8
FC000001F8
FE000003F8
FE000003F8
7E000003F0
7F000007F0
3F80000FF0
3FC0001FE0
1FE0003FC0
1FF8007FC0
0FFE03FF80
07FFFFFF00
03FFFFFE00
00FFFFFC00
007FFFF000
000FFFC000
0000F80000
ENDCHAR
STARTCHAR 1ED0
ENCODING 7888
SWIDTH 820 0
DWIDTH 41 0
BBX 37 50 2 -1
BITMAP
0000000F80
0000001F00
0000001E00
0000003C00
0001FC3C00
0001FE7800
0003FE0000
0007DF0000
000F8F8000
000F8FC000
001F07C000
0000000000
0000000000
0000F80000
001FFFC000
007FFFF000
00FFFFF800
03FFFFFE00
07FFFFFF00
0FFE03FF80
1FF8007FC0
1FE0003FC0
3FC0001FE0
3F80000FF0
7F000007F0
7E000003F0
FE000003F8
FE000003F8
FC000001F8
FC000001F8
FC000001F8
FC000001F8
FC000001F8
FC000001F8
FC000001F8
FE000003F8
FE000003F8
7E000003F0
7F000007F0
3F80000FF0
3FC0001FE0
1FE0003FC0
1FF8007FC0
0FFE03FF80
07FFFFFF00
03FFFFFE00
00FFFFFC00
007FFFF000
000FFFC000
0000F80000
ENDCHAR
STARTCHAR 1ED1
ENCODING 7889
SWIDTH 820 0
DWIDTH 41 0
BBX 37 50 2 -1
BITMAP
0000000F80
0000001F00
0000001E00
0000003C00
0001FC3C00
0001FE7800
0003FE0000
0007DF0000
000F8F8000
000F8FC000
001F07C000
0000000000
0000000000
0000F80000
001FFFC000
007FFFF000
00FFFFF800
03FFFFFE00
07FFFFFF00
0FFE03FF80
1FF8007FC0
1FE0003FC0
3FC0001FE0
3F80000FF0
7F000007F0
7E000003F0
FE000003F8
FE000003F8
FC000001F8
FC000001F8
FC000001F8
FC000001F8
FC000001F8
FC000001F8
FC000001F8
FE000003F8
FE000003F8
7E000003F0
7F000007F0
3F80000FF0
3FC0001FE0
1FE0003FC0
1FF8007FC0
0FFE03FF80
07FFFFFF00
03FFFFFE00
00FFFFFC00
007FFFF000
000FFFC000
0000F80000
ENDCHAR
STARTCHAR 1ED2
ENCODING 7890
SWIDTH 820 0
DWIDTH 41 0
BBX 37 50 2 -1
BITMAP
1F00000000
0F00000000
0780000000
0780000000
03C1FC0000
01C1FE0000
0003FE0000
0007DF0000
000F8F8000
000F8FC000
001F07C000
0000000000
0000000000
0000F80000
001FFFC000
007FFFF000
00FFFFF800
03FFFFFE00
07FFFFFF00
0FFE03FF80
1FF8007FC0
1FE0003FC0
3FC0001FE0
3F80000FF0
7F000007F0
7E000003F0
FE000003F8
FE000003F8
FC000001F8
FC000001F8
FC000001F8
FC000001F8
FC000001F8
FC000001F8
FC000001F8
FE000003F8
FE000003F8
7E000003F0
7F000007F0
3F80000FF0
3FC0001FE0
1FE0003FC0
1FF8007FC0
0FFE03FF80
07FFFFFF00
03FFFFFE00
00FFFFFC00
007FFFF000
000FFFC000
0000F80000
ENDCHAR
STARTCHAR 1ED3
ENCODING 7891
SWIDTH 820 0
DWIDTH 41 0
BBX 37 50 2 -1
BITMAP
1F00000000
0F00000000
0780000000
0780000000
03C1FC0000
01C1FE0000
0003FE0000
0007DF0000
000F8F8000
000F8FC000
001F07C000
0000000000
0000000000
0000F80000
001FFFC000
007FFFF000
00FFFFF800
03FFFFFE00
07FFFFFF00
0FFE03FF80
1FF8007FC0
1FE0003FC0
3FC0001FE0
3F80000FF0
7F000007F0
7E000003F0
FE000003F8
FE000003F8
FC000001F8
FC000001F8
FC000001F8
FC000001F8
FC000001F8
FC000001F8
FC000001F8
FE000003F8
FE000003F8
7E000003F0
7F000007F0
3F80000FF0
3FC0001FE0
1FE0003FC0
1FF8007FC0
0FFE03FF80
07FFFFFF00
03FFFFFE00
00FFFFFC00
007FFFF000
000FFFC000
0000F80000
ENDCHAR
STARTCHAR 1ED4
ENCODING 7892
SWIDTH 820 0
DWIDTH 41 0
BBX 37 52 2 -1
BITMAP
0000003C00
0000003C00
0000003C00
0000003800
0000007800
0000007800
0001FC7800
0001FE7800
0003FE7800
0007DF0000
000F8F8000
000F8FC000
001F07C000
0000000000
0000000000
0000F80000
001FFFC000
007FFFF000
00FFFFF800
03FFFFFE00
07FFFFFF00
0FFE03FF80
1FF8007FC0
1FE0003FC0
3FC0001FE0
3F80000FF0
7F000007F0
7E000003F0
FE000003F8
FE000003F8
FC000001F8
FC000001F8
FC000001F8
FC000001F8
FC000001F8
FC000001F8
FC000001F8
FE000003F8
FE000003F8
7E000003F0
7F000007F0
3F80000FF0
3FC0001FE0
1FE0003FC0
1FF8007FC0
0FFE03FF80
07FFFFFF00
03FFFFFE00
00FFFFFC00
007FFFF000
000FFFC000
0000F80000
ENDCHAR
STARTCHAR 1ED5
ENCODING 7893
SWIDTH 820 0
DWIDTH 41 0
BBX 37 52 2 -1
BITMAP
0000003C00
0000003C00
0000003C00
0000003800
0000007800
0000007800
0001FC7800
0001FE7800
0003FE7800
0007DF0000
000F8F8000
000F8FC000
001F07C000
0000000000
0000000000
0000F80000
001FFFC000
007FFFF000
00FFFFF800
03FFFFFE00
07FFFFFF00
0FFE03FF80
1FF8007FC0
1FE0003FC0
3FC0001FE0
3F80000FF0
7F000007F0
7E000003F0
FE000003F8
FE000003F8
FC000001F8
FC000001F8
FC000001F8
FC000001F8
FC000001F8
FC000001F8
FC000001F8
FE000003F8
FE000003F8
7E000003F0
7F000007F0
3F80000FF0
3FC0001FE0
1FE0003FC0
1FF8007FC0
0FFE03FF80
07FFFFFF00
03FFFFFE00
00FFFFFC00
007FFFF000
000FFFC000
0000F80000
ENDCHAR
STARTCHAR 1ED6
ENCODING 7894
SWIDTH 820 0
DWIDTH 41 0
BBX 37 52 2 -1
BITMAP
00000C0000
00003FDC00
00003FFC00
00003FFC00
000021FC00
0000000000
0001FC0000
0001FE0000
0003FE0000
0007DF0000
000F8F8000
000F8FC000
001F07C000
0000000000
0000000000
0000F80000
001FFFC000
007FFFF000
00FFFFF800
03FFFFFE00
07FFFFFF00
0FFE03FF80
1FF8007FC0
1FE0003FC0
3FC0001FE0
3F80000FF0
7F000007F0
7E000003F0
FE000003F8
FE000003F8
FC000001F8
FC000001F8
FC000001F8
FC000001F8
FC000001F8
FC000001F8
FC000001F8
FE000003F8
FE000003F8
7E000003F0
7F000007F0
3F80000FF0
3FC0001FE0
1FE0003FC0
1FF8007FC0
0FFE03FF80
07FFFFFF00
03FFFFFE00
00FFFFFC00
007FFFF000
000FFFC000
0000F80000
ENDCHAR
STARTCHAR 1ED7
ENCODING 7895
SWIDTH 820 0
DWIDTH 41 0
BBX 37 52 2 -1
BITMAP
00000C0000
00003FDC00
00003FFC00
00003FFC00
000021FC00
0000000000
0001FC0000
0001FE0000
0003FE0000
0007DF0000
000F8F8000
000F8FC000
001F07C000
0000000000
0000000000
0000F80000
001FFFC000
007FFFF000
00FFFFF800
03FFFFFE00
07FFFFFF00
0FFE03FF80
1FF8007FC0
1FE0003FC0
3FC0001FE0
3F80000FF0
7F000007F0
7E000003F0
FE000003F8
FE000003F8
FC000001F8
FC000001F8
FC000001F8
FC000001F8
FC000001F8
FC000001F8
FC000001F8
FE000003F8
FE000003F8
7E000003F0
7F000007F0
3F80000FF0
3FC0001FE0
1FE0003FC0
1FF8007FC0
0FFE03FF80
07FFFFFF00
03FFFFFE00
00FFFFFC00
007FFFF000
000FFFC000
0000F80000
ENDCHAR
STARTCHAR 1ED8
ENCODING 7896
SWIDTH 820 0
DWIDTH 41 0
BBX 37 59 2 -14
BITMAP
0001FC0000
0001FE0000
0003FE0000
0007DF0000
000F8F8000
000F8FC000
001F07C000
0000000000
0000000000
0000F80000
001FFFC000
007FFFF000
00FFFFF800
03FFFFFE00
07FFFFFF00
0FFE03FF80
1FF8007FC0
1FE0003FC0
3FC0001FE0
3F80000FF0
7F000007F0
7E000003F0
FE000003F8
FE000003F8
FC000001F8
FC000001F8
FC000001F8
FC000001F8
FC000001F8
FC000001F8
FC000001F8
FE000003F8
FE000003F8
7E000003F0
7F000007F0
3F80000FF0
3FC0001FE0
1FE0003FC0
1FF8007FC0
0FFE03FF80
07FFFFFF00
03FFFFFE00
00FFFFFC00
007FFFF000
000FFFC000
0000F80000
0000000000
0000000000
0000000000
0000000000
0000000000
0000F80000
0001FC0000
0001FC0000
0001FE0000
0001FE0000
0001FC0000
0000F80000
0000200000
ENDCHAR
STARTCHAR 1ED9
ENCODING 7897
SWIDTH 820 0
DWIDTH 41 0
BBX 37 59 2 -14
BITMAP
0001FC0000
0001FE0000
0003FE0000
0007DF0000
000F8F8000
000F8FC000
001F07C000
0000000000
0000000000
0000F80000
001FFFC000
007FFFF000
00FFFFF800
03FFFFFE00
07FFFFFF00
0FFE03FF80
1FF8007FC0
1FE0003FC0
3FC0001FE0
3F80000FF0
7F000007F0
7E000003F0
FE000003F8
FE000003F8
FC000001F8
FC000001F8
FC000001F8
FC000001F8
FC000001F8
FC000001F8
FC000001F8
FE000003F8
FE000003F8
7E000003F0
7F000007F0
3F80000FF0
3FC0001FE0
1FE0003FC0
1FF8007FC0
0FFE03FF80
07FFFFFF00
03FFFFFE00
00FFFFFC00
007FFFF000
000FFFC000
0000F80000
0000000000
0000000000
0000000000
0000000000
0000000000
0000F80000
0001FC0000
0001FC0000
0001FE0000
0001FE0000
0001FC0000
0000F80000
0000200000
ENDCHAR
STARTCHAR 1EDA
ENCODING 7898
SWIDTH 820 0
DWIDTH 41 0
BBX 37 46 2 -1
BITMAP
00001F0000
00001F0000
00003E0000
00003C0000
0000780000
00007801E0
0000F001E0
00000003E0
00000003C0
0000F807C0
001FFFCF80
007FFFFF00
00FFFFFC00
03FFFFFE00
07FFFFFF00
0FFE03FF80
1FF8007FC0
1FE0003FC0
3FC0001FE0
3F80000FF0
7F000007F0
7E000003F0
FE000003F8
FE000003F8
FC000001F8
FC000001F8
FC000001F8
FC000001F8
FC000001F8
FC000001F8
FC000001F8
FE000003F8
FE000003F8
7E000003F0
7F000007F0
3F80000FF0
3FC0001FE0
1FE0003FC0
1FF8007FC0
0FFE03FF80
07FFFFFF00
03FFFFFE00
00FFFFFC00
007FFFF000
000FFFC000
0000F80000
ENDCHAR
STARTCHAR 1EDB
ENCODING 7899
SWIDTH 820 0
DWIDTH 41 0
BBX 37 46 2 -1
BITMAP
00001F0000
00001F0000
00003E0000
00003C0000
0000780000
00007801E0
0000F001E0
00000003E0
00000003C0
0000F807C0
001FFFCF80
007FFFFF00
00FFFFFC00
03FFFFFE00
07FFFFFF00
0FFE03FF80
1FF8007FC0
1FE0003FC0
3FC0001FE0
3F80000FF0
7F000007F0
7E000003F0
FE000003F8
FE000003F8
FC000001F8
FC000001F8
FC000001F8
FC000001F8
FC000001F8
FC000001F8
FC000001F8
FE000003F8
FE000003F8
7E000003F0
7F000007F0
3F80000FF0
3FC0001FE0
1FE0003FC0
1FF8007FC0
0FFE03FF80
07FFFFFF00
03FFFFFE00
00FFFFFC00
007FFFF000
000FFFC000
0000F80000
ENDCHAR
STARTCHAR 1EDC
ENCODING 7900
SWIDTH 820 0
DWIDTH 41 0
BBX 37 46 2 -1
BITMAP
0007C00000
0003C00000
0003E00000
0001E00000
0000F00000
00007001E0
00007801E0
00000003E0
00000003C0
0000F807C0
001FFFCF80
007FFFFF00
00FFFFFC00
03FFFFFE00
07FFFFFF00
0FFE03FF80
1FF8007FC0
1FE0003FC0
3FC0001FE0
3F80000FF0
7F000007F0
7E000003F0
FE000003F8
FE000003F8
FC000001F8
FC000001F8
FC000001F8
FC000001F8
FC000001F8
FC000001F8
FC000001F8
FE000003F8
FE000003F8
7E000003F0
7F000007F0
3F80000FF0
3FC0001FE0
1FE0003FC0
1FF8007FC0
0FFE03FF80
07FFFFFF00
03FFFFFE00
00FFFFFC00
007FFFF000
000FFFC000
0000F80000
ENDCHAR
STARTCHAR 1EDD
ENCODING 7901
SWIDTH 820 0
DWIDTH 41 0
BBX 37 46 2 -1
BITMAP
0007C00000
0003C00000
0003E00000
0001E00000
0000F00000
00007001E0
00007801E0
00000003E0
00000003C0
0000F807C0
001FFFCF80
007FFFFF00
00FFFFFC00
03FFFFFE00
07FFFFFF00
0FFE03FF80
1FF8007FC0
1FE0003FC0
3FC0001FE0
3F80000FF0
7F000007F0
7E000003F0
FE000003F8
FE000003F8
FC000001F8
FC000001F8
FC000001F8
FC000001F8
FC000001F8
FC000001F8
FC000001F8
FE000003F8
FE000003F8
7E000003F0
7F000007F0
3F80000FF0
3FC0001FE0
1FE0003FC0
1FF8007FC0
0FFE03FF80
07FFFFFF00
03FFFFFE00
00FFFFFC00
007FFFF000
000FFFC000
0000F80000
ENDCHAR
STARTCHAR 1EDE
ENCODING 7902
SWIDTH 820 0
DWIDTH 41 0
BBX 37 48 2 -1
BITMAP
0000780000
0000780000
0000780000
0000780000
0000F00000
0000F00000
0000F00000
0000F001E0
0000F001E0
00000003E0
00000003C0
0000F807C0
001FFFCF80
007FFFFF00
00FFFFFC00
03FFFFFE00
07FFFFFF00
0FFE03FF80
1FF8007FC0
1FE0003FC0
3FC0001FE0
3F80000FF0
7F000007F0
7E000003F0
FE000003F8
FE000003F8
FC000001F8
FC000001F8
FC000001F8
FC000001F8
FC000001F8
FC000001F8
FC000001F8
FE000003F8
FE000003F8
7E000003F0
7F000007F0
3F80000FF0
3FC0001FE0
1FE0003FC0
1FF8007FC0
0FFE03FF80
07FFFFFF00
03FFFFFE00
00FFFFFC00
007FFFF000
000FFFC000
0000F80000
ENDCHAR
STARTCHAR 1EDF
ENCODING 7903
SWIDTH 820 0
DWIDTH 41 0
BBX 37 48 2 -1
BITMAP
0000780000
0000780000
0000780000
0000780000
0000F00000
0000F00000
0000F00000
0000F001E0
0000F001E0
00000003E0
00000003C0
0000F807C0
001FFFCF80
007FFFFF00
00FFFFFC00
03FFFFFE00
07FFFFFF00
0FFE03FF80
1FF8007FC0
1FE0003FC0
3FC0001FE0
3F80000FF0
7F000007F0
7E000003F0
FE000003F8
FE000003F8
FC000001F8
FC000001F8
FC000001F8
FC000001F8
FC000001F8
FC000001F8
FC000001F8
FE000003F8
FE000003F8
7E000003F0
7F000007F0
3F80000FF0
3FC0001FE0
1FE0003FC0
1FF8007FC0
0FFE03FF80
07FFFFFF00
03FFFFFE00
00FFFFFC00
007FFFF000
000FFFC000
0000F80000
ENDCHAR
STARTCHAR 1EE0
ENCODING 7904
SWIDTH 820 0
DWIDTH 41 0
BBX 37 46 2 -1
BITMAP
0003000000
000FF70000
000FFF0000
000FFF0000
00087F0000
00000001E0
00000001E0
00000003E0
00000003C0
0000F807C0
001FFFCF80
007FFFFF00
00FFFFFC00
03FFFFFE00
07FFFFFF00
0FFE03FF80
1FF8007FC0
1FE0003FC0
3FC0001FE0
3F80000FF0
7F000007F0
7E000003F0
FE000003F8
FE000003F8
FC000001F8
FC000001F8
FC000001F8
FC000001F8
FC000001F8
FC000001F8
FC000001F8
FE000003F8
FE000003F8
7E000003F0
7F000007F0
3F80000FF0
3FC0001FE0
1FE0003FC0
1FF8007FC0
0FFE03FF80
07FFFFFF00
03FFFFFE00
00FFFFFC00
007FFFF000
000FFFC000
0000F80000
ENDCHAR
STARTCHAR 1EE1
ENCODING 7905
SWIDTH 820 0
DWIDTH 41 0
BBX 37 46 2 -1
BITMAP
0003000000
000FF70000
000FFF0000
000FFF0000
00087F0000
00000001E0
00000001E0
00000003E0
00000003C0
0000F807C0
001FFFCF80
007FFFFF00
00FFFFFC00
03FFFFFE00
07FFFFFF00
0FFE03FF80
1FF8007FC0
1FE0003FC0
3FC0001FE0
3F80000FF0
7F000007F0
7E000003F0
FE000003F8
FE000003F8
FC000001F8
FC000001F8
FC000001F8
FC000001F8
FC000001F8
FC000001F8
FC000001F8
FE000003F8
FE000003F8
7E000003F0
7F000007F0
3F80000FF0
3FC0001FE0
1FE0003FC0
1FF8007FC0
0FFE03FF80
07FFFFFF00
03FFFFFE00
00FFFFFC00
007FFFF000
000FFFC000
0000F80000
ENDCHAR
STARTCHAR 1EE2
ENCODING 7906
SWIDTH 820 0
DWIDTH 41 0
BBX 37 54 2 -14
BITMAP
00000001E0
00000001E0
00000003E0
00000003C0
0000F807C0
001FFFCF80
007FFFFF00
00FFFFFC00
03FFFFFE00
07FFFFFF00
0FFE03FF80
1FF8007FC0
1FE0003FC0
3FC0001FE0
3F80000FF0
7F000007F0
7E000003F0
FE000003F8
FE000003F8
FC000001F8
FC000001F8
FC000001F8
FC000001F8
FC000001F8
FC000001F8
FC000001F8
FE000003F8
FE000003F8
7E000003F0
7F000007F0
3F80000FF0
3FC0001FE0
1FE0003FC0
1FF8007FC0
0FFE03FF80
07FFFFFF00
03FFFFFE00
00FFFFFC00
007FFFF000
000FFFC000
0000F80000
0000000000
0000000000
0000000000
0000000000
0000000000
0000F80000
0001FC0000
0001FC0000
0001FE0000
0001FE0000
0001FC0000
0000F80000
0000200000
ENDCHAR
STARTCHAR 1EE3
ENCODING 7907
SWIDTH 820 0
DWIDTH 41 0
BBX 37 54 2 -14
BITMAP
00000001E0
00000001E0
00000003E0
00000003C0
0000F807C0
001FFFCF80
007FFFFF00
00FFFFFC00
03FFFFFE00
07FFFFFF00
0FFE03FF80
1FF8007FC0
1FE0003FC0
3FC0001FE0
3F80000FF0
7F000007F0
7E000003F0
FE000003F8
FE000003F8
FC000001F8
FC000001F8
FC000001F8
FC000001F8
FC000001F8
FC000001F8
FC000001F8
FE000003F8
FE000003F8
7E000003F0
7F000007F0
3F80000FF0
3FC0001FE0
1FE0003FC0
1FF8007FC0
0FFE03FF80
07FFFFFF00
03FFFFFE00
00FFFFFC00
007FFFF000
000FFFC000
0000F80000
0000000000
0000000000
0000000000
0000000000
0000000000
0000F80000
0001FC0000
0001FC0000
0001FE0000
0001FE0000
0001FC0000
0000F80000
0000200000
ENDCHAR
STARTCHAR 1EE4
ENCODING 7908
SWIDTH 520 0
DWIDTH 26 0
BBX 22 49 2 -14
BITMAP
FE00FC
FE00FC
FE00FC
FE00FC
FE00FC
FE00FC
FE00FC
FE00FC
FE00FC
FE00FC
FE00FC
FE00FC
FE00FC
FE00FC
FE00FC
FE00FC
FE00FC
FE00FC
FE00FC
FE00FC
FE00FC
FE00FC
FE00FC
FE00FC
FE00FC
FE00FC
FE00FC
7E01FC
7F01F8
7F87F8
3FFFF8
1FFFF0
1FFFE0
0FFFC0
03FF00
007C00
000000
000000
000000
000000
000000
007C00
00FE00
01FE00
01FE00
01FE00
00FE00
00FC00
003000
ENDCHAR
STARTCHAR 1EE5
ENCODING 7909
SWIDTH 520 0
DWIDTH 26 0
BBX 22 49 2 -14
BITMAP
FE00FC
FE00FC
FE00FC
FE00FC
FE00FC
FE00FC
FE00FC
FE00FC
FE00FC
FE00FC
FE00FC
FE00FC
FE00FC
FE00FC
FE00FC
FE00FC
FE00FC
FE00FC
FE00FC
FE00FC
FE00FC
FE00FC
FE00FC
FE00FC
FE00FC
FE00FC
FE00FC
7E01FC
7F01F8
7F87F8
3FFFF8
1FFFF0
1FFFE0
0FFFC0
03FF00
007C00
000000
000000
000000
000000
000000
007C00
00FE00
01FE00
01FE00
01FE00
00FE00
00FC00
003000
ENDCHAR
STARTCHAR 1EE6
ENCODING 7910
SWIDTH 520 0
DWIDTH 26 0
BBX 22 48 2 -1
BITMAP
003800
003C00
003C00
007800
007800
007000
007000
007000
007800
000000
000000
000000
FE00FC
FE00FC
FE00FC
FE00FC
FE00FC
FE00FC
FE00FC
FE00FC
FE00FC
FE00FC
FE00FC
FE00FC
FE00FC
FE00FC
FE00FC
FE00FC
FE00FC
FE00FC
FE00FC
FE00FC
FE00FC
FE00FC
FE00FC
FE00FC
FE00FC
FE00FC
FE00FC
7E01FC
7F01F8
7F87F8
3FFFF8
1FFFF0
1FFFE0
0FFFC0
03FF00
007C00
ENDCHAR
STARTCHAR 1EE7
ENCODING 7911
SWIDTH 520 0
DWIDTH 26 0
BBX 22 48 2 -1
BITMAP
003800
003C00
003C00
007800
007800
007000
007000
007000
007800
000000
000000
000000
FE00FC
FE00FC
FE00FC
FE00FC
FE00FC
FE00FC
FE00FC
FE00FC
FE00FC
FE00FC
FE00FC
FE00FC
FE00FC
FE00FC
FE00FC
FE00FC
FE00FC
FE00FC
FE00FC
FE00FC
FE00FC
FE00FC
FE00FC
FE00FC
FE00FC
FE00FC
FE00FC
7E01FC
7F01F8
7F87F8
3FFFF8
1FFFF0
1FFFE0
0FFFC0
03FF00
007C00
ENDCHAR
STARTCHAR 1EE8
ENCODING 7912
SWIDTH 520 0
DWIDTH 26 0
BBX 26 46 2 -1
BITMAP
000F8000
000F0000
001F0000
001E0000
003C0000
003801C0
007801C0
000003C0
000003C0
00000380
FE00FF80
FE00FF00
FE00FC00
FE00FC00
FE00FC00
FE00FC00
FE00FC00
FE00FC00
FE00FC00
FE00FC00
FE00FC00
FE00FC00
FE00FC00
FE00FC00
FE00FC00
FE00FC00
FE00FC00
FE00FC00
FE00FC00
FE00FC00
FE00FC00
FE00FC00
FE00FC00
FE00FC00
FE00FC00
FE00FC00
FE00FC00
7E01FC00
7F01F800
7F87F800
3FFFF800
1FFFF000
1FFFE000
0FFFC000
03FF0000
007C0000
ENDCHAR
STARTCHAR 1EE9
ENCODING 7913
SWIDTH 520 0
DWIDTH 26 0
BBX 26 46 2 -1
BITMAP
000F8000
000F0000
001F0000
001E0000
003C0000
003801C0
007801C0
000003C0
000003C0
00000380
FE00FF80
FE00FF00
FE00FC00
FE00FC00
FE00FC00
FE00FC00
FE00FC00
FE00FC00
FE00FC00
FE00FC00
FE00FC00
FE00FC00
FE00FC00
FE00FC00
FE00FC00
FE00FC00
FE00FC00
FE00FC00
FE00FC00
FE00FC00
FE00FC00
FE00FC00
FE00FC00
FE00FC00
FE00FC00
FE00FC00
FE00FC00
7E01FC00
7F01F800
7F87F800
3FFFF800
1FFFF000
1FFFE000
0FFFC000
03FF0000
007C0000
ENDCHAR
STARTCHAR 1EEA
ENCODING 7914
SWIDTH 520 0
DWIDTH 26 0
BBX 26 46 2 -1
BITMAP
03C00000
03E00000
01E00000
00F00000
00F00000
007801C0
003801C0
000003C0
000003C0
00000380
FE00FF80
FE00FF00
FE00FC00
FE00FC00
FE00FC00
FE00FC00
FE00FC00
FE00FC00
FE00FC00
FE00FC00
FE00FC00
FE00FC00
FE00FC00
FE00FC00
FE00FC00
FE00FC00
FE00FC00
FE00FC00
FE00FC00
FE00FC00
FE00FC00
FE00FC00
FE00FC00
FE00FC00
FE00FC00
FE00FC00
FE00FC00
7E01FC00
7F01F800
7F87F800
3FFFF800
1FFFF000
1FFFE000
0FFFC000
03FF0000
007C0000
ENDCHAR
STARTCHAR 1EEB
ENCODING 7915
SWIDTH 520 0
DWIDTH 26 0
BBX 26 46 2 -1
BITMAP
03C00000
03E00000
01E00000
00F00000
00F00000
007801C0
003801C0
000003C0
000003C0
00000380
FE00FF80
FE00FF00
FE00FC00
FE00FC00
FE00FC00
FE00FC00
FE00FC00
FE00FC00
FE00FC00
FE00FC00
FE00FC00
FE00FC00
FE00FC00
FE00FC00
FE00FC00
FE00FC00
FE00FC00
FE00FC00
FE00FC00
FE00FC00
FE00FC00
FE00FC00
FE00FC00
FE00FC00
FE00FC00
FE00FC00
FE00FC00
7E01FC00
7F01F800
7F87F800
3FFFF800
1FFFF000
1FFFE000
0FFFC000
03FF0000
007C0000
ENDCHAR
STARTCHAR 1EEC
ENCODING 7916
SWIDTH 520 0
DWIDTH 26 0
BBX 26 48 2 -1
BITMAP
00380000
003C0000
003C0000
00780000
00780000
00700000
00700000
007001C0
007801C0
000003C0
000003C0
00000380
FE00FF80
FE00FF00
FE00FC00
FE00FC00
FE00FC00
FE00FC00
FE00FC00
FE00FC00
FE00FC00
FE00FC00
FE00FC00
FE00FC00
FE00FC00
FE00FC00
FE00FC00
FE00FC00
FE00FC00
FE00FC00
FE00FC00
FE00FC00
FE00FC00
FE00FC00
FE00FC00
FE00FC00
FE00FC00
FE00FC00
FE00FC00
7E01FC00
7F01F800
7F87F800
3FFFF800
1FFFF000
1FFFE000
0FFFC000
03FF0000
007C0000
ENDCHAR
STARTCHAR 1EED
ENCODING 7917
SWIDTH 520 0
DWIDTH 26 0
BBX 26 48 2 -1
BITMAP
00380000
003C0000
003C0000
00780000
00780000
00700000
00700000
007001C0
007801C0
000003C0
000003C0
00000380
FE00FF80
FE00FF00
FE00FC00
FE00FC00
FE00FC00
FE00FC00
FE00FC00
FE00FC00
FE00FC00
FE00FC00
FE00FC00
FE00FC00
FE00FC00
FE00FC00
FE00FC00
FE00FC00
FE00FC00
FE00FC00
FE00FC00
FE00FC00
FE00FC00
FE00FC00
FE00FC00
FE00FC00
FE00FC00
FE00FC00
FE00FC00
7E01FC00
7F01F800
7F87F800
3FFFF800
1FFFF000
1FFFE000
0FFFC000
03FF0000
007C0000
ENDCHAR
STARTCHAR 1EEE
ENCODING 7918
SWIDTH 520 0
DWIDTH 26 0
BBX 26 46 2 -1
BITMAP
01000000
07FB8000
07FF8000
07FF8000
047F8000
000001C0
000001C0
000003C0
000003C0
00000380
FE00FF80
FE00FF00
FE00FC00
FE00FC00
FE00FC00
FE00FC00
FE00FC00
FE00FC00
FE00FC00
FE00FC00
FE00FC00
FE00FC00
FE00FC00
FE00FC00
FE00FC00
FE00FC00
FE00FC00
FE00FC00
FE00FC00
FE00FC00
FE00FC00
FE00FC00
FE00FC00
FE00FC00
FE00FC00
FE00FC00
FE00FC00
7E01FC00
7F01F800
7F87F800
3FFFF800
1FFFF000
1FFFE000
0FFFC000
03FF0000
007C0000
ENDCHAR
STARTCHAR 1EEF
ENCODING 7919
SWIDTH 520 0
DWIDTH 26 0
BBX 26 46 2 -1
BITMAP
01000000
07FB8000
07FF8000
07FF8000
047F8000
000001C0
000001C0
000003C0
000003C0
00000380
FE00FF80
FE00FF00
FE00FC00
FE00FC00
FE00FC00
FE00FC00
FE00FC00
FE00FC00
FE00FC00
FE00FC00
FE00FC00
FE00FC00
FE00FC00
FE00FC00
FE00FC00
FE00FC00
FE00FC00
FE00FC00
FE00FC00
FE00FC00
FE00FC00
FE00FC00
FE00FC00
FE00FC00
FE00FC00
FE00FC00
FE00FC00
7E01FC00
7F01F800
7F87F800
3FFFF800
1FFFF000
1FFFE000
0FFFC000
03FF0000
007C0000
ENDCHAR
STARTCHAR 1EF0
ENCODING 7920
SWIDTH 520 0
DWIDTH 26 0
BBX 26 54 2 -14
BITMAP
000001C0
000001C0
000003C0
000003C0
00000380
FE00FF80
FE00FF00
FE00FC00
FE00FC00
FE00FC00
FE00FC00
FE00FC00
FE00FC00
FE00FC00
FE00FC00
FE00FC00
FE00FC00
FE00FC00
FE00FC00
FE00FC00
FE00FC00
FE00FC00
FE00FC00
FE00FC00
FE00FC00
FE00FC00
FE00FC00
FE00FC00
FE00FC00
FE00FC00
FE00FC00
FE00FC00
7E01FC00
7F01F800
7F87F800
3FFFF800
1FFFF000
1FFFE000
0FFFC000
03FF0000
007C0000
00000000
00000000
00000000
00000000
00000000
007C0000
00FE0000
01FE0000
01FE0000
01FE0000
00FE0000
00FC0000
00300000
ENDCHAR
STARTCHAR 1EF1
ENCODING 7921
SWIDTH 520 0
DWIDTH 26 0
BBX 26 54 2 -14
BITMAP
000001C0
000001C0
000003C0
000003C0
00000380
FE00FF80
FE00FF00
FE00FC00
FE00FC00
FE00FC00
FE00FC00
FE00FC00
FE00FC00
FE00FC00
FE00FC00
FE00FC00
FE00FC00
FE00FC00
FE00FC00
FE00FC00
FE00FC00
FE00FC00
FE00FC00
FE00FC00
FE00FC00
FE00FC00
FE00FC00
FE00FC00
FE00FC00
FE00FC00
FE00FC00
FE00FC00
7E01FC00
7F01F800
7F87F800
3FFFF800
1FFFF000
1FFFE000
0FFFC000
03FF0000
007C0000
00000000
00000000
00000000
00000000
00000000
007C0000
00FE0000
01FE0000
01FE0000
01FE0000
00FE0000
00FC0000
00300000
ENDCHAR
STARTCHAR 1EF2
ENCODING 7922
SWIDTH 500 0
DWIDTH 25 0
BBX 22 45 2 0
BITMAP
07C000
03E000
01E000
01F000
00F000
007800
003800
000000
000000
000000
FC00FC
FC00FC
FC00FC
FC00FC
FC00FC
FC00FC
FC00FC
FC00FC
FC00FC
FC00FC
FC00FC
FC00FC
FC00FC
FC00FC
FC00FC
FC00FC
FC00FC
FE01FC
FE01FC
7E03F8
7F87F8
7FFFF0
3FFFF0
1FFFE0
0FFFC0
07FF80
01FC00
00FC00
00FC00
00FC00
00FC00
00FC00
00FC00
00FC00
00FC00
ENDCHAR
STARTCHAR 1EF3
ENCODING 7923
SWIDTH 500 0
DWIDTH 25 0
BBX 22 45 2 0
BITMAP
07C000
03E000
01E000
01F000
00F000
007800
003800
000000
000000
000000
FC00FC
FC00FC
FC00FC
FC00FC
FC00FC
FC00FC
FC00FC
FC00FC
FC00FC
FC00FC
FC00FC
FC00FC
FC00FC
FC00FC
FC00FC
FC00FC
FC00FC
FE01FC
FE01FC
7E03F8
7F87F8
7FFFF0
3FFFF0
1FFFE0
0FFFC0
07FF80
01FC00
00FC00
00FC00
00FC00
00FC00
00FC00
00FC00
00FC00
00FC00
ENDCHAR
STARTCHAR 1EF4
ENCODING 7924
SWIDTH 500 0
DWIDTH 25 0
BBX 22 49 2 -14
BITMAP
FC00FC
FC00FC
FC00FC
FC00FC
FC00FC
FC00FC
FC00FC
FC00FC
FC00FC
FC00FC
FC00FC
FC00FC
FC00FC
FC00FC
FC00FC
FC00FC
FC00FC
FE01FC
FE01FC
7E03F8
7F87F8
7FFFF0
3FFFF0
1FFFE0
0FFFC0
07FF80
01FC00
00FC00
00FC00
00FC00
00FC00
00FC00
00FC00
00FC00
00FC00
000000
000000
000000
000000
000000
000000
00F800
00FC00
01FE00
01FE00
01FE00
01FE00
00FC00
003000
ENDCHAR
STARTCHAR 1EF5
ENCODING 7925
SWIDTH 500 0
DWIDTH 25 0
BBX 22 49 2 -14
BITMAP
FC00FC
FC00FC
FC00FC
FC00FC
FC00FC
FC00FC
FC00FC
FC00FC
FC00FC
FC00FC
FC00FC
FC00FC
FC00FC
FC00FC
FC00FC
FC00FC
FC00FC
FE01FC
FE01FC
7E03F8
7F87F8
7FFFF0
3FFFF0
1FFFE0
0FFFC0
07FF80
01FC00
00FC00
00FC00
00FC00
00FC00
00FC00
00FC00
00FC00
00FC00
000000
000000
000000
000000
000000
000000
00F800
00FC00
01FE00
01FE00
01FE00
01FE00
00FC00
003000
ENDCHAR
STARTCHAR 1EF6
ENCODING 7926
SWIDTH 500 0
DWIDTH 25 0
BBX 22 47 2 0
BITMAP
007800
003800
007800
007800
007800
00F000
00F000
00F000
007800
000000
000000
000000
FC00FC
FC00FC
FC00FC
FC00FC
FC00FC
FC00FC
FC00FC
FC00FC
FC00FC
FC00FC
FC00FC
FC00FC
FC00FC
FC00FC
FC00FC
FC00FC
FC00FC
FE01FC
FE01FC
7E03F8
7F87F8
7FFFF0
3FFFF0
1FFFE0
0FFFC0
07FF80
01FC00
00FC00
00FC00
00FC00
00FC00
00FC00
00FC00
00FC00
00FC00
ENDCHAR
STARTCHAR 1EF7
ENCODING 7927
SWIDTH 500 0
DWIDTH 25 0
BBX 22 47 2 0
BITMAP
007800
003800
007800
007800
007800
00F000
00F000
00F000
007800
000000
000000
000000
FC00FC
FC00FC
FC00FC
FC00FC
FC00FC
FC00FC
FC00FC
FC00FC
FC00FC
FC00FC
FC00FC
FC00FC
FC00FC
FC00FC
FC00FC
FC00FC
FC00FC
FE01FC
FE01FC
7E03F8
7F87F8
7FFFF0
3FFFF0
1FFFE0
0FFFC0
07FF80
01FC00
00FC00
00FC00
00FC00
00FC00
00FC00
00FC00
00FC00
00FC00
ENDCHAR
STARTCHAR 1EF8
ENCODING 7928
SWIDTH 500 0
DWIDTH 25 0
BBX 22 45 2 0
BITMAP
030000
0FF300
0FFF00
0FFF00
0C7F00
000000
000000
000000
000000
000000
FC00FC
FC00FC
FC00FC
FC00FC
FC00FC
FC00FC
FC00FC
FC00FC
FC00FC
FC00FC
FC00FC
FC00FC
FC00FC
FC00FC
FC00FC
FC00FC
FC00FC
FE01FC
FE01FC
7E03F8
7F87F8
7FFFF0
3FFFF0
1FFFE0
0FFFC0
07FF80
01FC00
00FC00
00FC00
00FC00
00FC00
00FC00
00FC00
00FC00
00FC00
ENDCHAR
STARTCHAR 1EF9
ENCODING 7929
SWIDTH 500 0
DWIDTH 25 0
BBX 22 45 2 0
BITMAP
030000
0FF300
0FFF00
0FFF00
0C7F00
000000
000000
000000
000000
000000
FC00FC
FC00FC
FC00FC
FC00FC
FC00FC
FC00FC
FC00FC
FC00FC
FC00FC
FC00FC
FC00FC
FC00FC
FC00FC
FC00FC
FC00FC
FC00FC
FC00FC
FE01FC
FE01FC
7E03F8
7F87F8
7FFFF0
3FFFF0
1FFFE0
0FFFC0
07FF80
01FC00
00FC00
00FC00
00FC00
00FC00
00FC00
00FC00
00FC00
00FC00
ENDCHAR
STARTCHAR 2013
ENCODING 8211
SWIDTH 560 0
DWIDTH 28 0
BBX 23 4 3 11
BITMAP
FFFFFE
FFFFFE
FFFFFE
FFFFFE
ENDCHAR
STARTCHAR 2014
ENCODING 8212
SWIDTH 820 0
DWIDTH 41 0
BBX 36 4 3 11
BITMAP
FFFFFFFFF0
FFFFFFFFF0
FFFFFFFFF0
FFFFFFFFF0
ENDCHAR
STARTCHAR 2018
ENCODING 8216
SWIDTH 240 0
DWIDTH 12 0
BBX 7 10 3 25
BITMAP
1E
1E
3C
3C
3C
7C
7C
78
F8
F8
ENDCHAR
STARTCHAR 2019
ENCODING 8217
SWIDTH 240 0
DWIDTH 12 0
BBX 7 10 3 25
BITMAP
3E
7C
7C
7C
78
78
F8
F0
F0
E0
ENDCHAR
STARTCHAR 201A
ENCODING 8218
SWIDTH 240 0
DWIDTH 12 0
BBX 7 10 3 -6
BITMAP
3E
7C
7C
7C
78
78
F8
F0
F0
E0
ENDCHAR
STARTCHAR 201C
ENCODING 8220
SWIDTH 420 0
DWIDTH 21 0
BBX 16 10 3 25
BITMAP
1E0F
1E0F
1E1E
3C1E
3C1E
3C3E
7C3E
7C3C
F87C
F87C
ENDCHAR
STARTCHAR 201D
ENCODING 8221
SWIDTH 420 0
DWIDTH 21 0
BBX 16 10 3 25
BITMAP
3E3F
7C3E
7C3E
7C3C
783C
787C
F878
F078
F078
E070
ENDCHAR
STARTCHAR 201E
ENCODING 8222
SWIDTH 440 0
DWIDTH 22 0
BBX 17 10 3 -6
BITMAP
3E1F80
7C1F00
7C1F00
7C1E00
781E00
783E00
F83C00
F03C00
F03C00
E03800
ENDCHAR
STARTCHAR 2020
ENCODING 8224
SWIDTH 420 0
DWIDTH 21 0
BBX 16 25 3 11
BITMAP
03C0
03C0
03C0
03C0
03C0
FFFF
FFFF
FFFF
FFFF
03C0
03C0
03C0
03C0
03C0
03C0
03C0
03C0
03C0
03C0
03C0
03C0
03C0
03C0
03C0
03C0
ENDCHAR
STARTCHAR 2021
ENCODING 8225
SWIDTH 420 0
DWIDTH 21 0
BBX 16 25 3 11
BITMAP
03C0
03C0
03C0
03C0
03C0
FFFF
FFFF
FFFF
FFFF
03C0
03C0
03C0
03C0
03C0
03C0
FFFF
FFFF
FFFF
FFFF
FFFF
03C0
03C0
03C0
03C0
03C0
ENDCHAR
STARTCHAR 2022
ENCODING 8226
SWIDTH 320 0
DWIDTH 16 0
BBX 11 11 3 9
BITMAP
0400
3F80
7FC0
FFC0
FFE0
FFE0
FFE0
FFE0
FFC0
7FC0
3F80
ENDCHAR
STARTCHAR 2026
ENCODING 8230
SWIDTH 700 0
DWIDTH 35 0
BBX 30 8 3 -1
BITMAP
7C0F80F8
FE0FC1FC
FF1FE3FC
FF1FE3FC
FF1FE3FC
FE1FE3FC
7E0FC1F8
18030060
ENDCHAR
STARTCHAR 2030
ENCODING 8240
SWIDTH 1340 0
DWIDTH 67 0
BBX 61 37 3 -1
BITMAP
03E0000000000000
0FF80007C0000000
1FFE0007C0000000
3FFF000F80000000
7FFF001F00000000
FC1F801F00000000
F80F803E00000000
F80FC07C00000000
F807C07800000000
F807C0F800000000
F80FC1F000000000
FC0F83E000000000
7E1F83E000000000
7FFF07C000000000
3FFF0F8000000000
1FFE0F8000000000
07F81F0000000000
00003E0000000000
00003C0000000000
00007C0780003C00
0000F81FF000FF80
0001F07FF803FFC0
0001F0FFFC07FFE0
0003E0FFFE07FFF0
0007C1F83F0FC1F8
0007C1F01F0F80F8
000F81F01F0F80F8
001F03E01F1F00F8
001E03E01F1F00F8
003E01F01F0F80F8
007C01F03F0F81F8
00F801F87F0FC3F8
00F800FFFE07FFF0
01F000FFFC07FFE0
03E0007FF803FFC0
03E0001FF000FF80
0000000180000C00
ENDCHAR
STARTCHAR 2039
ENCODING 8249
SWIDTH 380 0
DWIDTH 19 0
BBX 14 22 3 4
BITMAP
01F8
01F0
03F0
07E0
0FC0
0F80
1F80
3F00
7E00
7C00
FC00
FC00
7E00
3F00
1F00
1F80
0FC0
07E0
03E0
03F0
01F8
00FC
ENDCHAR
STARTCHAR 203A
ENCODING 8250
SWIDTH 380 0
DWIDTH 19 0
BBX 14 22 3 4
BITMAP
FC00
7E00
3F00
1F80
1F80
0FC0
07E0
03E0
03F0
01F8
00FC
00F8
01F8
03F0
07E0
07C0
0F80
1F80
3F00
3E00
7C00
FC00
ENDCHAR
STARTCHAR 2044
ENCODING 8260
SWIDTH 680 0
DWIDTH 34 0
BBX 29 35 3 0
BITMAP
000000F8
000001F0
000003E0
000003C0
000007C0
00000F80
00001F00
00001F00
00003E00
00007C00
00007C00
0000F800
0001F000
0001E000
0003E000
0007C000
000F8000
000F8000
001F0000
003E0000
003E0000
007C0000
00F80000
00F00000
01F00000
03E00000
07C00000
07C00000
0F800000
1F000000
1F000000
3E000000
7C000000
78000000
F8000000
ENDCHAR
STARTCHAR 20AC
ENCODING 8364
SWIDTH 640 0
DWIDTH 32 0
BBX 27 37 3 -1
BITMAP
00000F00
0000FFE0
0003FFE0
000FFFE0
001FFFE0
007FFFE0
007FF8E0
00FF8000
01FE0000
03FC0000
03F80000
07F00000
07F00000
FFFFFE00
FFFFFE00
FFFFFE00
FFFFFE00
0FE00000
0FE00000
0FE00000
FFFFFE00
FFFFFE00
FFFFFE00
FFFFFE00
07F00000
07F00000
03F80000
03FC0000
01FE0000
00FF8000
007FFCE0
003FFFE0
001FFFE0
000FFFE0
0003FFE0
0000FFE0
00000780
ENDCHAR
STARTCHAR 2122
ENCODING 8482
SWIDTH 820 0
DWIDTH 41 0
BBX 36 20 3 16
BITMAP
FFF8010000
FFFE0181F0
FFFF01E1F0
FFFFC1F1F0
FFFFE1FDF0
0F07F9FFF0
0F03FDFFF0
0F03FFFFF0
0F03FFEFF0
0F03DFE3F0
0F03C7E1F0
0F03C3E1F0
0F03C1E1F0
0F03C1E1F0
0F03C1E1F0
0F03C1E1F0
0F03C1E1F0
0F03C1E1F0
0F03C1E1F0
0F03C1E1F0
ENDCHAR
STARTCHAR 2190
ENCODING 8592
SWIDTH 820 0
DWIDTH 41 0
BBX 36 26 3 5
BITMAP
0008000000
001C000000
003E000000
007F000000
00FE000000
01FC000000
03F8000000
07F0000000
0FE0000000
1FC0000000
3FFFFFFFF0
7FFFFFFFF0
FFFFFFFFF0
FFFFFFFFF0
7FFFFFFFF0
3F80000000
1FC0000000
0FE0000000
07F0000000
03F8000000
01FC000000
00FE000000
007F000000
003E000000
001C000000
0008000000
ENDCHAR
STARTCHAR 2191
ENCODING 8593
SWIDTH 600 0
DWIDTH 30 0
BBX 25 36 3 0
BITMAP
00080000
001C0000
003E0000
007F0000
00FF8000
01FFC000
03FFE000
07FFF000
0FFFF800
1FBFFC00
3F3EFE00
7E3E7F00
FC3E3F80
783E1F00
303E0E00
003E0400
003E0000
003E0000
003E0000
003E0000
003E0000
003E0000
003E0000
003E0000
003E0000
003E0000
003E0000
003E0000
003E0000
003E0000
003E0000
003E0000
003E0000
003E0000
003E0000
003E0000
ENDCHAR
STARTCHAR 2192
ENCODING 8594
SWIDTH 820 0
DWIDTH 41 0
BBX 35 24 3 6
BITMAP
0000030000
0000078000
00000FC000
000007E000
000003F000
000001F800
000000FC00
0000007E00
0000003F00
FFFFFFFF80
FFFFFFFFC0
FFFFFFFFE0
FFFFFFFFE0
FFFFFFFFC0
FFC0001F80
0000003F00
0000007E00
000000FC00
000001F800
000003F000
000007E000
00000FC000
0000078000
0000030000
ENDCHAR
STARTCHAR 2193
ENCODING 8595
SWIDTH 600 0
DWIDTH 30 0
BBX 25 36 3 -1
BITMAP
003E0000
003E0000
003E0000
003E0000
003E0000
003E0000
003E0000
003E0000
003E0000
003E0000
003E0000
003E0000
003E0000
003E0000
003E0000
003E0000
003E0000
003E0000
003E0000
003E0000
103E0400
383E0E00
7C3E1F00
FE3E3F80
7F3E7F00
3FBEFE00
1FFFFC00
0FFFF800
07FFF000
03FFE000
01FFC000
00FF8000
007F0000
003E0000
001C0000
00080000
ENDCHAR
STARTCHAR 2194
ENCODING 8596
SWIDTH 920 0
DWIDTH 46 0
BBX 40 26 3 5
BITMAP
0008000000
001C001800
003E003C00
007F007E00
00FE003F00
01FC001F80
03F8000FC0
07F00007E0
0FE00003F0
1FC00001F8
3FFFFFFFFC
7FFFFFFFFE
FFFFFFFFFF
FFFFFFFFFF
7FFFFFFFFE
3F800000FC
1FC00001F8
0FE00003F0
07F00007E0
03F8000FC0
01FC001F80
00FE003F00
007F007E00
003E003C00
001C001800
0008000000
ENDCHAR
STARTCHAR 2195
ENCODING 8597
SWIDTH 660 0
DWIDTH 33 0
BBX 28 37 3 -1
BITMAP
00040000
000F0000
001F8000
007FC000
00FFF000
01FFF800
03FFFC00
0FFFFE00
1FDF7F80
3F9F1FC0
FF1F0FE0
FE1F07F0
781F03E0
301F00C0
201F0000
001F0000
001F0000
001F0000
001F0000
001F0000
001F0000
001F0000
201F0000
301F00C0
781F03E0
FE1F07F0
FF1F0FE0
3F9F3FC0
1FDF7F80
0FFFFE00
03FFFC00
01FFF800
00FFF000
007FC000
001F8000
000F0000
00040000
ENDCHAR
STARTCHAR 2196
ENCODING 8598
SWIDTH 640 0
DWIDTH 32 0
BBX 27 27 3 3
BITMAP
FFFFC000
FFFFC000
FFFFC000
FFFFC000
FFFFC000
FF800000
FFC00000
FFE00000
F7F00000
F3F80000
F1FC0000
F0FE0000
F0FF0000
F07F8000
F03FC000
F01FE000
F00FF000
F007F800
0003FC00
0001FE00
0000FF00
00007F80
00003FC0
00001FE0
00000FC0
00000780
00000300
ENDCHAR
STARTCHAR 2197
ENCODING 8599
SWIDTH 640 0
DWIDTH 32 0
BBX 27 28 3 3
BITMAP
007FFFE0
007FFFE0
007FFFE0
007FFFE0
007FFFE0
00003FE0
00007FE0
0000FFE0
0001FDE0
0003F9E0
0007F1E0
000FE1E0
001FC1E0
003F81E0
007F01E0
00FE01E0
01FC01E0
03F801E0
07F80000
0FF00000
1FE00000
3FC00000
7F800000
FF000000
FE000000
7C000000
38000000
10000000
ENDCHAR
STARTCHAR 2198
ENCODING 8600
SWIDTH 640 0
DWIDTH 32 0
BBX 27 28 3 3
BITMAP
10000000
38000000
7C000000
FE000000
FF000000
7F800000
3FC00000
1FE00000
0FF00000
07F80000
03FC01E0
01FE01E0
00FF01E0
007F81E0
003FC1E0
001FE1E0
000FF1E0
0007F9E0
0003FDE0
0001FFE0
0000FFE0
00007FE0
00003FE0
007FFFE0
007FFFE0
007FFFE0
007FFFE0
007FFFE0
ENDCHAR
STARTCHAR 2199
ENCODING 8601
SWIDTH 640 0
DWIDTH 32 0
BBX 27 28 3 3
BITMAP
00000100
00000380
000007C0
00000FE0
00001FE0
00003FC0
00007F80
0000FF00
0001FE00
0003FC00
F007F800
F00FF000
F01FE000
F03FC000
F07F8000
F0FF0000
F1FE0000
F3FC0000
F7F80000
FFF00000
FFC00000
FF800000
FF000000
FFFFC000
FFFFC000
FFFFC000
FFFFC000
FFFFC000
ENDCHAR
STARTCHAR 2202
ENCODING 8706
SWIDTH 600 0
DWIDTH 30 0
BBX 24 38 3 0
BITMAP
01C000
01F000
03FC00
03FE00
07FF00
03FF80
00FFC0
003FE0
001FF0
000FF8
0007F8
0003FC
0001FC
0000FE
0020FE
03FE7E
0FFFFF
1FFFFF
3FFFFF
3FFFFF
7FE7FF
7F00FF
FF007F
FE007F
FC007F
FC007F
FC007F
FC007E
FE00FE
FE00FE
FF01FC
7FC7FC
7FFFF8
3FFFF0
1FFFE0
0FFFC0
03FF00
00F800
ENDCHAR
STARTCHAR 2205
ENCODING 8709
SWIDTH 720 0
DWIDTH 36 0
BBX 31 30 3 3
BITMAP
001FF00C
00FFFE1E
01FFFF3C
07F01FF8
0FC007F0
1F0001F0
1E0003F0
3C0007F8
78000F38
78001E3C
70003C1C
F000781C
F000F01E
F001E01E
F003C01E
F007801E
F00F001E
F01E001E
F03C001C
7078001C
78F0003C
39E00038
3FC00078
1F8000F0
1F0001F0
1FC007E0
3FF01FC0
79FFFF00
F0FFFE00
601FF000
ENDCHAR
STARTCHAR 220F
ENCODING 8719
SWIDTH 640 0
DWIDTH 32 0
BBX 27 41 3 -5
BITMAP
FFFFFFE0
FFFFFFE0
FFFFFFE0
FFFFFFE0
FFFFFFE0
1F803E00
1F803E00
1F803E00
1F803E00
1F803E00
1F803E00
1F803E00
1F803E00
1F803E00
1F803E00
1F803E00
1F803E00
1F803E00
1F803E00
1F803E00
1F803E00
1F803E00
1F803E00
1F803E00
1F803E00
1F803E00
1F803E00
1F803E00
1F803E00
1F803E00
1F803E00
1F803E00
1F803E00
1F803E00
1F803E00
1F803E00
1F803E00
1F803E00
1F803E00
1F803E00
1F803E00
ENDCHAR
STARTCHAR 2211
ENCODING 8721
SWIDTH 500 0
DWIDTH 25 0
BBX 20 41 3 -5
BITMAP
FFFFF0
FFFFF0
FFFFF0
FFFFF0
FFFFF0
FC0000
7E0000
7F0000
3F0000
3F8000
1F8000
0FC000
0FC000
07E000
07E000
03F000
03F800
01F800
00FC00
00FC00
007E00
00FC00
00FC00
01F800
03F800
03F000
07E000
07E000
0FC000
0FC000
1F8000
1F8000
3F0000
7E0000
7E0000
FC0000
FFFFF0
FFFFF0
FFFFF0
FFFFF0
FFFFF0
ENDCHAR
STARTCHAR 2212
ENCODING 8722
SWIDTH 560 0
DWIDTH 28 0
BBX 23 5 3 14
BITMAP
FFFFFE
FFFFFE
FFFFFE
FFFFFE
FFFFFE
ENDCHAR
STARTCHAR 221A
ENCODING 8730
SWIDTH 700 0
DWIDTH 35 0
BBX 30 41 3 -5
BITMAP
00001FFC
00003FFC
00003FFC
00003FFC
00003FFC
00007E00
00007E00
00007C00
0000FC00
0000FC00
0000FC00
0000F800
0001F800
0001F800
0001F000
0001F000
0003F000
0003F000
0003E000
0007E000
0007E000
FC07C000
FC07C000
7C0FC000
7E0FC000
7E0F8000
3E1F8000
3F1F8000
3F1F0000
1F1F0000
1FBF0000
1FBE0000
0FBE0000
0FFE0000
0FFE0000
07FC0000
07FC0000
07FC0000
03F80000
03F80000
03F80000
ENDCHAR
STARTCHAR 221E
ENCODING 8734
SWIDTH 820 0
DWIDTH 41 0
BBX 36 17 3 9
BITMAP
07F001FE00
1FFC03FF80
3FFE0FFFC0
7FFF1FFFE0
781FBF03E0
F007FE01E0
F003FC00F0
F001F800F0
F001F800F0
F003F800F0
F007FC01F0
F80FFF01E0
7E3F9FC7E0
7FFF0FFFC0
3FFE07FF80
0FF801FF00
03C0003800
ENDCHAR
STARTCHAR 222B
ENCODING 8747
SWIDTH 520 0
DWIDTH 26 0
BBX 21 42 3 -6
BITMAP
0001F8
0007F8
000FF8
001FF8
001FC0
003F00
003F00
003E00
003E00
007E00
007E00
007C00
007C00
007C00
007C00
00FC00
00FC00
00F800
00F800
00F800
00F800
01F800
01F000
01F000
01F000
01F000
03F000
03F000
03E000
03E000
03E000
03E000
07E000
07E000
07C000
0FC000
0FC000
3F8000
FF8000
FF0000
FC0000
C00000
ENDCHAR
STARTCHAR 2248
ENCODING 8776
SWIDTH 540 0
DWIDTH 27 0
BBX 22 17 3 8
BITMAP
3F0000
FFF804
FFFFFC
FFFFFC
FFFFFC
007FFC
0001C0
000000
000000
000000
000000
FFC000
FFFF3C
FFFFFC
FFFFFC
F7FFFC
001FF8
ENDCHAR
STARTCHAR 2260
ENCODING 8800
SWIDTH 560 0
DWIDTH 28 0
BBX 23 26 3 3
BITMAP
0007C0
000F80
000F80
001F00
001F00
FFFFFE
FFFFFE
FFFFFE
FFFFFE
FFFFFE
007C00
007C00
00F800
00F800
01F000
FFFFFE
FFFFFE
FFFFFE
FFFFFE
FFFFFE
07C000
07C000
078000
0F8000
0F8000
1F0000
ENDCHAR
STARTCHAR 2264
ENCODING 8804
SWIDTH 560 0
DWIDTH 28 0
BBX 23 22 3 5
BITMAP
000002
00003E
0007FE
007FFE
0FFFFE
FFFFE0
FFFC00
FF8000
FF8000
FFF800
FFFFC0
1FFFFE
00FFFE
000FFE
00007E
000006
000000
000000
FFFFFE
FFFFFE
FFFFFE
FFFFFE
ENDCHAR
STARTCHAR 2265
ENCODING 8805
SWIDTH 560 0
DWIDTH 28 0
BBX 23 22 3 5
BITMAP
800000
F80000
FF8000
FFFC00
FFFFC0
0FFFFE
00FFFE
0007FE
0001FE
003FFE
07FFFE
FFFFE0
FFFE00
FFE000
FC0000
C00000
000000
000000
FFFFFE
FFFFFE
FFFFFE
FFFFFE
ENDCHAR
STARTCHAR 25CA
ENCODING 9674
SWIDTH 520 0
DWIDTH 26 0
BBX 20 29 3 4
BITMAP
01F800
01F800
03FC00
03FC00
07FE00
07FE00
0F9F00
1F9F80
1F0F80
3F0FC0
3E07C0
7E07E0
7C03E0
FC03F0
F801F0
F801F0
7C03E0
7C03E0
3E07C0
3E07C0
1F0F80
1F0F80
0F9F00
0F9F00
07FE00
07FE00
03FC00
03FC00
01F800
ENDCHAR
ENDFONT
